<?xml version="1.0" standalone="no"?>
<!DOCTYPE svg PUBLIC "-//W3C//DTD SVG 1.1//EN" "http://www.w3.org/Graphics/SVG/1.1/DTD/svg11.dtd" >
<svg xmlns="http://www.w3.org/2000/svg" xmlns:xlink="http://www.w3.org/1999/xlink" version="1.1">
<metadata>
Created by FontForge 20170731 at Thu Oct 13 10:44:39 2022
 By Aleksey,,,
Copyright 2017 The Merienda Project Authors (https://github.com/etunni/merienda)
</metadata>
<defs>
<font id="Merienda-Medium" horiz-adv-x="0" >
  <font-face 
    font-family="Merienda Medium"
    font-weight="500"
    font-stretch="normal"
    units-per-em="1000"
    panose-1="0 0 0 0 0 0 0 0 0 0"
    ascent="800"
    descent="-200"
    x-height="579"
    cap-height="802"
    bbox="-213 -350 1362 1412"
    underline-thickness="50"
    underline-position="-175"
    unicode-range="U+0020-FB02"
  />
<missing-glyph horiz-adv-x="726" 
d="M641 -186q-28 0 -45.5 0.5t-29.5 1.5t-24.5 1.5t-29.5 0.5q-64 0 -119.5 -5t-103 -7.5t-87.5 5t-72 32.5q-21 17 -33.5 37t-12.5 48q0 87 7.5 204.5t7.5 250.5q0 70 -1 145t-3 143.5t-4.5 120.5t-5.5 75q47 0 79 1t58 2t53 2t62 2t87 1q68 0 111 -1.5t66.5 -12t32 -36
t8.5 -72.5q0 -43 -2.5 -82t-5 -80.5t-5 -92t-2.5 -115.5q0 -88 1 -179t3 -171t4.5 -138t5.5 -81zM467 -87h23t23 1q1 41 3.5 97.5t5 121.5t4 129.5t1.5 120.5q0 40 -0.5 93t-1 109.5t-1.5 107.5t-3 87q-58 0 -116 -2t-107.5 -5.5t-84.5 -10.5q-2 -43 -5.5 -105t-6 -132.5
t-2.5 -141.5q0 -51 0.5 -114t1 -128.5t2 -124.5t2.5 -101q14 1 29.5 1.5t31.5 0.5q19 0 45.5 -0.5t55 -1.5t55 -1.5t45.5 -0.5z" />
    <glyph glyph-name="fi" unicode="fi" horiz-adv-x="723" 
d="M236 -113q-33 12 -56 30.5t-37.5 44t-21.5 58.5t-7 73q0 37 3.5 98.5t11 136.5t22.5 154.5t38 154t56.5 134t78.5 94.5t104 35q38 0 60.5 -17t22.5 -47q0 -18 -8 -35.5t-28 -29.5q-12 15 -29.5 23.5t-45.5 8.5q-35 0 -62 -31t-46.5 -84t-32.5 -119.5t-21 -138
t-12.5 -139.5t-5.5 -123.5t-1 -89.5q0 -32 0.5 -55t2.5 -43t5 -42t9 -51zM47 435q-1 7 -1.5 15t-0.5 15q0 37 17 55t46 24t64 6q24 0 50 -1.5t49 -1.5q36 0 70.5 5.5t57.5 24.5q1 -6 1.5 -13t0.5 -14q0 -46 -17.5 -62t-47.5 -16q-42 0 -77.5 0.5t-68.5 -1.5t-67.5 -10
t-75.5 -26zM599 88q0 -36 3 -62.5t9 -40.5q-44 14 -68.5 37.5t-34 58t-9.5 83.5q0 44 8 98t16 110t8 107q0 26 -0.5 51.5t-5.5 50.5q8 1 17 1.5t16 0.5q49 0 70 -20t21 -66q0 -29 -12 -90t-24.5 -143t-13.5 -176zM644 661q-13 -4 -28.5 -7t-30.5 -3t-30 5t-25 17t-10 33
q0 18 6 35.5t12 36.5q13 5 29 7.5t30 2.5q16 0 30.5 -5t24.5 -16.5t10 -33.5q0 -18 -6 -35.5t-12 -36.5z" />
    <glyph glyph-name="fl" unicode="fl" horiz-adv-x="701" 
d="M236 -113q-33 12 -56 30.5t-37.5 44t-21.5 58.5t-7 73q0 37 3.5 98.5t11 136.5t22.5 154.5t38 154t56.5 134t78.5 94.5t104 35q38 0 60.5 -17t22.5 -47q0 -18 -8 -35.5t-28 -29.5q-12 15 -29.5 23.5t-45.5 8.5q-35 0 -62 -31t-46.5 -84t-32.5 -119.5t-21 -138
t-12.5 -139.5t-5.5 -123.5t-1 -89.5q0 -32 0.5 -55t2.5 -43t5 -42t9 -51zM47 435q-1 7 -1.5 15t-0.5 15q0 37 17 55t46 24t64 6q24 0 50 -1.5t49 -1.5q36 0 70.5 5.5t57.5 24.5q1 -6 1.5 -13t0.5 -14q0 -46 -17.5 -62t-47.5 -16q-42 0 -77.5 0.5t-68.5 -1.5t-67.5 -10
t-75.5 -26zM479 117q0 33 7 94t17 138t19.5 160t16.5 161t7 139q0 41 -3 71.5t-9 45.5q42 -14 66 -37t34 -57t10 -81q0 -46 -9 -120t-20 -166t-20 -192t-9 -198q0 -23 1.5 -45.5t2.5 -44.5q-40 2 -62.5 12t-33 27t-13 40.5t-2.5 52.5z" />
    <glyph glyph-name="f_f" unicode="ff" horiz-adv-x="816" 
d="M114 93q0 37 4 98.5t12.5 136.5t24.5 154.5t40 154t58 134t80 94.5t105 35q61 0 99 -33t38 -83q0 -27 -12.5 -52t-36 -41.5t-56.5 -16.5q-7 0 -16.5 1.5t-18.5 5.5q8 7 17 21t16 32.5t7 36.5q0 30 -13.5 47.5t-35.5 17.5q-36 0 -65 -34t-50.5 -91.5t-37 -129.5t-26 -149
t-16.5 -149t-8.5 -129.5t-2.5 -90.5q0 -29 0.5 -48.5t2 -36.5t4.5 -38t9 -53q-33 12 -56 30.5t-37.5 44t-21.5 58.5t-7 73zM399 577q1 -6 1.5 -13t0.5 -14q0 -46 -17.5 -62t-47.5 -16q-42 0 -77.5 0.5t-68.5 -1.5t-67.5 -10t-75.5 -26q-1 7 -1.5 15t-0.5 15q0 37 17 55
t46 24t64 6q24 0 50 -1.5t49 -1.5q36 0 70.5 5.5t57.5 24.5zM522 93q0 37 4 98.5t12.5 136.5t24.5 154.5t40 154t58 134t80 94.5t105 35q61 0 99 -33t38 -83q0 -27 -12.5 -52t-36 -41.5t-56.5 -16.5q-7 0 -16.5 1.5t-18.5 5.5q8 7 17 21t16 32.5t7 36.5q0 30 -13.5 47.5
t-35.5 17.5q-36 0 -65 -34t-50.5 -91.5t-37 -129.5t-26 -149t-16.5 -149t-8.5 -129.5t-2.5 -90.5q0 -29 0.5 -48.5t2 -36.5t4.5 -38t9 -53q-33 12 -56 30.5t-37.5 44t-21.5 58.5t-7 73zM807 577q1 -6 1.5 -13t0.5 -14q0 -46 -17.5 -62t-47.5 -16q-42 0 -77.5 0.5t-68.5 -1.5
t-67.5 -10t-75.5 -26q-1 7 -1.5 15t-0.5 15q0 37 17 55t46 24t64 6q24 0 50 -1.5t49 -1.5q36 0 70.5 5.5t57.5 24.5z" />
    <glyph glyph-name="f_f_i" unicode="ffi" horiz-adv-x="1131" 
d="M114 93q0 37 4 98.5t12.5 136.5t24.5 154.5t40 154t58 134t80 94.5t105 35q61 0 99 -33t38 -83q0 -27 -12.5 -52t-36 -41.5t-56.5 -16.5q-7 0 -16.5 1.5t-18.5 5.5q8 7 17 21t16 32.5t7 36.5q0 30 -13.5 47.5t-35.5 17.5q-36 0 -65 -34t-50.5 -91.5t-37 -129.5t-26 -149
t-16.5 -149t-8.5 -129.5t-2.5 -90.5q0 -29 0.5 -48.5t2 -36.5t4.5 -38t9 -53q-33 12 -56 30.5t-37.5 44t-21.5 58.5t-7 73zM399 577q1 -6 1.5 -13t0.5 -14q0 -46 -17.5 -62t-47.5 -16q-42 0 -77.5 0.5t-68.5 -1.5t-67.5 -10t-75.5 -26q-1 7 -1.5 15t-0.5 15q0 37 17 55
t46 24t64 6q24 0 50 -1.5t49 -1.5q36 0 70.5 5.5t57.5 24.5zM644 -113q-33 12 -56 30.5t-37.5 44t-21.5 58.5t-7 73q0 37 3.5 98.5t11 136.5t22.5 154.5t38 154t56.5 134t78.5 94.5t104 35q38 0 60.5 -17t22.5 -47q0 -18 -8 -35.5t-28 -29.5q-12 15 -29.5 23.5t-45.5 8.5
q-35 0 -62 -31t-46.5 -84t-32.5 -119.5t-21 -138t-12.5 -139.5t-5.5 -123.5t-1 -89.5q0 -32 0.5 -55t2.5 -43t5 -42t9 -51zM455 435q-1 7 -1.5 15t-0.5 15q0 37 17 55t46 24t64 6q24 0 50 -1.5t49 -1.5q36 0 70.5 5.5t57.5 24.5q1 -6 1.5 -13t0.5 -14q0 -46 -17.5 -62
t-47.5 -16q-42 0 -77.5 0.5t-68.5 -1.5t-67.5 -10t-75.5 -26zM1007 88q0 -36 3 -62.5t9 -40.5q-44 14 -68.5 37.5t-34 58t-9.5 83.5q0 44 8 98t16 110t8 107q0 26 -0.5 51.5t-5.5 50.5q8 1 17 1.5t16 0.5q49 0 70 -20t21 -66q0 -29 -12 -90t-24.5 -143t-13.5 -176zM1052 661
q-13 -4 -28.5 -7t-30.5 -3t-30 5t-25 17t-10 33q0 18 6 35.5t12 36.5q13 5 29 7.5t30 2.5q16 0 30.5 -5t24.5 -16.5t10 -33.5q0 -18 -6 -35.5t-12 -36.5z" />
    <glyph glyph-name="f_f_l" unicode="ffl" horiz-adv-x="1109" 
d="M114 93q0 37 4 98.5t12.5 136.5t24.5 154.5t40 154t58 134t80 94.5t105 35q61 0 99 -33t38 -83q0 -27 -12.5 -52t-36 -41.5t-56.5 -16.5q-7 0 -16.5 1.5t-18.5 5.5q8 7 17 21t16 32.5t7 36.5q0 30 -13.5 47.5t-35.5 17.5q-36 0 -65 -34t-50.5 -91.5t-37 -129.5t-26 -149
t-16.5 -149t-8.5 -129.5t-2.5 -90.5q0 -29 0.5 -48.5t2 -36.5t4.5 -38t9 -53q-33 12 -56 30.5t-37.5 44t-21.5 58.5t-7 73zM399 577q1 -6 1.5 -13t0.5 -14q0 -46 -17.5 -62t-47.5 -16q-42 0 -77.5 0.5t-68.5 -1.5t-67.5 -10t-75.5 -26q-1 7 -1.5 15t-0.5 15q0 37 17 55
t46 24t64 6q24 0 50 -1.5t49 -1.5q36 0 70.5 5.5t57.5 24.5zM644 -113q-33 12 -56 30.5t-37.5 44t-21.5 58.5t-7 73q0 37 3.5 98.5t11 136.5t22.5 154.5t38 154t56.5 134t78.5 94.5t104 35q38 0 60.5 -17t22.5 -47q0 -18 -8 -35.5t-28 -29.5q-12 15 -29.5 23.5t-45.5 8.5
q-35 0 -62 -31t-46.5 -84t-32.5 -119.5t-21 -138t-12.5 -139.5t-5.5 -123.5t-1 -89.5q0 -32 0.5 -55t2.5 -43t5 -42t9 -51zM455 435q-1 7 -1.5 15t-0.5 15q0 37 17 55t46 24t64 6q24 0 50 -1.5t49 -1.5q36 0 70.5 5.5t57.5 24.5q1 -6 1.5 -13t0.5 -14q0 -46 -17.5 -62
t-47.5 -16q-42 0 -77.5 0.5t-68.5 -1.5t-67.5 -10t-75.5 -26zM887 117q0 33 7 94t17 138t19.5 160t16.5 161t7 139q0 41 -3 71.5t-9 45.5q42 -14 66 -37t34 -57t10 -81q0 -46 -9 -120t-20 -166t-20 -192t-9 -198q0 -23 1.5 -45.5t2.5 -44.5q-40 2 -62.5 12t-33 27t-13 40.5
t-2.5 52.5z" />
    <glyph glyph-name=".notdef" horiz-adv-x="726" 
d="M641 -186q-28 0 -45.5 0.5t-29.5 1.5t-24.5 1.5t-29.5 0.5q-64 0 -119.5 -5t-103 -7.5t-87.5 5t-72 32.5q-21 17 -33.5 37t-12.5 48q0 87 7.5 204.5t7.5 250.5q0 70 -1 145t-3 143.5t-4.5 120.5t-5.5 75q47 0 79 1t58 2t53 2t62 2t87 1q68 0 111 -1.5t66.5 -12t32 -36
t8.5 -72.5q0 -43 -2.5 -82t-5 -80.5t-5 -92t-2.5 -115.5q0 -88 1 -179t3 -171t4.5 -138t5.5 -81zM467 -87h23t23 1q1 41 3.5 97.5t5 121.5t4 129.5t1.5 120.5q0 40 -0.5 93t-1 109.5t-1.5 107.5t-3 87q-58 0 -116 -2t-107.5 -5.5t-84.5 -10.5q-2 -43 -5.5 -105t-6 -132.5
t-2.5 -141.5q0 -51 0.5 -114t1 -128.5t2 -124.5t2.5 -101q14 1 29.5 1.5t31.5 0.5q19 0 45.5 -0.5t55 -1.5t55 -1.5t45.5 -0.5z" />
    <glyph glyph-name=".null" 
 />
    <glyph glyph-name="nonmarkingreturn" horiz-adv-x="333" 
 />
    <glyph glyph-name="space" unicode=" " horiz-adv-x="330" 
 />
    <glyph glyph-name="exclam" unicode="!" horiz-adv-x="287" 
d="M248 703q0 -30 -10.5 -73.5t-25 -97t-25 -115.5t-10.5 -130q0 -23 2 -40.5t6 -28.5q-38 12 -59.5 32t-31 48.5t-9.5 67.5q0 62 12.5 123t25 125t12.5 134q0 13 -0.5 25.5t-2.5 24.5q15 0 34.5 -5t38 -16t31 -29.5t12.5 -44.5zM170 -1q-14 -4 -30.5 -7t-32.5 -3t-31.5 4.5
t-26 17t-10.5 34.5q0 20 6 39l12 38q15 5 31 7.5t32 2.5q17 0 32 -4.5t25.5 -17t10.5 -34.5q0 -20 -6 -39z" />
    <glyph glyph-name="quotedbl" unicode="&#x22;" horiz-adv-x="356" 
d="M191 761q0 -24 -11 -48.5t-22 -54.5t-11 -71q0 -24 6 -51q-41 0 -61.5 12t-27.5 32t-7 42q0 30 8.5 55.5t17 52.5t8.5 57q0 10 -1.5 20t-4.5 20q21 0 46 -4t42.5 -18t17.5 -44zM356 761q0 -24 -11 -48.5t-22 -54.5t-11 -71q0 -24 6 -51q-41 0 -61.5 12t-27.5 32t-7 42
q0 30 8.5 55.5t17 52.5t8.5 57q0 10 -1.5 20t-4.5 20q21 0 46 -4t42.5 -18t17.5 -44z" />
    <glyph glyph-name="numbersign" unicode="#" horiz-adv-x="778" 
d="M623 550q78 0 110 -22t32 -76q0 -4 -0.5 -9.5t-0.5 -10.5q-54 5 -106 7.5t-112 2.5q-77 0 -156 -6.5t-176 -6.5q-77 0 -109 22t-32 76q0 5 0.5 10t0.5 10q55 -5 106.5 -7.5t110.5 -2.5q77 0 156.5 6.5t175.5 6.5zM563 288q78 0 110 -22t32 -76q0 -4 -0.5 -9.5t-0.5 -10.5
q-36 3 -71 5.5t-70.5 3.5t-75.5 1q-77 0 -156 -6.5t-176 -6.5q-77 0 -109.5 22t-32.5 76q0 5 0.5 10t0.5 10q55 -5 106.5 -7.5t110.5 -2.5q77 0 156.5 6.5t175.5 6.5zM172 -41q-34 4 -56.5 28.5t-22.5 58.5q0 24 14.5 70.5t37.5 106.5t49.5 128t52.5 136.5t45.5 130
t27.5 109.5q35 -4 57 -28.5t22 -58.5q0 -24 -14.5 -70.5t-37.5 -107t-49.5 -128t-52.5 -136t-45.5 -130t-27.5 -109.5zM443 -41q-34 4 -56.5 28.5t-22.5 58.5q0 24 14.5 70.5t37.5 106.5t49.5 128t52.5 136.5t45.5 130t27.5 109.5q35 -4 57 -28.5t22 -58.5
q0 -24 -14.5 -70.5t-37.5 -107t-49.5 -128t-52.5 -136t-45.5 -130t-27.5 -109.5z" />
    <glyph glyph-name="dollar" unicode="$" horiz-adv-x="599" 
d="M271 -25q-64 0 -113.5 20.5t-77.5 56.5t-28 82q0 34 14.5 59.5t40.5 40t58 14.5q9 0 15.5 -0.5t12.5 -2.5q-13 -20 -20.5 -42t-7.5 -45q0 -52 32 -84.5t82 -32.5q47 0 77.5 28t30.5 70q0 36 -20.5 65t-53 55t-69 53t-68.5 57.5t-52.5 69t-20.5 87.5q0 56 27.5 97t77 64
t114.5 23q58 0 102.5 -19.5t70.5 -53.5t26 -78q0 -47 -32.5 -79.5t-81.5 -32.5q-10 0 -19 1t-15 2q19 21 30 48.5t11 55.5q0 43 -26.5 69t-69.5 26q-45 0 -72.5 -27.5t-27.5 -72.5q0 -39 21 -71t54 -59t70 -54t70 -56t54 -65t21 -81q0 -55 -30 -97.5t-83.5 -66.5t-123.5 -24
zM322 868l8 -9.5t18.5 -27t18 -41.5t7.5 -54q0 -38 -8.5 -105t-22.5 -151.5t-29 -176.5t-27 -182.5t-17 -168.5t1 -134l-12.5 5t-30 18.5t-30.5 38.5t-13 64q0 41 11 111.5t27.5 157.5t35 181t34.5 184t24.5 165.5t4.5 124.5z" />
    <glyph glyph-name="percent" unicode="%" horiz-adv-x="896" 
d="M215 651q-28 0 -51.5 -26.5t-38.5 -69t-15 -91.5q0 -54 19 -86.5t50 -32.5q27 0 48 24.5t33.5 66.5t12.5 95q0 56 -15 88t-43 32zM191 686q36 14 62 14q51 0 79 -41t28 -114q0 -71 -24.5 -128.5t-67 -91t-96.5 -33.5q-67 0 -107 50t-40 135q0 58 19 106.5t52 81.5t77 45z
M524 768q20 -14 33 -43t13 -60q0 -24 -13 -71.5t-34 -111t-45.5 -137t-48 -149t-41.5 -147t-26 -131.5q-32 4 -54 31.5t-22 64.5q0 27 14.5 78t38.5 118t52 142t55 151t48 144t30 121zM725 335q-28 0 -51.5 -26.5t-38.5 -69t-15 -91.5q0 -54 19 -86.5t50 -32.5q27 0 48 24.5
t33.5 66.5t12.5 95q0 56 -15 88t-43 32zM701 370q36 14 62 14q51 0 79 -41t28 -114q0 -71 -24.5 -128.5t-67 -91t-96.5 -33.5q-67 0 -107 50t-40 135q0 58 19 106.5t52 81.5t77 45z" />
    <glyph glyph-name="ampersand" unicode="&#x26;" horiz-adv-x="620" 
d="M206 590q0 -83 63 -124t177 -41q51 0 110 11t116 35q0 -18 -2 -38t-9 -38t-22 -29.5t-42 -11.5h-66l-13 -84.5t-14 -94t-13 -96.5t-9.5 -94t-3.5 -88q0 -44 8.5 -77.5t15.5 -49.5q-47 14 -72 40t-34.5 64.5t-9.5 90.5q0 11 1 29.5t2.5 37.5t2.5 29q-22 -35 -52.5 -56
t-63 -29.5t-60.5 -8.5q-52 0 -96.5 22t-72.5 66t-28 109q0 53 28.5 101.5t81.5 84t127 46.5q-59 20 -94 51t-51 68t-16 72q0 50 28 94t76.5 72t113.5 28q96 0 144.5 -41.5t48.5 -102.5q0 -30 -14 -58.5t-41.5 -47t-66.5 -18.5q-8 0 -18.5 1t-23.5 4q28 31 41.5 58.5
t13.5 58.5q0 39 -25 58t-55 19q-34 0 -59.5 -18t-38.5 -46t-13 -58zM258 43q43 0 71.5 17.5t46 47.5t27 67.5t14.5 76.5l14 103q-33 0 -73 -4t-79.5 -14.5t-71.5 -30.5t-51.5 -52.5t-19.5 -80.5q0 -65 35.5 -97.5t86.5 -32.5z" />
    <glyph glyph-name="quotesingle" unicode="'" horiz-adv-x="191" 
d="M191 761q0 -24 -11 -48.5t-22 -54.5t-11 -71q0 -24 6 -51q-41 0 -61.5 12t-27.5 32t-7 42q0 30 8.5 55.5t17 52.5t8.5 57q0 10 -1.5 20t-4.5 20q21 0 46 -4t42.5 -18t17.5 -44z" />
    <glyph glyph-name="parenleft" unicode="(" horiz-adv-x="359" 
d="M361 762q-63 -46 -110 -121t-73 -167t-26 -192q0 -60 12 -120t33.5 -114t51.5 -97t65 -69q0 -9 -7 -16.5t-16 -8.5q-84 39 -141.5 100.5t-87 145t-29.5 184.5q0 88 21.5 165.5t61 142.5t96.5 113.5t130 78.5q8 -1 15.5 -9.5t3.5 -15.5z" />
    <glyph glyph-name="parenright" unicode=")" horiz-adv-x="359" 
d="M-2 -118q63 47 110 121.5t73 167t26 191.5q0 60 -12 120t-33.5 114t-51.5 97t-65 69q0 9 7 16.5t16 8.5q84 -38 141.5 -100t87 -145t29.5 -185q0 -88 -21.5 -165.5t-61 -142.5t-96.5 -113.5t-130 -78.5q-7 1 -15 9.5t-4 15.5z" />
    <glyph glyph-name="asterisk" unicode="*" horiz-adv-x="522" 
d="M420 570q-17 17 -35 36.5t-34.5 36t-28.5 25.5q0 -5 1 -16t2 -21.5t1 -17.5q0 -24 -4 -48.5t-16 -40.5t-36 -16q-12 0 -34 11t-46 33q14 13 27 34t23.5 43t16.5 37q-15 -6 -35.5 -14t-41 -13.5t-35.5 -5.5q-29 0 -44.5 15.5t-15.5 41.5q0 14 4.5 30.5t15.5 36.5
q19 -9 42.5 -15.5t46.5 -10t42 -3.5q-13 15 -29.5 36.5t-28 45t-11.5 41.5q0 21 11.5 31.5t29.5 15t35 4.5q7 0 16.5 -0.5t17.5 -2.5q-2 -15 -3 -25.5t-1 -15.5q0 -12 1.5 -29.5t5.5 -34t8 -28.5q9 15 22 34t28.5 36t31 28t29.5 11q9 0 22 -10.5t25 -31t18 -50.5
q-22 -4 -46 -13t-45 -19.5t-35 -21.5q14 -3 37 -10.5t46.5 -18.5t39.5 -25.5t16 -31.5q0 -15 -14 -36t-43 -37z" />
    <glyph glyph-name="plus" unicode="+" horiz-adv-x="620" 
d="M275 105q-8 0 -17.5 0.5t-19.5 2.5q10 47 14.5 95t5.5 100q-24 -2 -47.5 -3t-49.5 -1q-44 0 -66.5 10.5t-31 30t-8.5 46.5q0 6 1 12.5t2 12.5q35 -5 72.5 -7.5t76.5 -2.5q15 0 27.5 0.5t24.5 1.5q0 29 1 54t3 51q4 53 22 76t60 23q11 0 19.5 -0.5t16.5 -2.5
q-10 -46 -14.5 -94t-5.5 -100q24 2 47.5 3t50.5 1q44 0 66.5 -10.5t31 -30t8.5 -46.5q0 -5 -1 -11.5t-2 -13.5q-35 6 -72.5 8t-77.5 2q-14 0 -27.5 -0.5t-24.5 -1.5q-1 -24 -1.5 -50.5t-2.5 -55.5q-4 -52 -22 -75.5t-59 -23.5z" />
    <glyph glyph-name="comma" unicode="," horiz-adv-x="234" 
d="M61 121q14 5 32.5 8t35.5 3q16 0 31.5 -5t25.5 -18.5t10 -38.5q0 -60 -42.5 -118t-127.5 -102l-26 34q37 35 56.5 77t19.5 85q0 19 -4 37.5t-11 37.5z" />
    <glyph glyph-name="hyphen" unicode="-" horiz-adv-x="482" 
d="M77 224q-4 14 -5.5 25t-1.5 24q0 56 28 80.5t91 24.5q24 0 47.5 -1.5t51.5 -1.5q43 0 71.5 8.5t45.5 25.5q4 -14 5 -25t1 -24q0 -55 -28 -80t-91 -25q-23 0 -47 1.5t-51 1.5q-44 0 -71.5 -8t-45.5 -26z" />
    <glyph glyph-name="period" unicode="." horiz-adv-x="226" 
d="M170 -1q-14 -4 -31 -7t-33 -3t-31.5 4.5t-26 17t-10.5 34.5q0 20 6 39l12 38q15 5 31.5 7.5t32.5 2.5q17 0 32 -4.5t25.5 -17t10.5 -34.5q0 -20 -6 -39z" />
    <glyph glyph-name="slash" unicode="/" horiz-adv-x="422" 
d="M364 868q25 -14 41.5 -43t16.5 -60q0 -21 -16 -70t-43 -117.5t-60 -149.5t-67 -166.5t-64 -168t-51 -153.5t-28 -122q-27 3 -48 16t-33 34t-12 46q0 23 18 75t47.5 124t66 155.5t74 170t70.5 167.5t56.5 149t31.5 113z" />
    <glyph glyph-name="zero" unicode="0" horiz-adv-x="645" 
d="M361 627q-41 0 -75.5 -28.5t-60.5 -76t-41 -106t-15 -117.5q0 -67 14 -123.5t43.5 -90.5t75.5 -34q41 0 73 28t54 75t33 106t11 120q0 92 -16 146t-41.5 77.5t-54.5 23.5zM318 668q29 13 54 19t47 6q57 0 94.5 -35.5t56 -95t18.5 -133.5q0 -62 -11 -126.5t-35 -122.5
t-60.5 -104t-87 -72.5t-115.5 -26.5q-41 0 -80.5 19t-71.5 58.5t-51 101t-19 145.5q0 102 29.5 187t82 143.5t123.5 78.5q24 0 26 -42z" />
    <glyph glyph-name="one" unicode="1" horiz-adv-x="534" 
d="M141 495q-17 0 -29 13t-20 31.5t-11.5 36t-3.5 26.5q19 4 53.5 13.5t79 23.5t91.5 32t90 39q-2 -40 -5.5 -58.5t-8 -24.5t-10.5 -10q-16 -9 -41 -24.5t-53.5 -32.5t-55.5 -31.5t-47.5 -24t-28.5 -9.5zM37 -21q0 1 2 12.5t8.5 28.5t21.5 33.5t40.5 28t64.5 11.5
q36 0 76 -1.5t81 -1.5t80.5 5.5t75.5 20.5q-4 -70 -24.5 -102.5t-77.5 -32.5q-24 0 -54 5t-65.5 9.5t-78.5 4.5q-37 0 -75.5 -4t-74.5 -17zM216 49l60 562l115 99q0 -48 -6 -111t-14.5 -134t-17.5 -144.5t-15 -143.5t-6 -129z" />
    <glyph glyph-name="two" unicode="2" horiz-adv-x="571" 
d="M-11 -21q0 17 9 33.5t25 31t36.5 26t44 18t47.5 6.5h14.5t17 -0.5t28.5 -0.5q46 0 92.5 2.5t87 7t72 10.5t48.5 13q-4 -68 -36 -106.5t-83 -38.5q-21 0 -55.5 5t-79.5 9.5t-99 4.5q-48 0 -91.5 -5.5t-77.5 -15.5zM197 436q-34 0 -60.5 14t-41 39.5t-14.5 57.5
q0 47 27.5 83.5t75.5 58t107 21.5q67 0 117.5 -23t78 -65t27.5 -98q0 -59 -28.5 -122t-82.5 -126t-129.5 -121.5t-170.5 -109.5l-65 2q69 48 125.5 96t100 94.5t72 92.5t43.5 90t15 86q0 60 -29 95t-78 35q-43 0 -69.5 -27.5t-26.5 -71.5q0 -26 9.5 -50.5t28.5 -47.5
q-7 -1 -15.5 -2t-16.5 -1z" />
    <glyph glyph-name="three" unicode="3" horiz-adv-x="552" 
d="M141 136q0 -42 26.5 -66t72.5 -24q55 0 90 38t35 95q0 43 -20 76.5t-55 54t-81 23.5l-1 24q12 3 28 5t33 3.5t31 1.5q54 0 95.5 -22t65.5 -61.5t24 -91.5q0 -63 -32 -112t-88.5 -77t-128.5 -28q-60 0 -107 19t-73 53t-26 78q0 34 15 60t41.5 41t59.5 15q22 0 43 -7
q-23 -16 -35.5 -42t-12.5 -56zM179 361q55 9 98 35.5t67 64.5t24 82q0 42 -24 67t-66 25q-39 0 -62.5 -22.5t-23.5 -61.5q0 -23 9.5 -44.5t27.5 -43.5q-10 -2 -19.5 -3.5t-17.5 -1.5q-46 0 -74 28.5t-28 73.5q0 44 25 77.5t68.5 53t99.5 19.5q57 0 100 -21.5t68 -58.5
t25 -86q0 -57 -35.5 -103t-101 -75.5t-155.5 -40.5z" />
    <glyph glyph-name="four" unicode="4" horiz-adv-x="564" 
d="M15 254q73 100 125.5 191t85.5 170t47 144q17 -7 31.5 -18.5t24.5 -24.5t16 -27.5t6 -28.5q0 -28 -17 -67t-45.5 -85t-63.5 -97.5t-71.5 -105t-70.5 -106.5zM37 174q-6 7 -11 20t-8 28.5t-3 31.5q75 0 137 1t118 4t114 8t126 13q4 -11 5.5 -23.5t1.5 -26.5
q0 -23 -8.5 -38.5t-25.5 -23t-43 -7.5zM459 385q0 -28 -4.5 -53.5t-10 -56.5t-10 -75.5t-4.5 -112.5q0 -18 1 -37t3 -35t4 -25q-12 -3 -26.5 -4t-22.5 -1q-34 0 -52 22.5t-18 72.5q0 25 5.5 60t12 83t12 110.5t5.5 142.5q11 1 18.5 1.5t11.5 0.5q39 0 57 -22t18 -71z" />
    <glyph glyph-name="five" unicode="5" horiz-adv-x="566" 
d="M252 -25q-60 0 -106 19t-72 53.5t-26 79.5q0 36 15 63t40.5 43t58.5 16q11 0 21 -0.5t17 -2.5q-39 -44 -39 -98q0 -46 26 -73t71 -27q60 0 98 42.5t38 107.5q0 54 -24 93t-67.5 60t-102.5 21q-22 0 -48 -3t-55 -10l58 333l53 -19l22 -27l-35 -216q14 2 31 3.5t33 1.5
q76 0 133 -27t88.5 -75t31.5 -112q0 -70 -34 -125.5t-93 -88t-133 -32.5zM510 709q4 -7 6.5 -24t2.5 -35q0 -36 -14 -52.5t-44 -16.5q-13 0 -45.5 3.5t-75 9.5t-84.5 13t-73 14q-33 7 -49 25.5t-20 54.5q28 -4 61.5 -6t75.5 -2q39 0 85 2t91.5 5.5t82.5 8.5z" />
    <glyph glyph-name="six" unicode="6" horiz-adv-x="600" 
d="M136 338q42 27 92 41.5t95 14.5q61 0 106 -24t70.5 -66.5t25.5 -99.5q0 -49 -19 -90.5t-52 -72.5t-77 -48.5t-96 -17.5q-71 0 -123 35.5t-80 102t-28 158.5q0 93 23 173.5t64.5 140t97.5 92.5t122 33q50 0 89.5 -18.5t63 -50.5t23.5 -72q0 -28 -12.5 -49t-34 -33
t-50.5 -12q-24 0 -44 10q15 10 23.5 31t8.5 43q0 36 -20.5 57.5t-54.5 21.5q-39 0 -73 -30t-60 -83.5t-40.5 -124t-14.5 -150.5q0 -96 31 -148.5t88 -52.5q38 0 67.5 19t46 52t16.5 76q0 59 -34.5 93.5t-93.5 34.5q-30 0 -68 -10t-72 -27z" />
    <glyph glyph-name="seven" unicode="7" horiz-adv-x="498" 
d="M51 709q35 -4 80.5 -7.5t93.5 -5.5t89 -2t76 1.5t64 5.5l-42 -77q-74 -13 -138.5 -23t-109 -15t-62.5 -5q-31 0 -45.5 17.5t-14.5 53.5q0 16 2.5 32t6.5 25zM455 811q25 -18 40.5 -43.5t15.5 -48.5q0 -28 -20.5 -78t-52.5 -113.5t-70 -135.5t-73 -147t-60.5 -146.5
t-34.5 -133.5q-43 7 -71.5 31.5t-28.5 55.5t23 85t60.5 121.5t81 142.5t83.5 149t69 141.5t38 119.5z" />
    <glyph glyph-name="eight" unicode="8" horiz-adv-x="577" 
d="M264 350l18 -35q-63 -47 -93 -88t-30 -84q0 -46 29 -75t76 -29q35 0 65 15t48.5 40t18.5 53q0 32 -21 59t-54 53t-70 53.5t-69.5 58.5t-53.5 69.5t-21 86.5q0 55 29.5 96t82 64t122.5 23q89 0 139 -39t50 -110q0 -69 -49 -127t-130 -85l-38 30q117 83 117 172
q0 43 -25.5 68.5t-68.5 25.5q-48 0 -80.5 -29.5t-32.5 -74.5q0 -37 21 -67t54 -57t70 -54t70 -57t54 -66.5t21 -81.5q0 -55 -31 -96t-85.5 -64t-127.5 -23q-66 0 -116 21t-78 58.5t-28 86.5q0 46 27 87t75.5 73t114.5 49z" />
    <glyph glyph-name="nine" unicode="9" horiz-adv-x="600" 
d="M463 347q-40 -26 -89.5 -41t-97.5 -15q-60 0 -105.5 24t-71 66.5t-25.5 99.5q0 64 32.5 116t87 82.5t122.5 30.5q73 0 125.5 -39.5t80 -113t27.5 -178.5q0 -92 -20.5 -166.5t-59.5 -127.5t-93 -81.5t-120 -28.5q-54 0 -97 18.5t-67.5 50.5t-24.5 72q0 28 12 49t34 33
t50 12t44 -10q-14 -10 -23 -30.5t-9 -43.5q0 -36 23.5 -57.5t62.5 -21.5q54 0 94 42.5t61.5 120.5t21.5 184q0 242 -122 242q-36 0 -64.5 -19t-45.5 -52t-17 -75q0 -59 34.5 -94t93.5 -35q31 0 68.5 10t71.5 27z" />
    <glyph glyph-name="colon" unicode=":" horiz-adv-x="236" 
d="M170 -1q-14 -4 -31 -7t-33 -3t-31.5 4.5t-26 17t-10.5 34.5q0 20 6 39l12 38q15 5 31.5 7.5t32.5 2.5q17 0 32 -4.5t25.5 -17t10.5 -34.5q0 -20 -6 -39zM199 411q-14 -4 -31 -7t-33 -3t-31.5 4.5t-26 17t-10.5 34.5q0 20 6 39l12 38q15 5 31.5 7.5t32.5 2.5q17 0 32 -4.5
t25.5 -17t10.5 -34.5q0 -20 -6 -39z" />
    <glyph glyph-name="semicolon" unicode=";" horiz-adv-x="236" 
d="M61 121q14 5 32.5 8t35.5 3q16 0 31.5 -5t25.5 -18.5t10 -38.5q0 -60 -42.5 -118t-127.5 -102l-26 34q37 35 56.5 77t19.5 85q0 19 -4 37.5t-11 37.5zM199 411q-14 -4 -31 -7t-33 -3t-31.5 4.5t-26 17t-10.5 34.5q0 20 6 39l12 38q15 5 31.5 7.5t32.5 2.5q17 0 32 -4.5
t25.5 -17t10.5 -34.5q0 -20 -6 -39z" />
    <glyph glyph-name="less" unicode="&#x3c;" horiz-adv-x="620" 
d="M100 315q-20 22 -20 50q0 29 20 56q66 31 120 67.5t100 68.5t85 52.5t73 20.5q23 0 37.5 -20t24.5 -62q-54 -20 -111 -52.5t-111.5 -66.5t-104.5 -61q50 -26 104 -60t110.5 -66t112.5 -54q-10 -41 -24.5 -61.5t-37.5 -20.5q-34 0 -73 20.5t-85 52.5t-100 68.5t-120 67.5z
" />
    <glyph glyph-name="equal" unicode="=" horiz-adv-x="620" 
d="M459 294q57 0 81.5 -18.5t24.5 -63.5q0 -7 -0.5 -14.5t-2.5 -15.5q-33 5 -73 7t-86 2q-57 0 -114 -6t-128 -6q-57 0 -81.5 19t-24.5 63q0 7 1 14.5t2 15.5q34 -5 74 -7t85 -2q57 0 114 6t128 6zM459 534q57 0 81.5 -18.5t24.5 -63.5q0 -7 -0.5 -14.5t-2.5 -15.5
q-33 5 -73 7t-86 2q-57 0 -114 -6t-128 -6q-57 0 -81.5 19t-24.5 63q0 7 1 14.5t2 15.5q34 -5 74 -7t85 -2q57 0 114 6t128 6z" />
    <glyph glyph-name="greater" unicode="&#x3e;" horiz-adv-x="620" 
d="M520 421q20 -22 20 -50q0 -29 -20 -56q-65 -32 -119.5 -68t-100.5 -68t-85 -52.5t-73 -20.5q-23 0 -37.5 20.5t-24.5 61.5q55 20 111.5 52.5t111 67t104.5 60.5q-50 26 -104 60t-110.5 66.5t-112.5 53.5q10 42 24.5 62t37.5 20q34 0 73 -20.5t85 -52.5t100.5 -68
t119.5 -68z" />
    <glyph glyph-name="question" unicode="?" horiz-adv-x="463" 
d="M125 314q0 41 23 73t57 59l68 54t57 58.5t23 72.5q0 39 -24 62t-65 23q-42 0 -69 -25.5t-27 -66.5q0 -39 25 -69q-9 -4 -19 -6t-20 -2q-37 0 -60.5 24.5t-23.5 61.5q0 41 27 73t73 51t102 19q58 0 101 -19.5t66.5 -55t23.5 -83.5q0 -46 -18 -79.5t-46 -60t-59.5 -50
t-59.5 -47.5t-46 -53t-18 -66q0 -14 3 -29t8 -27q-34 8 -56.5 23t-34 36.5t-11.5 48.5zM231 -1q-14 -4 -30.5 -7t-32.5 -3t-32 4.5t-26 17t-10 34.5q0 20 6 39l12 38q14 5 30.5 7.5t32.5 2.5q17 0 32 -4.5t25.5 -17t10.5 -34.5q0 -20 -6 -39z" />
    <glyph glyph-name="at" unicode="@" horiz-adv-x="1027" 
d="M589 535h41q35 0 52 -14t17 -58q0 -30 -8.5 -74t-17.5 -99.5t-9 -120.5q0 -43 11 -71t46 -28q20 0 42.5 17.5t43 54t33.5 92t13 131.5q0 82 -22.5 139t-59.5 91t-83.5 49.5t-94.5 15.5q-106 0 -185 -38t-131.5 -101.5t-78.5 -141.5t-26 -157q0 -83 21.5 -139t58 -90.5
t81 -49.5t90.5 -15q41 0 78.5 14t68.5 39q7 -24 7 -44q0 -35 -23 -58.5t-60 -35.5t-83 -12q-63 0 -124.5 24t-113 72t-82.5 120.5t-31 170.5q0 74 23.5 146.5t68.5 136.5t110.5 113.5t151 77.5t189.5 28q50 0 101.5 -11.5t98.5 -37t84 -66.5t58.5 -99.5t21.5 -136.5
q0 -89 -25.5 -158t-66 -116t-86.5 -71t-88 -24q-46 0 -71 21t-35 61t-10 98q0 14 1 30t2 27h-8q-30 -78 -77 -113t-89 -35q-45 0 -77 37.5t-32 118.5q0 47 13.5 96.5t40.5 91.5t68 68t95 26q23 0 41 -5.5t34 -14.5l2 -15q-53 -9 -95 -44.5t-66 -88t-24 -114.5
q0 -32 13.5 -54t42.5 -22q25 0 47.5 23.5t41 63t29 87.5t10.5 97q0 10 -1 28t-3 37t-5 30z" />
    <glyph glyph-name="A" unicode="A" horiz-adv-x="645" 
d="M355 708q-19 -51 -47 -117.5t-60.5 -144t-64.5 -159.5t-59.5 -163.5t-45.5 -156.5q-35 14 -54 27t-26.5 25.5t-7.5 24.5q0 13 17.5 54.5t45.5 103.5t63 136t70.5 152t66.5 152t52 134zM468 64q-7 21 -17 64.5t-22 102t-26 124t-29 131t-30.5 123t-30.5 99.5
q-13 35 -28.5 53.5t-26.5 31.5q17 6 33 9t29 3q40 0 65 -21.5t41.5 -62t29.5 -98t29 -130.5q21 -97 39.5 -189t42.5 -168t58 -124q-22 -12 -45 -20t-39 -8q-33 0 -47 20.5t-26 59.5zM167 306h269q-3 -28 -18.5 -43.5t-37 -21t-43.5 -6.5l-195 -7z" />
    <glyph glyph-name="B" unicode="B" horiz-adv-x="683" 
d="M85 46q9 53 18 119t17.5 139t15.5 147.5t11 144.5t4 128q0 48 -3 76t-11 47q48 -14 75 -35.5t39 -52.5q42 22 90.5 32.5t89.5 10.5q54 0 96 -20t66 -57t24 -88q0 -49 -22 -91.5t-64 -75t-102 -52.5q39 -9 72.5 -27t59 -44.5t39.5 -59.5t14 -72q0 -55 -22.5 -99
t-61.5 -75.5t-91 -48t-113 -16.5q-43 0 -86 8.5t-82 24t-73 37.5zM377 733q-30 0 -61 -7.5t-53 -18.5q0 -32 -4 -82t-10 -111t-12.5 -125.5t-12.5 -126t-10 -113.5t-4 -87q24 -9 49 -14t51 -5q85 0 135.5 47.5t50.5 129.5q0 48 -23.5 85.5t-69.5 60.5t-113 26l-3 36
q71 10 118.5 36t72.5 65t25 86q0 35 -14 62t-42 41.5t-70 14.5z" />
    <glyph glyph-name="C" unicode="C" horiz-adv-x="687" 
d="M574 198q15 -1 27.5 -10t12.5 -20q-47 -91 -122.5 -142t-164.5 -51q-83 0 -144 44.5t-94.5 125.5t-33.5 192q0 104 27.5 190t78 148.5t119.5 96.5t153 34q96 0 152.5 -49t56.5 -133q0 -44 -17 -78t-46.5 -53.5t-67.5 -19.5q-9 0 -20.5 2t-26.5 6q16 19 29 45.5t20 56
t7 56.5q0 50 -25 77t-70 27q-51 0 -95.5 -32t-78.5 -89t-53 -131t-19 -159q0 -86 22.5 -149.5t63.5 -97.5t97 -34q61 0 117.5 39.5t94.5 107.5z" />
    <glyph glyph-name="D" unicode="D" horiz-adv-x="760" 
d="M251 759q49 23 88 33t82 10q87 0 153 -47.5t103 -132.5t37 -198q0 -98 -28 -178.5t-79.5 -139t-122 -90t-156.5 -31.5q-42 0 -88 9t-86.5 24.5t-68.5 34.5q12 59 21.5 127.5t18 140.5t14.5 143t9 136t3 118q0 35 -1 58.5t-4 40.5t-9 30q47 -14 74.5 -35t39.5 -53zM211 72
q19 -12 43.5 -17t50.5 -5q90 0 155.5 46t100.5 130.5t35 201.5q0 90 -26.5 157.5t-74.5 105.5t-113 38q-30 0 -62.5 -8t-55.5 -21q0 -37 -5.5 -99.5t-13 -136.5t-15.5 -148.5t-13.5 -138.5t-5.5 -105z" />
    <glyph glyph-name="E" unicode="E" horiz-adv-x="610" 
d="M118 27q-4 12 -6 27.5t-2 30.5q0 34 6.5 87.5t16 119.5t19 138.5t16.5 144.5t7 137l109 5q2 -8 2.5 -16.5t0.5 -18.5q0 -32 -6 -79.5t-14 -107t-16.5 -127t-14.5 -138t-6 -139.5q0 -16 1 -22t6 -13zM67 -9q6 19 18.5 36.5t32 31.5t49 22.5t68.5 9.5q62 1 110.5 3.5
t87.5 6t72 9.5t63 13q-8 -63 -41.5 -97.5t-85.5 -34.5q-30 0 -88 7t-132 7q-41 0 -79.5 -3t-74.5 -11zM90 306q-1 6 -2 15t-1 15q0 33 14 51t42.5 26t69.5 8q18 0 42 -0.5t48 -1.5t41 -1q42 0 73 7t52 23q2 -7 3 -16t1 -19q0 -40 -17.5 -57.5t-55.5 -17.5q-15 0 -38.5 0.5
t-52.5 0.5q-42 0 -81 -3t-73 -10t-65 -20zM210 673q-37 0 -56 4.5t-25 17.5t-6 37q0 16 2.5 30.5t5.5 24.5q53 -7 107.5 -11t107.5 -4q68 0 133.5 6t123.5 17q-8 -47 -37 -72t-80 -34q-30 -5 -77 -8.5t-100 -5.5t-99 -2z" />
    <glyph glyph-name="F" unicode="F" horiz-adv-x="520" 
d="M197 -17q-48 0 -72 20t-24 66q0 36 6.5 91t16.5 122.5t20 141.5t17 147.5t7 140.5l110 5q2 -8 2.5 -16.5t0.5 -17.5q0 -41 -8.5 -105t-20 -143.5t-20 -169t-8.5 -182.5q0 -23 1 -47.5t5 -50.5q-11 -1 -18.5 -1.5t-14.5 -0.5zM82 306q-1 7 -1.5 15t-0.5 15q0 37 17.5 55
t46.5 24t63 6q17 0 41 -0.5t48.5 -1.5t39.5 -1q36 0 70.5 5.5t58.5 24.5q1 -6 1.5 -13t0.5 -14q0 -46 -17.5 -64.5t-47.5 -18.5q-26 0 -48.5 0.5t-42.5 0.5q-33 0 -71.5 -1.5t-78.5 -8t-79 -23.5zM172 673q-30 0 -46 4.5t-22.5 17.5t-6.5 37q0 18 2.5 32t5.5 23
q52 -7 106 -11t108 -4q68 0 133.5 6t123.5 17q-7 -52 -40 -75t-77 -31q-37 -6 -88 -9.5t-104 -5t-95 -1.5z" />
    <glyph glyph-name="G" unicode="G" horiz-adv-x="687" 
d="M524 263q-16 -71 -52.5 -123.5t-86 -81.5t-107.5 -29q-68 0 -119.5 38.5t-80 107.5t-28.5 160q0 101 28.5 186.5t79.5 149.5t119 99.5t149 35.5q92 0 146.5 -46.5t54.5 -127.5q0 -44 -19 -79t-51.5 -55t-75.5 -20q-39 0 -73 17t-54 47q13 -4 25.5 -5.5t25.5 -1.5
q52 0 86 31.5t34 78.5q0 43 -29.5 70.5t-76.5 27.5q-49 0 -93 -33.5t-78.5 -91t-54.5 -131.5t-20 -156q0 -68 18 -119.5t51 -79.5t77 -28q45 0 80.5 27.5t55.5 75t20 107.5q0 25 -3 50zM280 -266q73 0 118 67t65 185.5t20 274.5q0 25 -3 51.5t-8 51.5q8 1 20.5 1.5t19.5 0.5
q51 0 70 -20t19 -66q0 -84 -10.5 -170.5t-33.5 -165t-61.5 -140t-95 -97.5t-132.5 -36q-72 0 -117 27t-65.5 69t-20.5 85q0 40 15 70.5t40 48.5t56 18q14 0 28 -4.5t29 -12.5q-17 -23 -31.5 -56t-14.5 -75q0 -43 21 -75t72 -32z" />
    <glyph glyph-name="H" unicode="H" horiz-adv-x="791" 
d="M576 437q-2 -28 -11.5 -44.5t-24 -25.5t-30.5 -12t-31 -3q-35 0 -72 1t-74 1q-62 0 -124 -6.5t-122 -27.5q-1 7 -1.5 18t-0.5 19q0 35 18 51.5t48.5 21t67.5 4.5h70t128.5 1t158.5 2zM709 684q0 -32 -6.5 -88t-16.5 -125t-20 -141t-16.5 -137.5t-6.5 -114.5
q0 -76 14 -109q-47 15 -74 36.5t-38 52t-11 71.5q0 31 6 82.5t14.5 115.5t17 133t14.5 136t6 124q0 21 -1 42t-3 40q43 -2 67.5 -11t36 -24.5t14.5 -36t3 -46.5zM290 684q0 -32 -6.5 -88t-16.5 -125t-20 -141t-16.5 -137.5t-6.5 -114.5q0 -37 3.5 -65t10.5 -44
q-47 15 -74 36.5t-38 52t-11 71.5q0 31 6 82.5t14.5 115.5t17 133t14.5 136t6 124q0 21 -1 42t-3 40q43 -2 67.5 -11t36 -24.5t14.5 -36t3 -46.5z" />
    <glyph glyph-name="I" unicode="I" horiz-adv-x="344" 
d="M262 684q0 -32 -6.5 -88t-16.5 -125t-20 -141t-16.5 -137.5t-6.5 -114.5q0 -76 14 -109q-47 15 -74 36.5t-38 52t-11 71.5q0 31 6 82.5t14.5 115.5t17 133t14.5 136t6 124q0 21 -1 42t-3 40q43 -2 67.5 -11t36 -24.5t14.5 -36t3 -46.5z" />
    <glyph glyph-name="J" unicode="J" horiz-adv-x="518" 
d="M126 -36q-51 0 -90 21t-61.5 58.5t-22.5 85.5q0 38 14.5 66t40 44.5t58.5 16.5q30 0 54 -16q-25 -22 -40 -56.5t-15 -72.5q0 -42 17 -63.5t51 -21.5q32 0 57 18.5t43 64.5t29.5 126.5t16.5 203t5 294.5l124 5l-37 -415q-16 -175 -78.5 -267t-165.5 -92zM224 662
q-35 0 -46.5 20t-11.5 44q0 15 2 28.5t4 23.5q39 -10 76.5 -13.5t73.5 -3.5q55 0 110 8.5t109 24.5q-4 -38 -23.5 -62.5t-42.5 -36.5t-41 -16q-26 -4 -65.5 -8t-79 -6.5t-65.5 -2.5z" />
    <glyph glyph-name="K" unicode="K" horiz-adv-x="671" 
d="M176 277l-10 60q111 86 198 168.5t147 157.5t88 136q13 -23 19.5 -51t6.5 -57q0 -25 -11 -51t-39 -57t-78.5 -72.5t-129.5 -98.5t-191 -135zM210 -31q-47 15 -74 36.5t-38 52t-11 71.5q0 31 6 82.5t14.5 115.5t17 133t14.5 136t6 124q0 21 -1 42t-3 40q43 -2 67.5 -11
t36 -24.5t14.5 -36t3 -46.5q0 -32 -6.5 -88t-16.5 -125t-20 -141t-16.5 -137.5t-6.5 -114.5q0 -76 14 -109zM594 -33q-46 0 -84.5 25t-71.5 68t-60.5 98t-51.5 115.5t-46 119.5l105 60q32 -99 61.5 -170t60.5 -124t65 -96.5t74 -85.5q-11 -4 -25 -7t-27 -3z" />
    <glyph glyph-name="L" unicode="L" horiz-adv-x="547" 
d="M207 30l-86 1q-14 20 -19.5 43.5t-5.5 54.5t6 82.5t14.5 115.5t17 133t14.5 136t6 124q0 21 -1 42t-3 40q43 -2 67.5 -11t36 -24.5t14.5 -36t3 -46.5q0 -32 -6.5 -88t-16.5 -125t-20 -141t-16.5 -137.5t-6.5 -114.5q0 -13 0.5 -25t1.5 -23zM48 -9q3 10 11 26t26 33.5
t49.5 29t80.5 11.5q68 0 133 4t117.5 11.5t82.5 16.5q-7 -63 -41 -97.5t-84 -34.5q-21 0 -54 3.5t-75.5 7t-90.5 3.5q-37 0 -76 -3t-79 -11z" />
    <glyph glyph-name="M" unicode="M" horiz-adv-x="927" 
d="M417 174q-18 0 -31.5 5.5t-15.5 11.5q-30 78 -64 165.5t-70 170.5t-73.5 149t-76.5 101q10 8 22 14t24.5 9t22.5 3q27 0 48.5 -9.5t42.5 -38.5t47 -87.5t63.5 -155t93.5 -241.5q27 40 61 90t69 105.5t66.5 113.5t54.5 114.5t32 107.5q22 -23 31.5 -45t8.5 -44.5
t-10.5 -48t-25.5 -57.5q-35 -71 -78.5 -141t-89.5 -138.5t-89 -139.5q-15 -7 -33 -10.5t-30 -3.5zM182 -5q-32 0 -53 5t-33 14t-17.5 20t-5.5 24t5.5 52t14 96.5t18 123.5t18 133.5t13.5 128t5 103.5q0 37 -3.5 60t-10.5 37q42 -13 62 -32.5t26.5 -45.5t6.5 -57
q0 -81 -12 -172t-25 -192.5t-13 -214.5q0 -21 1.5 -42t2.5 -41zM795 -31q-50 15 -77.5 36.5t-38.5 52t-11 71.5q0 28 4.5 70t12 95t16 114.5t16 127t12 133t4.5 133.5q33 -3 55 -12t35 -24t18.5 -35.5t5.5 -46.5q0 -32 -6.5 -88t-16.5 -125t-20 -141t-16.5 -137.5
t-6.5 -114.5q0 -76 14 -109z" />
    <glyph glyph-name="N" unicode="N" horiz-adv-x="821" 
d="M83 58q0 13 5.5 52t14 96.5t18 123.5t18 133.5t13.5 128t5 103.5q0 38 -3.5 62t-10.5 39q43 -13 63.5 -33.5t27.5 -47t7 -58.5q0 -81 -13 -172t-26.5 -192.5t-13.5 -214.5q0 -21 1.5 -42t2.5 -41q-32 0 -53 5t-33 14t-17.5 20t-5.5 24zM597 45q-4 13 -5.5 25t-1.5 27
q0 61 8 133.5t19 153t19 165.5t8 171q0 20 -1 41t-3 40q32 0 52.5 -5t32.5 -13.5t17.5 -19.5t5.5 -23q0 -13 -5.5 -53.5t-14 -99t-17.5 -126.5t-17.5 -136.5t-13.5 -129.5t-5 -105q0 -20 1 -39.5t4 -36.5zM519 38q-13 19 -36 64.5t-53.5 108t-65.5 132.5t-71 138.5
t-70.5 126.5t-65.5 95q-24 30 -48.5 45t-38.5 25q24 16 45 22.5t39 6.5q35 0 64.5 -13t51.5 -47q18 -26 56.5 -97t94.5 -184q33 -67 66.5 -136t68.5 -130.5t71.5 -107.5t75.5 -68q-30 -22 -53.5 -31t-47.5 -9q-18 0 -32.5 7t-27 20t-23.5 32z" />
    <glyph glyph-name="O" unicode="O" horiz-adv-x="802" 
d="M358 -25q-79 0 -135 36t-92 95.5t-53.5 131t-17.5 141.5q0 83 20.5 156.5t58 133t89 100.5t114.5 59q7 -1 13 -6.5t8 -11.5q-34 -21 -65 -50t-56 -68.5t-40 -95.5l8 -2q32 69 80.5 115.5t104 70.5t108.5 24q64 0 118 -35t87.5 -107t33.5 -183q0 -70 -14 -142t-42.5 -137
t-73.5 -115.5t-108 -80t-146 -29.5zM372 38q58 0 103.5 36t76.5 96t47 133t16 147q0 102 -20.5 162.5t-56.5 87t-80 26.5q-58 0 -107 -35t-85 -92.5t-55.5 -128t-19.5 -140.5q0 -59 10.5 -112t32.5 -93t56.5 -63.5t81.5 -23.5z" />
    <glyph glyph-name="P" unicode="P" horiz-adv-x="621" 
d="M246 741q43 26 89 36.5t84 10.5q70 0 116 -28t68.5 -73t22.5 -98q0 -49 -19 -98t-56 -90t-91.5 -65.5t-125.5 -24.5q-14 0 -28 1t-28 3l-3 35q70 0 116.5 19.5t73.5 52.5t39 71.5t12 76.5t-16 70.5t-49 52t-84 19.5q-23 0 -49.5 -5.5t-55.5 -16.5zM92 69q0 36 7 92
t17 124t19.5 142t16.5 148t7 141q0 38 -3.5 66.5t-10.5 43.5q35 -3 62.5 -21t44 -48.5t16.5 -73.5q0 -41 -8.5 -105t-20 -143.5t-20 -169t-8.5 -182.5q0 -23 1 -47.5t5 -50.5q-10 -1 -17.5 -1.5t-13.5 -0.5q-47 0 -70.5 20t-23.5 66z" />
    <glyph glyph-name="Q" unicode="Q" horiz-adv-x="787" 
d="M187 -43q136 16 234 80t151 168t53 239q0 88 -22 151t-62.5 97.5t-96.5 34.5q-53 0 -99.5 -30t-81.5 -84t-55 -125t-20 -153q0 -90 25.5 -136t74.5 -46q40 0 62.5 29.5t22.5 80.5q0 39 -14 73t-36 49q13 5 29 8.5t29 3.5q50 0 80 -33.5t30 -87.5q0 -55 -26 -99.5
t-70.5 -70t-100.5 -25.5q-65 0 -113.5 33.5t-76 94t-27.5 141.5q0 94 29.5 176t81.5 143.5t121.5 96t149.5 34.5q133 0 208 -88.5t75 -248.5q0 -114 -39.5 -210t-113 -169t-178 -118t-234.5 -59zM654 -309q-28 0 -71.5 17.5t-96.5 44t-112 54.5t-120 49q-56 19 -101 28.5
t-83 10.5q17 28 45 43t72 19l80 -18q75 -25 144.5 -49.5t133.5 -44t122.5 -32.5t111.5 -15q-20 -48 -54 -77.5t-71 -29.5z" />
    <glyph glyph-name="R" unicode="R" horiz-adv-x="675" 
d="M436 360q28 -97 64.5 -172.5t78.5 -131.5t84 -94q-13 -5 -28 -7.5t-30 -2.5q-40 0 -74 22.5t-63 61.5t-53.5 88t-45.5 103t-38 106zM246 741q43 26 89 36.5t84 10.5q70 0 116 -28t68.5 -73t22.5 -98q0 -49 -19 -98t-56 -90t-91.5 -65.5t-125.5 -24.5q-14 0 -28 1t-28 3
l-3 35q70 0 116.5 19.5t73.5 52.5t39 71.5t12 76.5t-16 70.5t-49 52t-84 19.5q-23 0 -49.5 -5.5t-55.5 -16.5zM92 69q0 36 7 92t17 124t19.5 142t16.5 148t7 141q0 79 -14 110q35 -3 62.5 -21t44 -48.5t16.5 -73.5q0 -41 -8.5 -105t-20 -143.5t-20 -169t-8.5 -182.5
q0 -23 1 -47.5t5 -50.5q-10 -1 -17.5 -1.5t-13.5 -0.5q-47 0 -70.5 20t-23.5 66z" />
    <glyph glyph-name="S" unicode="S" horiz-adv-x="630" 
d="M213 631q0 -47 24.5 -83.5t63 -68.5t82.5 -63t82.5 -64.5t63 -74t24.5 -92.5q0 -61 -34.5 -108.5t-95 -74.5t-138.5 -27q-72 0 -127.5 23t-86.5 64t-31 94q0 36 15 64t42.5 44t63.5 16q9 0 16 -1t13 -3q-31 -46 -31 -98q0 -59 38 -95.5t100 -36.5q59 0 97 32.5t38 82.5
q0 42 -24 76t-62 64t-81 61t-80.5 66.5t-62 79.5t-24.5 101q0 61 31 106.5t86.5 71t128.5 25.5q66 0 117 -22t80 -60.5t29 -88.5q0 -35 -16 -63t-43.5 -44.5t-62.5 -16.5q-11 0 -20 1t-17 3q23 24 36 55.5t13 62.5q0 50 -33.5 79.5t-87.5 29.5q-56 0 -91 -32t-35 -85z" />
    <glyph glyph-name="T" unicode="T" horiz-adv-x="543" 
d="M40 727q0 15 2.5 27.5t5.5 20.5q56 -8 111 -11.5t110 -3.5q80 0 158.5 7.5t155.5 21.5q-5 -36 -21.5 -60t-41.5 -36.5t-57 -15.5q-37 -4 -87.5 -7t-105 -6t-103 -4t-82.5 -1q-18 0 -28 10t-13.5 26t-3.5 32zM359 711q0 -30 -7 -86t-17 -127t-20.5 -147t-17.5 -147
t-7 -126q0 -76 14 -109q-47 15 -74 36.5t-38 52t-11 71.5q0 32 6 80.5t14.5 108.5t17 127t14.5 137t6 138z" />
    <glyph glyph-name="U" unicode="U" horiz-adv-x="755" 
d="M238 653q0 -67 -10 -134.5t-21 -136.5t-11 -143q0 -70 13.5 -107t37 -51t52.5 -14q19 0 45 9t55 33.5t57 70t50.5 117.5t36 176.5t13.5 246.5l6 -330q-10 -59 -26.5 -118t-41 -111t-59.5 -93t-81 -64.5t-105 -23.5q-81 0 -124 56.5t-43 183.5q0 40 4.5 92t11.5 108
t13.5 110.5t11 100.5t4.5 76q0 65 -11 95q45 -14 71.5 -34.5t38.5 -48.5t12 -66zM673 684q0 -32 -6.5 -88t-16.5 -125t-20 -141t-16.5 -137.5t-6.5 -114.5q0 -76 14 -109q-47 15 -74 36.5t-38 52t-11 71.5q0 31 6 82.5t14.5 115.5t17 133t14.5 136t6 124q0 21 -1 42t-3 40
q43 -2 67.5 -11t36 -24.5t14.5 -36t3 -46.5z" />
    <glyph glyph-name="V" unicode="V" horiz-adv-x="661" 
d="M332 0q-5 -2 -19.5 -5.5t-30.5 -6t-27 -2.5t-20.5 3.5t-11.5 11.5q-9 45 -22 111t-28.5 143t-33 155t-36.5 149t-38.5 125.5t-38.5 81.5q21 11 42.5 18.5t35.5 7.5q21 0 36 -8.5t27 -32t24 -68.5t26.5 -118t34.5 -181l56 -288l-13 -6q18 36 39.5 87t44.5 111t46 123
t43.5 124.5t36 115t24.5 94.5t9 62q50 -10 73 -28.5t23 -45.5q0 -23 -16.5 -71.5t-44 -112.5t-61 -137t-67.5 -147.5t-63.5 -142.5t-49.5 -122z" />
    <glyph glyph-name="W" unicode="W" horiz-adv-x="983" 
d="M585 -14q-12 0 -21 3.5t-9 11.5q-8 45 -18 111t-21.5 143t-25 155t-28 149t-31 125.5t-34.5 81.5q21 11 42.5 18.5t36.5 7.5q16 0 28 -6t23 -27.5t21.5 -65t23 -119t29.5 -190.5l39 -272q21 55 45.5 120t50.5 135t49.5 138t42.5 128t31 105.5t13 68.5q40 -10 65 -28.5
t25 -42.5q0 -19 -14 -60.5t-37.5 -99t-52 -124t-59 -134.5t-58.5 -130t-49 -111t-32 -77q-4 -2 -18 -5.5t-30 -6t-27 -2.5zM232 -14q-12 0 -21 3.5t-9 11.5q-8 45 -18 111t-21.5 143t-24.5 155t-28 149t-31.5 125.5t-34.5 81.5q21 11 42.5 18.5t36.5 7.5q16 0 28 -6
t23 -27.5t21.5 -65t23 -119t29.5 -190.5l39 -272q18 47 40 104t45 119.5t45 125t40.5 119t31.5 100.5l51 -148q-23 -56 -50.5 -118.5t-55.5 -124.5t-53 -118t-44.5 -100.5t-29.5 -70.5q-4 -2 -18 -5.5t-30 -6t-27 -2.5z" />
    <glyph glyph-name="X" unicode="X" horiz-adv-x="671" 
d="M25 81q0 40 29.5 88t79 100.5t108 108.5t118 112.5t109.5 112t81.5 107.5t34.5 99q22 -12 35 -29t19 -34t6 -31q0 -42 -31 -85t-82 -91t-113 -104.5t-124.5 -125.5t-116.5 -153t-89 -187q-17 14 -28.5 28t-19.5 28t-12 28t-4 28zM574 -33q-49 0 -90.5 32t-77.5 87.5
t-67.5 126.5t-62 148.5t-60.5 154t-62 144.5t-69 118q21 11 44 18t46 7q18 0 33.5 -12t31.5 -37.5t33.5 -65.5t39 -97.5t49.5 -133.5q48 -134 95 -228t89 -155.5t77 -99.5q-12 -4 -24.5 -5.5t-24.5 -1.5z" />
    <glyph glyph-name="Y" unicode="Y" horiz-adv-x="565" 
d="M318 277q-8 -51 -12.5 -103t-4.5 -96q0 -37 3.5 -65t10.5 -44q-47 0 -75 13t-40 47t-12 97q0 16 1.5 35t4.5 46t8 68q-53 199 -95.5 320t-81.5 182q19 13 39.5 19.5t40.5 6.5q23 0 40.5 -10t33 -38t30 -80t32 -136t40.5 -207q37 66 70 133.5t59 131t42.5 117.5t21.5 93
q48 -12 72 -31.5t24 -45.5q0 -19 -11.5 -49.5t-39.5 -80.5t-77 -128.5t-124 -194.5z" />
    <glyph glyph-name="Z" unicode="Z" horiz-adv-x="585" 
d="M6 42q104 124 191.5 243t155.5 225.5t109.5 190.5t53.5 137q30 -36 41 -71.5t11 -57.5q0 -40 -27.5 -91t-74 -112t-102.5 -130.5t-114.5 -146.5t-109.5 -161zM135 11q-38 0 -86.5 -3t-91.5 -13q3 10 11.5 26.5t26.5 33.5t50 28.5t82 11.5q11 0 18.5 -0.5t18.5 -1t32 -0.5
q39 0 85 2t91.5 6.5t84 10.5t63.5 13q-10 -67 -44 -99.5t-90 -32.5q-38 0 -99.5 9t-151.5 9zM81 720q0 22 2.5 36.5t5.5 22.5q14 -1 54.5 -4.5t97.5 -7t119 -3.5q39 0 76 2t71 5l-40 -75q-18 -4 -53 -10t-76.5 -13t-82.5 -13t-73 -10t-46 -4q-35 0 -45 22t-10 52z" />
    <glyph glyph-name="bracketleft" unicode="[" horiz-adv-x="379" 
d="M340 783q18 0 28 -18t12 -56q-19 2 -52.5 3.5t-68.5 2.5q-13 -89 -23 -165.5t-16 -147.5t-9.5 -143t-5 -152.5t-1.5 -177.5q32 1 62 3t47 3q-2 -38 -12 -56t-28 -18h-68q-64 0 -94.5 15.5t-30.5 49.5q0 36 10.5 134t23.5 261q5 65 8 111t5 80.5t3 64t2.5 61.5t4.5 75
q2 24 16 39.5t43 23t74 7.5h70z" />
    <glyph glyph-name="backslash" unicode="\" horiz-adv-x="422" 
d="M58 868q8 -45 31.5 -113t56.5 -149t70.5 -167.5t74 -170t66 -155.5t47.5 -124t18 -75q0 -25 -12 -46t-33 -34t-48 -16q-7 51 -28 122t-51 153.5t-64 168t-67 166.5t-60 149.5t-43 117.5t-16 70q0 31 16.5 60t41.5 43z" />
    <glyph glyph-name="bracketright" unicode="]" horiz-adv-x="379" 
d="M39 -139q-18 0 -28 18t-12 56q19 -1 52.5 -3t68.5 -3q14 89 23.5 165.5t15.5 147.5t9.5 143t5 152.5t1.5 177.5q-31 -1 -61.5 -2.5t-47.5 -3.5q2 38 12 56t28 18h68q64 0 94.5 -15.5t30.5 -49.5q0 -36 -10.5 -134t-23.5 -261q-5 -65 -8 -111t-5 -80.5t-3 -64t-2.5 -61.5
t-4.5 -75q-1 -24 -15 -39.5t-43 -23t-75 -7.5h-70z" />
    <glyph glyph-name="asciicircum" unicode="^" horiz-adv-x="620" 
d="M477 327q-29 0 -50.5 22t-39 72t-34 134.5t-34.5 208.5l34 -30q-58 -89 -97.5 -157.5t-68.5 -127.5t-55 -121q-24 9 -38.5 20t-20 25t-5.5 31q0 28 31.5 80.5t83.5 123.5t115 151q7 4 31 10.5t45 6.5q15 0 25 -4t12 -14q16 -69 30.5 -124t29.5 -101.5t34.5 -90
t46.5 -90.5q-8 -10 -28.5 -17.5t-46.5 -7.5z" />
    <glyph glyph-name="underscore" unicode="_" horiz-adv-x="463" 
d="M362 7q40 0 59 -12t25.5 -32.5t6.5 -47.5q0 -4 -0.5 -9t-0.5 -10q-37 5 -70 7t-69 2q-33 0 -66 -3t-69 -6t-77 -3q-40 0 -59 12t-25.5 32.5t-6.5 46.5q0 6 0.5 10.5t0.5 9.5q37 -5 70.5 -7t68.5 -2q33 0 66 3t69 6t77 3z" />
    <glyph glyph-name="grave" unicode="`" horiz-adv-x="287" 
d="M267 652q-2 -11 -12 -20.5t-23 -12.5q-21 26 -54 55t-73.5 54.5t-84.5 38.5q1 28 11 45.5t22 28.5t20 16q38 -16 76.5 -51t70 -76.5t47.5 -77.5z" />
    <glyph glyph-name="a" unicode="a" horiz-adv-x="635" 
d="M414 171q-19 -53 -54.5 -94.5t-79.5 -65t-89 -23.5q-67 0 -105 52t-38 144q0 75 22 142t60.5 118t89 80t107.5 29q20 0 39.5 -4t40.5 -12q-51 -14 -95 -47t-76 -79t-49.5 -100.5t-17.5 -113.5q0 -58 20 -89.5t57 -31.5q39 0 74.5 32t64.5 87.5t45 125t16 145.5
q0 27 -1.5 54.5t-5.5 47.5q10 1 18 1.5t18 0.5q45 0 67.5 -20.5t22.5 -61.5q0 -26 -7 -67t-16.5 -92t-17 -107t-7.5 -111q0 -43 7 -74t24 -70q-69 14 -98.5 57t-29.5 127v11t1 7z" />
    <glyph glyph-name="b" unicode="b" horiz-adv-x="641" 
d="M226 391q31 90 82.5 138t113.5 48q39 0 74 -27t57 -75.5t22 -114.5q0 -75 -20.5 -140t-55.5 -113.5t-82 -75.5t-101 -26q-14 1 -29 3.5t-30 7.5q49 12 86 48.5t61.5 85.5t37 102t12.5 98q0 31 -7.5 60.5t-25 49.5t-48.5 20q-30 0 -60.5 -30t-55.5 -81t-40.5 -116
t-15.5 -134q0 -34 4.5 -68.5t14.5 -68.5q-40 12 -68 40t-42 71t-14 96q0 60 10 132.5t23.5 153.5t23.5 167.5t10 174.5q0 35 -2 70.5t-7 69.5q43 -14 66 -42.5t32 -67.5t9 -83q0 -39 -7.5 -96t-17.5 -126.5t-18 -148.5z" />
    <glyph glyph-name="c" unicode="c" horiz-adv-x="545" 
d="M179 226q0 -82 26 -128t73 -46q38 0 79 25.5t71 72.5q17 -3 27 -9.5t10 -20.5q-30 -53 -68 -82.5t-77.5 -41t-71.5 -11.5q-48 0 -91 25t-70 77.5t-27 133.5q0 70 20 134t57.5 114t92 79t123.5 29q53 0 85.5 -18.5t48 -48t15.5 -61.5q0 -30 -13 -57t-36 -44.5t-54 -17.5
q-10 0 -22.5 2t-23.5 7q14 16 26 49t12 64q1 29 -11 49.5t-44 20.5q-36 0 -65 -27t-49.5 -70.5t-31.5 -95.5t-11 -103z" />
    <glyph glyph-name="d" unicode="d" horiz-adv-x="616" 
d="M408 163q-21 -55 -56 -94t-76.5 -59.5t-84.5 -20.5q-39 0 -72 21t-53 65.5t-20 112.5q0 82 23 151t64 119t95.5 77.5t118.5 27.5q20 0 40.5 -3.5t38.5 -9.5q-70 -14 -119.5 -52t-80 -89t-45 -105.5t-14.5 -101.5q0 -34 8.5 -62.5t27 -46t48.5 -17.5q41 0 73 31t55.5 84
t40 120t27 139.5t16.5 142.5t8.5 129.5t2.5 99.5q0 39 -1.5 73.5t-6.5 61.5q41 -11 65 -40t35.5 -71t11.5 -96q0 -60 -10 -132.5t-23.5 -153.5t-23.5 -167.5t-10 -174.5q0 -71 9 -140q-42 14 -65.5 40.5t-32 62.5t-9.5 77z" />
    <glyph glyph-name="e" unicode="e" horiz-adv-x="544" 
d="M248 -15q-55 0 -97.5 30.5t-66.5 86t-24 127.5q0 74 22 137.5t62 110.5t93.5 73.5t116.5 26.5q74 0 113.5 -37.5t39.5 -107.5q0 -54 -29 -96t-79.5 -66t-116.5 -24q-31 0 -58.5 3.5t-52.5 9.5l3 37h34q56 0 97.5 19t64.5 54.5t23 82.5q0 33 -16 51.5t-44 18.5
q-37 0 -65.5 -28t-48.5 -73.5t-30 -97t-10 -97.5q0 -86 25.5 -130t76.5 -44q94 0 158 98q37 -7 37 -30q-43 -68 -99 -101.5t-129 -33.5z" />
    <glyph glyph-name="f" unicode="f" horiz-adv-x="408" 
d="M114 93q0 37 4 98.5t12.5 136.5t24.5 154.5t40 154t58 134t80 94.5t105 35q61 0 99 -33t38 -83q0 -27 -12.5 -52t-36 -41.5t-56.5 -16.5q-7 0 -16.5 1.5t-18.5 5.5q8 7 17 21t16 32.5t7 36.5q0 30 -13.5 47.5t-35.5 17.5q-36 0 -65 -34t-50.5 -91.5t-37 -129.5t-26 -149
t-16.5 -149t-8.5 -129.5t-2.5 -90.5q0 -29 0.5 -48.5t2 -36.5t4.5 -38t9 -53q-33 12 -56 30.5t-37.5 44t-21.5 58.5t-7 73zM399 577q1 -6 1.5 -13t0.5 -14q0 -46 -17.5 -62t-47.5 -16q-42 0 -77.5 0.5t-68.5 -1.5t-67.5 -10t-75.5 -26q-1 7 -1.5 15t-0.5 15q0 37 17 55
t46 24t64 6q24 0 50 -1.5t49 -1.5q36 0 70.5 5.5t57.5 24.5z" />
    <glyph glyph-name="g" unicode="g" horiz-adv-x="619" 
d="M413 162q-22 -50 -56 -86.5t-73 -56t-79 -19.5q-51 0 -86 26.5t-52.5 72t-17.5 101.5q0 51 14.5 103.5t42 100t66 84t88 58t107.5 21.5q22 0 36 -7.5t19 -24.5q-59 -12 -105.5 -43.5t-78.5 -76.5t-48.5 -97.5t-16.5 -106.5q0 -35 8.5 -64t27.5 -45.5t48 -16.5
q38 0 69 21.5t54.5 60.5t39 90.5t21.5 112.5q6 62 13.5 104.5t19 71t30 46t48.5 27.5q-4 -29 -7.5 -53t-5 -46t-1.5 -47q-1 -111 -7.5 -214t-22 -192.5t-41.5 -162t-65 -125t-92.5 -80.5t-123.5 -28q-52 0 -88 17t-54.5 45t-18.5 59q0 44 27 77t70 33q12 0 23 -2.5t24 -7.5
q-17 -12 -27.5 -34.5t-10.5 -46.5q0 -35 22 -55t61 -20q36 0 68 19t58 65t46.5 129.5t32.5 211.5z" />
    <glyph glyph-name="h" unicode="h" horiz-adv-x="621" 
d="M524 -15q-68 0 -101.5 25t-33.5 92q0 30 6 68t14 80t14 84t6 80q0 66 -44 66q-25 0 -56.5 -27t-61.5 -77.5t-49.5 -121t-19.5 -156.5q0 -23 1 -47.5t5 -50.5q-10 -1 -18 -1.5t-14 -0.5q-49 0 -73 19.5t-24 65.5q0 33 7 89t17.5 129t21.5 157t18 173.5t7 177.5
q0 41 -3 71.5t-9 45.5q44 -14 68 -37t34.5 -57t10.5 -81q0 -41 -6 -105t-15.5 -143t-22.5 -166l7 -1q25 70 63 124.5t80 85.5t78 31q65 0 88.5 -38.5t23.5 -103.5q0 -56 -9.5 -112.5t-19.5 -113t-10 -114.5q0 -47 14 -69.5t43 -39.5q-10 -1 -19 -1h-18z" />
    <glyph glyph-name="i" unicode="i" horiz-adv-x="321" 
d="M197 88q0 -36 3 -62.5t9 -40.5q-44 14 -68.5 37.5t-34 58t-9.5 83.5q0 44 8 98t16 110t8 107q0 26 -0.5 51.5t-5.5 50.5q8 1 17 1.5t16 0.5q49 0 70 -20t21 -66q0 -29 -12 -90t-24.5 -143t-13.5 -176zM241 661q-13 -4 -28.5 -7t-30.5 -3t-30 5t-25 17t-10 33q0 18 6 35.5
t12 36.5q13 5 29 7.5t30 2.5q16 0 30.5 -5t24.5 -16.5t10 -33.5q0 -18 -6 -35.5t-12 -36.5z" />
    <glyph glyph-name="j" unicode="j" horiz-adv-x="331" 
d="M-85 -334q-54 0 -91 33.5t-37 82.5q0 29 12.5 54.5t36 42t56.5 16.5q7 0 17 -1.5t18 -5.5q-10 -9 -19 -23.5t-15 -32.5t-6 -38q0 -29 12.5 -45t33.5 -16q36 0 64.5 30t49.5 82t35.5 119.5t23 143.5t12.5 154t4 150q0 47 -2 89.5t-4 79.5q8 1 18.5 1.5t18.5 0.5
q45 0 64.5 -18.5t19.5 -60.5q0 -55 -3 -127t-11 -151.5t-22.5 -159.5t-38.5 -151.5t-58 -127.5t-81 -88.5t-108 -32.5zM228 661q-13 -4 -28.5 -7t-30.5 -3t-30 5t-25 17t-10 33q0 18 6 35.5t12 36.5q13 5 29 7.5t30 2.5q16 0 30.5 -5t24.5 -16.5t10 -33.5q0 -18 -6 -35.5
t-12 -36.5z" />
    <glyph glyph-name="k" unicode="k" horiz-adv-x="574" 
d="M209 362q24 82 57.5 129.5t70.5 67.5t69 20q53 0 85 -34t32 -97q0 -40 -16 -75.5t-45.5 -62t-70.5 -42.5l12 -37q18 -58 45.5 -113t56.5 -101.5t55 -80t41 -47.5q-15 -4 -28.5 -6.5t-25.5 -2.5q-49 0 -86.5 31.5t-67 84.5t-54 117.5t-46.5 130.5q-11 -1 -20 -1h-19
q-6 5 -6 32q49 1 81.5 17t53 41.5t29.5 54t9 52.5q0 26 -11.5 44t-35.5 18q-31 0 -62.5 -32t-58.5 -89t-43.5 -130.5t-16.5 -156.5q0 -23 1 -45.5t5 -48.5q-10 -1 -18 -1.5t-14 -0.5q-49 0 -73 19.5t-24 65.5q0 33 7 89t17.5 129t21.5 157t18 173.5t7 177.5q0 41 -3 71.5
t-9 45.5q44 -14 68 -37t34.5 -57t10.5 -81q0 -39 -6.5 -98.5t-16 -133.5t-18.5 -155z" />
    <glyph glyph-name="l" unicode="l" horiz-adv-x="299" 
d="M77 117q0 33 7 94t17 138t19.5 160t16.5 161t7 139q0 41 -3 71.5t-9 45.5q42 -14 66 -37t34 -57t10 -81q0 -46 -9 -120t-20 -166t-20 -192t-9 -198q0 -23 1.5 -45.5t2.5 -44.5q-40 2 -62.5 12t-33 27t-13 40.5t-2.5 52.5z" />
    <glyph glyph-name="m" unicode="m" horiz-adv-x="895" 
d="M224 377q25 60 58.5 105t69 70t65.5 25q44 0 68 -22t34 -60.5t10 -87.5q38 80 87 125t89 45q43 0 67.5 -17.5t34.5 -49.5t10 -75q0 -42 -6 -84.5t-13.5 -84.5t-13.5 -84.5t-6 -86.5q0 -47 14 -69.5t43 -39.5q-10 -1 -19 -1h-18q-68 0 -101.5 25t-33.5 92q0 40 10 93.5
t20 111t10 107.5q0 32 -11 49t-33 17q-24 0 -52.5 -26.5t-55 -76.5t-43 -118.5t-16.5 -152.5q0 -25 1.5 -51.5t4.5 -54.5q-11 -1 -19.5 -1.5t-15.5 -0.5q-46 0 -69.5 19.5t-23.5 65.5q0 26 6.5 66t15 86t15 92.5t6.5 86.5q0 66 -44 66q-24 0 -52.5 -26.5t-55 -76t-43 -118
t-16.5 -153.5q0 -25 1.5 -51.5t4.5 -54.5q-11 -1 -19.5 -1.5t-15.5 -0.5q-46 0 -69.5 19.5t-23.5 65.5q0 17 6 56.5t14.5 92.5t14.5 109.5t6 106.5q0 39 -4 77t-13 73q46 -16 71 -42t34.5 -58.5t9.5 -71.5q0 -12 -0.5 -23.5t-2.5 -24.5z" />
    <glyph glyph-name="n" unicode="n" horiz-adv-x="626" 
d="M219 345q25 68 63 120.5t80.5 82t79.5 29.5q59 0 82.5 -38.5t23.5 -103.5q0 -50 -9.5 -107t-19.5 -116t-10 -117q0 -47 14 -69.5t43 -39.5q-10 -1 -19 -1h-18q-72 0 -103.5 25t-31.5 92q0 30 6 68t14 80t14 84t6 80q0 66 -40 66q-26 0 -59 -27t-63 -77.5t-49.5 -121
t-19.5 -156.5q0 -23 1 -47.5t5 -50.5q-11 -1 -19.5 -1.5t-15.5 -0.5q-47 0 -70.5 20t-23.5 66q0 22 6.5 62.5t14.5 91.5t14.5 105.5t6.5 104.5q0 39 -4 77t-13 73q67 -25 90.5 -69t23.5 -102q0 -19 -1.5 -39.5t-4.5 -41.5z" />
    <glyph glyph-name="o" unicode="o" horiz-adv-x="617" 
d="M267 -15q-37 0 -73.5 15.5t-66.5 47.5t-48.5 81.5t-18.5 117.5q0 83 26 153t73 119.5t110 71.5q11 0 17 -6t6 -14q-33 -21 -65 -60t-49 -104l7 -2q29 65 67.5 102t79.5 52t75 15q44 0 77.5 -26t53 -74.5t19.5 -116.5q0 -64 -16.5 -129.5t-51 -120.5t-89.5 -88.5
t-133 -33.5zM281 50q40 0 71 26t53 69t33 94.5t11 101.5q0 89 -24 128t-63 39q-37 0 -70 -25.5t-59.5 -67t-41 -91t-14.5 -96.5t10.5 -87.5t33.5 -65.5t60 -25z" />
    <glyph glyph-name="p" unicode="p" horiz-adv-x="649" 
d="M218 364q43 95 106.5 142t122.5 47q39 0 71 -21t51.5 -63.5t19.5 -108.5q0 -75 -21.5 -140.5t-59 -114.5t-86 -77t-104.5 -28q-40 0 -81 16q58 12 101 49.5t72 88t43.5 104.5t14.5 99q0 47 -18.5 77.5t-55.5 30.5q-50 0 -92 -43.5t-72 -122t-45.5 -182.5t-15.5 -225
q0 -52 4.5 -107.5t15.5 -113.5q-39 2 -71 11t-51 33.5t-19 71.5q0 25 6 74t15.5 113t18.5 137t15 148t6 143q0 53 -3.5 104t-11.5 97q74 -20 99 -79.5t25 -159.5z" />
    <glyph glyph-name="q" unicode="q" horiz-adv-x="637" 
d="M583 52q8 -11 13.5 -24.5t5.5 -25.5q0 -25 -17.5 -38.5t-47 -22.5t-67 -20t-78.5 -29t-81 -51q-9 19 -9 33q0 24 17.5 41t45 29.5t60 23t64.5 22t57 26.5t37 36zM420 192q-34 -73 -73 -115t-79 -59.5t-79 -17.5t-71.5 20.5t-52 61.5t-19.5 105q0 48 11.5 99t34.5 99.5
t56.5 87.5t76.5 61.5t96 21.5q18 0 37.5 -3.5t40.5 -11.5q-54 -16 -97 -50.5t-73.5 -81.5t-46 -100.5t-15.5 -106.5q0 -48 17.5 -82t55.5 -34q40 0 76.5 29.5t65 81t45 117.5t16.5 140q0 27 -1 55.5t-5 58.5q9 1 17 1.5t14 0.5q37 0 63 -17t26 -70q0 -28 -10.5 -92
t-25 -153.5t-25 -193t-10.5 -210.5q0 -42 2.5 -82t8.5 -81q-37 2 -67.5 10.5t-48.5 32.5t-18 69q0 20 7 62.5t17.5 99t21.5 120t19 126.5z" />
    <glyph glyph-name="r" unicode="r" horiz-adv-x="463" 
d="M224 369q26 77 55.5 123t59.5 66t54 20q29 0 47.5 -16t28 -41.5t9.5 -54.5q0 -32 -11 -62t-33.5 -49.5t-60.5 -19.5q-7 0 -14 1t-14 3q11 16 21.5 44t11.5 52q0 16 -6 26.5t-22 10.5q-21 0 -46 -26.5t-48.5 -76.5t-38 -121.5t-14.5 -162.5q0 -20 2 -41t3 -44
q-11 -1 -19 -1.5t-15 -0.5q-47 0 -70.5 20t-23.5 66q0 22 6.5 62.5t14.5 91.5t14.5 105.5t6.5 104.5q0 39 -4 77t-13 73q67 -25 90.5 -69t23.5 -102q0 -10 -0.5 -25t-2.5 -31z" />
    <glyph glyph-name="s" unicode="s" horiz-adv-x="502" 
d="M232 -20q-91 0 -139 36t-48 87q0 44 25.5 71t61.5 27q8 0 17.5 -1.5t19.5 -6.5q-11 -14 -17.5 -32.5t-6.5 -35.5q0 -34 22 -60.5t67 -26.5q22 0 43 8.5t34.5 26t13.5 43.5q0 29 -16.5 51.5t-43 43t-55.5 40.5t-55.5 43.5t-43 54.5t-16.5 72q0 47 25 83.5t70 57.5t105 21
q57 0 91.5 -17t49.5 -44t15 -56q0 -36 -21 -65t-58 -29q-9 0 -19.5 3t-21.5 7q15 18 21.5 38.5t6.5 35.5q0 34 -23 51.5t-51 17.5q-20 0 -39.5 -8t-31.5 -25.5t-12 -43.5q0 -31 17 -57t44 -47.5t57.5 -42.5t57 -44.5t44 -51.5t17.5 -64q0 -48 -26.5 -84t-73 -56.5
t-107.5 -20.5z" />
    <glyph glyph-name="t" unicode="t" horiz-adv-x="386" 
d="M211 63q0 -42 3.5 -73.5t10.5 -46.5q-43 14 -68.5 37.5t-36 58.5t-10.5 83q0 62 10 123.5t23 128t23 143t10 168.5q0 16 -0.5 32.5t-0.5 32.5q52 -7 79 -40t27 -92q0 -54 -10.5 -121t-24.5 -141.5t-24.5 -149t-10.5 -143.5zM399 577q1 -6 1.5 -13t0.5 -14
q0 -46 -17.5 -62t-47.5 -16q-42 0 -77.5 0.5t-68.5 -1.5t-67.5 -10t-75.5 -26q-1 7 -1.5 15t-0.5 15q0 37 17 55t46 24t64 6q24 0 50 -1.5t49 -1.5q36 0 70.5 5.5t57.5 24.5z" />
    <glyph glyph-name="u" unicode="u" horiz-adv-x="606" 
d="M512 -21q-46 17 -71.5 43.5t-35 60t-9.5 73.5q0 16 1.5 33t3.5 35l-8 2q-23 -66 -57 -117.5t-71 -80t-69 -28.5q-45 0 -70 22.5t-35 60t-10 83.5q0 53 8.5 103.5t16.5 98.5t8 94q0 28 -3 55t-11 55q42 0 72.5 -8t48 -30.5t17.5 -68.5q0 -36 -10.5 -87t-21 -105
t-10.5 -102q0 -37 10.5 -55.5t33.5 -18.5q22 0 46.5 23.5t47 64t40 92t27.5 108.5t10 114q-1 19 -2.5 39.5t-5.5 38.5q9 1 18.5 1.5t16.5 0.5q26 0 46.5 -7t33.5 -26.5t13 -55.5q0 -19 -5.5 -56t-13.5 -84.5t-13.5 -98t-5.5 -97.5q0 -46 4 -90t15 -85z" />
    <glyph glyph-name="v" unicode="v" horiz-adv-x="516" 
d="M259 0q-6 -3 -25 -8.5t-37 -5.5q-11 0 -19.5 3.5t-10.5 11.5q-17 68 -30.5 147.5t-27 158.5t-30.5 145.5t-43 107.5q19 12 37.5 19t42.5 7q32 0 50 -28t27 -78t15.5 -115.5t16 -142t27.5 -155.5l-25 19q25 48 53 104t55 114t48.5 113t34.5 102t13 80q36 -22 52 -43.5
t16 -47.5q0 -28 -17 -70t-44.5 -93.5t-60 -109t-63.5 -117t-55 -118.5z" />
    <glyph glyph-name="w" unicode="w" horiz-adv-x="769" 
d="M483 -14q-11 0 -18.5 3.5t-9.5 11.5q-12 68 -21 147.5t-20.5 158.5t-29 145.5t-45.5 107.5q20 11 40 18.5t35 7.5q33 0 51.5 -26t27.5 -73t14 -112.5t11 -144.5t19 -168l-19 23q26 61 55 130.5t55.5 140t43.5 133.5t18 110q35 -17 51 -40t16 -57q0 -29 -15 -73t-39 -96
t-52.5 -109t-56 -114.5t-47.5 -109.5q-4 -3 -25.5 -8.5t-38.5 -5.5zM175 -14q-11 0 -18.5 3.5t-9.5 11.5q-15 68 -26.5 147.5t-22.5 158.5t-27 145.5t-40 107.5q20 11 40 18.5t35 7.5q34 0 52.5 -26t27.5 -73t13.5 -112.5t10.5 -144t19 -167.5l-18 24q20 49 44 106t47 116
t42 115t29 102l50 -94q-18 -47 -43 -102.5t-52.5 -113.5t-52.5 -113.5t-43 -102.5q-4 -3 -22 -8.5t-35 -5.5z" />
    <glyph glyph-name="x" unicode="x" horiz-adv-x="555" 
d="M465 595q23 -25 34 -46t11 -41q0 -33 -22.5 -62t-60 -60.5t-83 -69.5t-91.5 -88t-86 -116t-66 -154q-31 31 -46 58t-15 52q0 29 28.5 67.5t74.5 83.5t98.5 93.5t100.5 97.5t82 96t41 89zM456 -30q-51 0 -89 31.5t-68 84.5t-55 117.5t-48.5 131t-49.5 125.5t-58 100
q17 11 39 18.5t37 7.5q27 0 46.5 -19t35 -54t31 -84t34.5 -108q23 -71 50 -128t53.5 -100t51 -71.5t43.5 -42.5q-13 -4 -26.5 -6.5t-26.5 -2.5z" />
    <glyph glyph-name="y" unicode="y" horiz-adv-x="516" 
d="M96 -228q0 34 18 83.5t48 110t65.5 127.5t71.5 135.5t66 135.5t48 126.5t18 108.5q36 -22 52 -43.5t16 -47.5q0 -33 -21 -79t-54.5 -103.5t-70.5 -124t-70.5 -140.5t-54.5 -153.5t-21 -163.5q0 -20 1.5 -42t5.5 -44q-38 5 -61.5 17t-35.5 28t-16.5 34.5t-4.5 34.5z
M175 -48q-7 58 -17 126t-22.5 138t-28 136t-33 120t-38.5 88q17 12 39 19t41 7q33 0 52.5 -29.5t30.5 -79.5t17 -113t12 -132t16 -134z" />
    <glyph glyph-name="z" unicode="z" horiz-adv-x="495" 
d="M120 101q43 0 86.5 -3.5t90.5 -3.5q35 0 72 2.5t74 10.5q2 -12 3.5 -26t1.5 -26q0 -31 -16.5 -47.5t-61.5 -16.5q-23 0 -64 5.5t-89 10t-94 4.5q-38 0 -72 -4.5t-68 -16.5q9 44 25 67.5t43.5 33.5t68.5 10zM86 568q49 -8 98 -12t99 -4q42 0 85 2.5t87 7.5q5 -8 7 -20.5
t2 -21.5l-64 -38q-42 0 -89 -6.5t-90.5 -14t-75.5 -7.5q-37 0 -52 17t-15 51q0 21 8 46zM20 57q115 117 203 220t141 188t64 145q24 -10 37 -31t13 -50q0 -30 -22.5 -67.5t-60.5 -81.5t-85 -95t-98.5 -107.5t-99.5 -118.5z" />
    <glyph glyph-name="braceleft" unicode="{" horiz-adv-x="372" 
d="M225 171q0 -45 -6.5 -87.5t-6.5 -75.5q0 -35 13 -56t56 -21q9 0 19.5 1t22.5 3q0 -29 -7.5 -45t-25 -22.5t-50.5 -6.5q-86 0 -117 35t-31 94q0 38 7 83t7 95q0 39 -5.5 71t-20.5 52t-42 21l2 36q34 5 53 29t27 60t10 77.5t2 80.5q0 97 36.5 142.5t134.5 45.5
q41 0 56.5 -18.5t15.5 -55.5q-24 3 -42 3q-50 0 -64 -25t-14 -77q0 -64 -10.5 -123.5t-34 -101.5t-63.5 -55q19 -4 37 -26.5t29.5 -57t11.5 -75.5z" />
    <glyph glyph-name="bar" unicode="|" horiz-adv-x="456" 
d="M166 -122q0 98 7.5 227.5t7.5 277.5q0 70 -1 145t-3 143.5t-4.5 120.5t-5.5 75q64 0 93.5 -15.5t29.5 -48.5q0 -49 -2.5 -93t-5 -91t-5 -104t-2.5 -132q0 -88 1 -179t3 -171t4.5 -138t5.5 -81q-63 0 -93 15.5t-30 48.5z" />
    <glyph glyph-name="braceright" unicode="}" horiz-adv-x="372" 
d="M147 473q0 45 6.5 87.5t6.5 75.5q0 35 -13 56t-56 21q-9 0 -19.5 -1t-22.5 -3q0 29 7.5 45t25.5 22.5t50 6.5q86 0 117 -35t31 -94q0 -37 -7 -82.5t-7 -95.5q0 -38 6 -70.5t20.5 -52.5t41.5 -21l-2 -36q-34 -5 -53 -29t-27 -60t-10 -77.5t-2 -80.5q0 -97 -36.5 -142.5
t-134.5 -45.5q-40 0 -56 18.5t-16 55.5q24 -3 42 -3q50 0 64 25t14 77q0 65 10.5 124t34.5 101t63 55q-19 4 -37 26.5t-29.5 57.5t-11.5 75z" />
    <glyph glyph-name="asciitilde" unicode="~" horiz-adv-x="620" 
d="M417 290q-41 0 -81 7t-77 14t-68 7q-42 0 -79.5 -10.5t-57.5 -28.5q0 58 14.5 92t47.5 49.5t87 15.5q41 0 81 -7t77.5 -14t67.5 -7q43 0 80 11t57 28q0 -58 -14.5 -92t-47 -49.5t-87.5 -15.5z" />
    <glyph glyph-name="uni00A0" unicode="&#xa0;" horiz-adv-x="330" 
 />
    <glyph glyph-name="exclamdown" unicode="&#xa1;" horiz-adv-x="287" 
d="M39 -134q0 30 10.5 73.5t25 97t25 115.5t10.5 130q0 23 -1.5 41t-6.5 28q38 -12 60 -31.5t31 -48.5t9 -68q0 -61 -12.5 -122t-25 -125t-12.5 -135q0 -13 0.5 -25.5t2.5 -24.5q-15 0 -35 5t-38 16t-30.5 29.5t-12.5 44.5zM117 570q15 5 31 7.5t32 2.5q17 0 32 -4.5
t25.5 -17t10.5 -34.5q0 -20 -6 -39l-12 -38q-14 -4 -31 -7t-32 -3q-16 0 -32 5t-26 17t-10 34q0 20 6 39z" />
    <glyph glyph-name="cent" unicode="&#xa2;" horiz-adv-x="545" 
d="M179 288q0 -82 26 -128t73 -46q38 0 79 25.5t71 72.5q17 -3 27 -9.5t10 -20.5q-30 -53 -68.5 -82.5t-77.5 -41t-71 -11.5q-48 0 -91 25t-70 77.5t-27 133.5q0 70 20 134t57.5 114t92 79t123.5 29q53 0 85.5 -18.5t48 -48t15.5 -61.5q0 -30 -13 -57t-36 -44.5t-54 -17.5
q-10 0 -22.5 2t-23.5 7q14 16 26 49t12 64q1 29 -11 49.5t-44 20.5q-36 0 -65 -27t-49.5 -70.5t-31.5 -95.5t-11 -103zM277 90q-10 -80 -13.5 -150.5t1.5 -121.5l-13 5t-30.5 18.5t-30 38.5t-12.5 64q0 26 4.5 63t11.5 83h82zM291 608q13 80 20 147.5t4 112.5l8 -9.5
t18.5 -27t18.5 -41.5t8 -54q0 -22 -3.5 -55t-8.5 -73h-65z" />
    <glyph glyph-name="sterling" unicode="&#xa3;" horiz-adv-x="575" 
d="M28 -21q0 1 2.5 12.5t11 28.5t25.5 34t47 28.5t77 11.5q38 0 78 -3t80 -3q40 1 80 6.5t79 21.5q-2 -44 -13.5 -74t-34 -45.5t-61.5 -15.5q-18 0 -50 4.5t-73.5 9t-87.5 4.5q-39 0 -80 -4t-80 -16zM102 47q21 34 30 86t13.5 114t10 127t19 124.5t40.5 107.5t73 76t119 28
q53 0 83.5 -18t44 -47.5t13.5 -63.5q0 -50 -31.5 -82.5t-79.5 -32.5q-8 0 -18.5 1.5t-24.5 5.5q19 20 32.5 49.5t13.5 63.5q0 23 -12 42t-38 19q-39 0 -61 -25t-33.5 -68.5t-17 -97.5t-11 -113t-15.5 -116t-29 -104.5t-55 -79.5zM396 305q-38 0 -81 -5.5t-83.5 -14t-74 -14
t-53.5 -5.5q-64 0 -71 72q10 -1 18.5 -2t18.5 -1q48 0 99.5 9.5t100.5 19t89 9.5q42 0 64.5 -16.5t32.5 -58.5q-7 4 -23 5.5t-37 1.5z" />
    <glyph glyph-name="currency" unicode="&#xa4;" horiz-adv-x="612" 
d="M274 179q-40 0 -77 17t-61.5 55.5t-24.5 103.5q0 56 26 107.5t76 84.5t124 33q41 0 78 -17t61 -55.5t24 -104.5q0 -56 -25.5 -107.5t-76 -84t-124.5 -32.5zM147 103q-13 -16 -30 -16q-12 0 -27.5 7t-35.5 22q29 29 63 70.5t63 78.5l57 -35q-26 -37 -50 -71.5t-40 -55.5z
M425 104q-13 20 -32.5 55.5t-41.5 72.5l61 38q24 -37 53 -80t55 -74q-22 -14 -38.5 -21.5t-28.5 -7.5q-18 0 -28 17zM295 239q36 0 60 21.5t36 55t12 69.5q0 75 -27 106t-58 31q-36 0 -60 -21.5t-35.5 -55t-11.5 -69.5q0 -53 12.5 -83t31.5 -42t40 -12zM198 491
q-24 38 -52.5 80t-54.5 72q43 29 66 29q18 0 29 -16q13 -20 32.5 -55t40.5 -72zM433 494l-56 37q25 36 49 70t40 54q13 17 30 17q23 0 62 -29q-28 -30 -62 -70.5t-63 -78.5z" />
    <glyph glyph-name="yen" unicode="&#xa5;" horiz-adv-x="505" 
d="M291 -30q-48 0 -74 12t-37 42t-11 86q0 21 3 51.5t9 78.5q-46 174 -83.5 282.5t-72.5 162.5q19 11 38.5 17t39.5 6q22 0 38.5 -9t30.5 -32.5t27 -68.5t27.5 -116t32.5 -174q41 77 74.5 153.5t55.5 141.5t27 108q48 -9 71 -26.5t23 -40.5q0 -18 -9.5 -44.5t-33.5 -70
t-66 -113t-107 -171.5q-7 -49 -11.5 -95.5t-4.5 -83.5q0 -34 3.5 -58t9.5 -38zM400 118q-38 0 -81 -5.5t-83.5 -14t-73.5 -14t-54 -5.5q-64 0 -71 72q10 -1 18.5 -2t18.5 -1q49 0 100.5 9.5t100 19t88.5 9.5q43 0 65 -16.5t32 -58.5q-7 4 -22.5 5.5t-37.5 1.5zM400 261
q-38 0 -81 -5.5t-83.5 -14t-73.5 -14t-54 -5.5q-64 0 -71 72q10 -1 18.5 -2t18.5 -1q49 0 100.5 9.5t100 19t88.5 9.5q43 0 65 -16.5t32 -58.5q-7 4 -22.5 5.5t-37.5 1.5z" />
    <glyph glyph-name="brokenbar" unicode="&#xa6;" horiz-adv-x="456" 
d="M278 444q-39 0 -60 12.5t-29 36t-8 54.5q0 47 -1 104t-4 114t-9 102q65 0 94 -15.5t29 -48.5q0 -29 -1.5 -73t-4 -95t-4.5 -100.5t-2 -90.5zM178 237q40 0 60.5 -12.5t28.5 -35.5t8 -55q0 -47 1 -104t4.5 -113.5t8.5 -102.5q-65 0 -94 15.5t-29 48.5q0 29 1.5 73t4 95
t4.5 101t2 90z" />
    <glyph glyph-name="section" unicode="&#xa7;" horiz-adv-x="620" 
d="M532 320q0 -50 -26.5 -91.5t-74.5 -68t-109 -33.5q53 -40 87 -69t53 -52.5t26.5 -46t7.5 -49.5q0 -56 -31 -100.5t-84 -70t-121 -25.5q-64 0 -113.5 20.5t-78 56t-28.5 81.5q0 50 29.5 81t76.5 31q8 0 15.5 -0.5t13.5 -2.5q-12 -21 -19 -43t-7 -41q0 -34 15.5 -61t43 -42
t62.5 -15q49 0 80.5 29t31.5 73q0 33 -20.5 61t-52.5 53.5t-68 53t-68 59.5t-52.5 71.5t-20.5 89.5q0 75 47.5 122.5t134.5 57.5q-76 54 -111 109.5t-35 121.5q0 87 58 135t163 48q52 0 93.5 -19.5t66 -52.5t24.5 -75q0 -28 -13.5 -51t-36.5 -37t-51 -14q-22 0 -40 8
q22 14 36 39t14 48q0 42 -29 68.5t-74 26.5q-47 0 -73.5 -27.5t-26.5 -76.5q0 -41 20.5 -74.5t53 -62t69 -55.5t69 -55t53 -60.5t20.5 -72.5zM205 291q0 -28 15 -52t40 -38t54 -14q46 0 77 30.5t31 73.5q0 44 -31 74.5t-77 30.5q-29 0 -54 -14t-40 -38t-15 -53z" />
    <glyph glyph-name="dieresis" unicode="&#xa8;" horiz-adv-x="365" 
d="M138 664q-12 -4 -27 -7t-29 -3q-15 0 -29 5t-23.5 16t-9.5 31q0 17 5.5 34t11.5 34q13 5 28 7.5t29 2.5t28.5 -4.5t23.5 -15.5t9 -32q0 -17 -5.5 -33.5zM328 664q-12 -4 -27 -7t-29 -3q-15 0 -29 5t-23.5 16t-9.5 31q0 17 5.5 34t11.5 34q13 5 28 7.5t29 2.5t28.5 -4.5
t23.5 -15.5t9 -32q0 -17 -5.5 -33.5z" />
    <glyph glyph-name="copyright" unicode="&#xa9;" horiz-adv-x="785" 
d="M480 485q32 0 32 -20q-28 -52 -68.5 -69.5t-72.5 -17.5q-35 0 -66 17.5t-49.5 54t-18.5 92.5q0 57 20.5 106t62 79.5t103.5 30.5q56 0 79.5 -27.5t23.5 -58.5q0 -34 -20 -57t-53 -23q-7 0 -15 2t-19 5q11 12 19 35.5t8 42.5q0 15 -6.5 26.5t-22.5 11.5q-29 0 -49.5 -26.5
t-31.5 -66t-11 -79.5q0 -58 21 -85t50 -27q20 0 42.5 13.5t41.5 40.5zM429 861q48 0 95 -14.5t85.5 -47.5t61.5 -87t23 -133q0 -58 -21.5 -113t-64.5 -98.5t-106 -69t-146 -25.5q-48 0 -95 14.5t-85.5 47.5t-61.5 87t-23 133q0 59 21.5 113.5t64.5 98t106 69t146 25.5z
M427 814q-89 0 -149.5 -37.5t-91 -96.5t-30.5 -125q0 -88 30.5 -139.5t77 -73.5t94.5 -22q90 0 150 37t90.5 96.5t30.5 125.5q0 88 -30.5 139.5t-76.5 73.5t-95 22z" />
    <glyph glyph-name="ordfeminine" unicode="&#xaa;" horiz-adv-x="490" 
d="M301 552q-14 -34 -38.5 -58.5t-53.5 -38t-59 -13.5q-45 0 -73 32.5t-28 92.5q0 44 15 87t43 78.5t65 56.5t81 21q17 0 34 -3t30 -8q-51 -14 -87.5 -51t-57 -84t-20.5 -93q0 -30 11.5 -50t34.5 -20q25 0 47 22.5t40 59t28 81t10 88.5q0 12 -1 29t-5 35q11 3 19.5 3.5
t18.5 0.5q32 0 51 -11.5t19 -41.5q0 -22 -8.5 -61.5t-17 -87.5t-8.5 -96q0 -29 5 -49.5t17 -43.5q-57 4 -82.5 30t-25.5 80v8v4z" />
    <glyph glyph-name="guillemotleft" unicode="&#xab;" horiz-adv-x="638" 
d="M73 327q22 10 41.5 37.5t37.5 61.5t36.5 66t39.5 53.5t46 21.5q21 0 40 -10.5t43 -37.5q-25 -8 -48 -31t-45 -53.5t-42.5 -61.5t-40.5 -56q15 -25 29.5 -56t29.5 -61.5t33.5 -53.5t40.5 -31q-29 -27 -51 -37.5t-44 -10.5q-25 0 -41.5 21.5t-28 53.5t-22 66t-24 61.5
t-33.5 37.5zM314 327q22 10 41.5 37.5t37.5 61.5t36.5 66t39.5 53.5t46 21.5q21 0 40 -10.5t43 -37.5q-25 -8 -48 -31t-45 -53.5t-42.5 -61.5t-40.5 -56q15 -25 29.5 -56t29.5 -61.5t33.5 -53.5t40.5 -31q-29 -27 -51 -37.5t-44 -10.5q-25 0 -41.5 21.5t-28 53.5t-22 66
t-24 61.5t-33.5 37.5z" />
    <glyph glyph-name="logicalnot" unicode="&#xac;" horiz-adv-x="620" 
d="M519 131q-61 0 -61 68q0 16 6 44.5t17 71.5q-54 0 -107 -4t-105 -8t-104 -4q-59 0 -84.5 21t-25.5 71q0 5 0.5 10t0.5 10q42 -6 80 -8.5t80 -2.5q59 0 115.5 7t127.5 7q57 0 81.5 -23.5t24.5 -78.5q0 -34 -4 -79t-4 -97q-14 -3 -23 -4t-15 -1z" />
    <glyph glyph-name="registered" unicode="&#xae;" horiz-adv-x="785" 
d="M286 731q23 8 55 14.5t63 6.5q30 0 56 -7.5t42.5 -25t16.5 -48.5q0 -27 -19 -60.5t-66 -52.5q18 -69 45 -112.5t43 -59.5q-28 -6 -44 -6q-30 0 -49 17t-31.5 43.5t-21.5 54.5t-17 50q-4 0 -13 -1l-9 -1q-11 -80 -11 -160q-9 -1 -16 -1.5t-11 -0.5q-29 0 -42 9t-13 29
q0 19 6 54.5t14 79.5t14.5 90.5t7.5 87.5zM357 699q-3 -30 -7 -63t-9 -61q47 3 73.5 29.5t26.5 52.5q0 20 -11 34.5t-36 14.5q-17 0 -37 -7zM427 814q-89 0 -149.5 -37.5t-91 -96.5t-30.5 -125q0 -88 30.5 -139.5t77 -73.5t94.5 -22q90 0 150 37t90.5 96.5t30.5 125.5
q0 88 -30.5 139.5t-76.5 73.5t-95 22zM429 861q48 0 95 -14.5t85.5 -47.5t61.5 -87t23 -133q0 -58 -21.5 -113t-64.5 -98.5t-106 -69t-146 -25.5q-48 0 -95 14.5t-85.5 47.5t-61.5 87t-23 133q0 59 21.5 113.5t64.5 98t106 69t146 25.5z" />
    <glyph glyph-name="macron" unicode="&#xaf;" horiz-adv-x="343" 
d="M84 689q-41 0 -52.5 23t-11.5 63q0 6 1 10t2 10q25 -6 47.5 -8t45.5 -2q35 0 68.5 6.5t74.5 6.5t52.5 -23t11.5 -63q0 -5 -0.5 -9.5t-2.5 -10.5q-25 6 -47 8t-46 2q-35 0 -68 -6.5t-75 -6.5z" />
    <glyph glyph-name="degree" unicode="&#xb0;" horiz-adv-x="404" 
d="M229 784q65 0 102 -39.5t37 -107.5q0 -54 -24.5 -96t-68.5 -66.5t-101 -24.5q-64 0 -101 40t-37 107q0 54 25 96.5t69 66.5t99 24zM212 726q-37 0 -60.5 -31.5t-23.5 -81.5q0 -49 17 -77t48 -28q37 0 60.5 31.5t23.5 81.5q0 49 -17 77t-48 28z" />
    <glyph glyph-name="plusminus" unicode="&#xb1;" horiz-adv-x="620" 
d="M275 198q-8 0 -17.5 0.5t-19.5 2.5q10 47 14.5 95t5.5 100q-24 -2 -47.5 -3t-49.5 -1q-44 0 -66.5 10.5t-31 30t-8.5 46.5q0 6 1 12.5t2 12.5q35 -5 72.5 -7.5t76.5 -2.5q15 0 27.5 0.5t24.5 1.5q0 29 1 54t3 51q4 53 22 76t60 23q11 0 19.5 -0.5t16.5 -2.5
q-10 -46 -14.5 -94t-5.5 -100q24 2 47.5 3t50.5 1q44 0 66.5 -10.5t31 -30t8.5 -46.5q0 -5 -1 -11.5t-2 -13.5q-35 6 -72.5 8t-77.5 2q-14 0 -27.5 -0.5t-24.5 -1.5q-1 -24 -1.5 -50.5t-2.5 -55.5q-4 -52 -22 -75.5t-59 -23.5zM436 119q57 0 81.5 -18.5t24.5 -63.5
q0 -7 -0.5 -14.5t-2.5 -15.5q-33 5 -73 7t-86 2q-57 0 -114 -6t-128 -6q-57 0 -81.5 19t-24.5 63q0 7 1 14.5t2 15.5q34 -5 74 -7t85 -2q57 0 114 6t128 6z" />
    <glyph glyph-name="uni00B2" unicode="&#xb2;" horiz-adv-x="386" 
d="M78 447l-40 1q60 34 105 77t70.5 87t25.5 84q0 30 -16 46.5t-43 16.5q-32 0 -48.5 -24t-16.5 -69q-27 0 -45.5 16.5t-18.5 41.5q0 38 38.5 62t97.5 24q64 0 103 -29t39 -78q0 -43 -30.5 -89t-86.5 -88.5t-134 -78.5zM-3 393q0 32 30.5 55t71.5 23q7 0 11 -0.5t10 -1
t19 -0.5q40 0 78 3.5t68 8.5t43 12q-2 -46 -22 -72.5t-53 -26.5q-20 0 -58.5 6.5t-89.5 6.5q-29 0 -57.5 -3.5t-50.5 -10.5z" />
    <glyph glyph-name="uni00B3" unicode="&#xb3;" horiz-adv-x="386" 
d="M164 391q-60 0 -95 23t-35 62q0 33 25 55t63 22q-3 -12 -5 -24.5t-2 -23.5q0 -31 16 -48.5t43 -17.5q29 0 47.5 20.5t18.5 50.5q0 34 -27.5 57t-76.5 23l10 17l50 7q60 0 97 -28.5t37 -73.5q0 -36 -21.5 -63t-59 -42.5t-85.5 -15.5zM136 590l-3 23q31 5 56.5 20t40 36
t14.5 44q0 21 -14 33.5t-36 12.5q-29 0 -44 -22.5t-15 -67.5q-28 0 -46 17t-18 43q0 34 35.5 57.5t89.5 23.5q57 0 92.5 -26.5t35.5 -69.5q0 -33 -24 -60.5t-66 -44t-98 -19.5z" />
    <glyph glyph-name="acute" unicode="&#xb4;" horiz-adv-x="287" 
d="M20 652q16 36 47 77.5t70 76.5t77 51q8 -5 20 -16t22 -28.5t11 -45.5q-43 -13 -84 -38.5t-74 -54.5t-54 -55q-13 3 -23 12.5t-12 20.5z" />
    <glyph glyph-name="uni00B5" unicode="&#xb5;" horiz-adv-x="606" 
d="M132 -307q-39 13 -61 32.5t-30.5 48t-8.5 67.5q0 50 12.5 119.5t28.5 152t28.5 172t12.5 177.5q0 28 -3 55t-11 55q45 0 75.5 -8t46 -30.5t15.5 -68.5q0 -36 -10.5 -87t-21 -105t-10.5 -102q0 -74 44 -74q25 0 53.5 30.5t55.5 84t44 121t17 141.5q0 28 -1 50t-5 53
q10 1 19.5 1.5t17.5 0.5q40 0 65 -17.5t25 -71.5q0 -19 -5.5 -56t-13.5 -84.5t-13.5 -98t-5.5 -97.5q0 -46 4 -90t15 -85q-45 17 -70 43.5t-35 60t-10 73.5q0 17 1.5 34.5t3.5 35.5l-7 2q-24 -67 -58 -118t-79.5 -80t-104.5 -29q-10 -52 -19 -112t-9 -126q0 -24 2 -41.5
t6 -28.5z" />
    <glyph glyph-name="paragraph" unicode="&#xb6;" horiz-adv-x="620" 
d="M467 -329q-43 3 -69 13.5t-37 39t-11 82.5q0 32 4.5 80t14 125t22.5 194q-103 40 -172.5 96t-104.5 121t-35 132q0 71 27.5 129.5t83 93.5t140.5 35q98 0 152.5 -51.5t54.5 -158.5q0 -31 -5.5 -86.5t-14 -128t-17.5 -154.5t-17.5 -165.5t-14 -162.5t-5.5 -144
q0 -23 1.5 -45.5t2.5 -44.5zM333 739q-45 0 -73 -21.5t-40.5 -58.5t-12.5 -83q0 -58 26 -114.5t70.5 -103.5t99.5 -76q4 45 9 101t10 112.5t8 105t3 81.5q-16 29 -44 43t-56 14zM181 -200q0 48 7.5 114.5t18 143.5t20.5 155q21 -18 46 -32.5t46 -23.5q-9 -75 -17 -131.5
t-13 -109.5t-5 -120q0 -46 7.5 -73t20.5 -42q-36 2 -66 10.5t-47.5 33.5t-17.5 75z" />
    <glyph glyph-name="periodcentered" unicode="&#xb7;" horiz-adv-x="226" 
d="M170 256q-14 -4 -31 -7t-33 -3t-31.5 4.5t-26 17t-10.5 34.5q0 20 6 39l12 38q15 5 31.5 7.5t32.5 2.5q17 0 32 -4.5t25.5 -17t10.5 -34.5q0 -20 -6 -39z" />
    <glyph glyph-name="cedilla" unicode="&#xb8;" horiz-adv-x="215" 
d="M70 -40q60 -4 92.5 -33t32.5 -79q0 -56 -36 -101.5t-95 -62.5q-21 9 -32.5 28.5t-11.5 46.5q44 8 70 34.5t26 61.5q0 51 -55 75q0 9 1.5 15.5t7.5 14.5z" />
    <glyph glyph-name="uni00B9" unicode="&#xb9;" horiz-adv-x="386" 
d="M274 797q-6 -37 -12 -83.5t-10.5 -93t-7.5 -86t-3 -63.5q0 -21 3 -38t8 -32q-12 -3 -21.5 -4t-19.5 -1q-32 0 -45.5 16t-13.5 54q0 26 5 71.5t14.5 101t19.5 109.5l33 -9q-25 -15 -48.5 -27.5t-41 -20t-25.5 -7.5q-14 0 -26 19.5t-12 43.5q36 10 69.5 20.5t64 21.5
t55.5 21z" />
    <glyph glyph-name="ordmasculine" unicode="&#xba;" horiz-adv-x="478" 
d="M210 440q-36 0 -71.5 18t-58 56t-22.5 97q0 55 19 100.5t54 77.5t82 45q8 0 12.5 -4t5.5 -9q-23 -14 -44 -40.5t-32 -70.5l4 -1q20 45 46 69.5t53.5 34.5t50.5 10q49 0 80 -37.5t31 -103.5q0 -41 -12 -83.5t-37 -78.5t-65 -58t-96 -22zM222 484q33 0 56.5 29t36 72.5
t12.5 86.5q0 57 -15.5 82t-39.5 25q-23 0 -43.5 -16.5t-37 -43.5t-25.5 -59t-9 -62t6.5 -56t21 -42t37.5 -16z" />
    <glyph glyph-name="guillemotright" unicode="&#xbb;" horiz-adv-x="638" 
d="M565 307q-22 -10 -41.5 -37.5t-37.5 -61.5t-36.5 -66t-39.5 -53.5t-46 -21.5q-21 0 -40 10.5t-43 37.5q25 8 48 31t45 53.5t42.5 61.5t40.5 56q-15 25 -29.5 56t-29.5 61.5t-33 53.5t-41 31q29 27 51.5 37.5t43.5 10.5q25 0 41.5 -21.5t28 -53.5t22 -66t24 -61.5
t33.5 -37.5zM324 307q-22 -10 -41.5 -37.5t-37.5 -61.5t-36.5 -66t-39.5 -53.5t-46 -21.5q-21 0 -40 10.5t-43 37.5q25 8 48 31t45 53.5t42.5 61.5t40.5 56q-15 25 -29.5 56t-29.5 61.5t-33 53.5t-41 31q29 27 51.5 37.5t43.5 10.5q25 0 41.5 -21.5t28 -53.5t22 -66
t24 -61.5t33.5 -37.5z" />
    <glyph glyph-name="onequarter" unicode="&#xbc;" horiz-adv-x="896" 
d="M274 697q-6 -37 -12 -83.5t-10.5 -93t-7.5 -86t-3 -63.5q0 -21 3 -38t8 -32q-12 -3 -21.5 -4t-19.5 -1q-32 0 -45.5 16t-13.5 54q0 26 5 71.5t14.5 101t19.5 109.5l33 -9q-25 -15 -48.5 -27.5t-41 -20t-25.5 -7.5q-14 0 -26 19.5t-12 43.5q36 10 69.5 20.5t64 21.5
t55.5 21zM524 768q20 -14 33 -43t13 -60q0 -24 -13 -71.5t-34 -111t-45.5 -137t-48 -149t-41.5 -147t-26 -131.5q-32 4 -54 31.5t-22 64.5q0 27 14.5 78t38.5 118t52 142t55 151t48 144t30 121zM517 122q58 92 92.5 168t44.5 132q26 -6 41.5 -22.5t15.5 -34.5
q0 -17 -10.5 -44t-31 -62.5t-50.5 -79.5t-69 -95zM532 73l-15 49q45 0 83 0.5t74 3.5t73.5 8.5t82.5 14.5q2 -8 3.5 -17t1.5 -17q0 -24 -12 -37t-36 -13zM796 207q0 -19 -4 -39t-8.5 -48t-4.5 -71q0 -22 2 -37.5t6 -27.5l-15 -2.5t-18 -1.5q-27 0 -41 12.5t-14 37.5
q0 21 6.5 51t12 71t2.5 95q9 2 16.5 3t14.5 1q24 0 34.5 -10t10.5 -34z" />
    <glyph glyph-name="onehalf" unicode="&#xbd;" horiz-adv-x="896" 
d="M274 697q-6 -37 -12 -83.5t-10.5 -93t-7.5 -86t-3 -63.5q0 -21 3 -38t8 -32q-12 -3 -21.5 -4t-19.5 -1q-32 0 -45.5 16t-13.5 54q0 26 5 71.5t14.5 101t19.5 109.5l33 -9q-25 -15 -48.5 -27.5t-41 -20t-25.5 -7.5q-14 0 -26 19.5t-12 43.5q36 10 69.5 20.5t64 21.5
t55.5 21zM524 768q20 -14 33 -43t13 -60q0 -24 -13 -71.5t-34 -111t-45.5 -137t-48 -149t-41.5 -147t-26 -131.5q-32 4 -54 31.5t-22 64.5q0 27 14.5 78t38.5 118t52 142t55 151t48 144t30 121zM588 31l-40 1q60 34 105 77t70.5 87t25.5 84q0 30 -16 46.5t-43 16.5
q-32 0 -48.5 -24t-16.5 -69q-27 0 -45.5 16.5t-18.5 41.5q0 38 38.5 62t97.5 24q64 0 103 -29t39 -78q0 -43 -30.5 -89t-86.5 -88.5t-134 -78.5zM507 -23q0 32 30.5 55t71.5 23q7 0 11 -0.5t10 -1t19 -0.5q40 0 78 3.5t68 8.5t43 12q-2 -46 -22 -72.5t-53 -26.5
q-20 0 -58.5 6.5t-89.5 6.5q-29 0 -57.5 -3.5t-50.5 -10.5z" />
    <glyph glyph-name="threequarters" unicode="&#xbe;" horiz-adv-x="896" 
d="M164 291q-60 0 -95 23t-35 62q0 33 25 55t63 22q-3 -12 -5 -24.5t-2 -23.5q0 -31 16 -48.5t43 -17.5q29 0 47.5 20.5t18.5 50.5q0 34 -27.5 57t-76.5 23l10 17l50 7q60 0 97 -28.5t37 -73.5q0 -36 -21.5 -63t-59 -42.5t-85.5 -15.5zM136 490l-3 23q31 5 56.5 20t40 36
t14.5 44q0 21 -14 33.5t-36 12.5q-29 0 -44 -22.5t-15 -67.5q-28 0 -46 17t-18 43q0 34 35.5 57.5t89.5 23.5q57 0 92.5 -26.5t35.5 -69.5q0 -33 -24 -60.5t-66 -44t-98 -19.5zM524 768q20 -14 33 -43t13 -60q0 -24 -13 -71.5t-34 -111t-45.5 -137t-48 -149t-41.5 -147
t-26 -131.5q-32 4 -54 31.5t-22 64.5q0 27 14.5 78t38.5 118t52 142t55 151t48 144t30 121zM517 122q58 92 92.5 168t44.5 132q26 -6 41.5 -22.5t15.5 -34.5q0 -17 -10.5 -44t-31 -62.5t-50.5 -79.5t-69 -95zM532 73l-15 49q45 0 83 0.5t74 3.5t73.5 8.5t82.5 14.5
q2 -8 3.5 -17t1.5 -17q0 -24 -12 -37t-36 -13zM796 207q0 -19 -4 -39t-8.5 -48t-4.5 -71q0 -22 2 -37.5t6 -27.5l-15 -2.5t-18 -1.5q-27 0 -41 12.5t-14 37.5q0 21 6.5 51t12 71t2.5 95q9 2 16.5 3t14.5 1q24 0 34.5 -10t10.5 -34z" />
    <glyph glyph-name="questiondown" unicode="&#xbf;" horiz-adv-x="463" 
d="M337 255q0 -41 -23 -73t-57 -59l-68 -54t-57 -58.5t-23 -72.5q0 -39 24.5 -62t65.5 -23q42 0 69 26t27 66q0 39 -25 69q8 4 18.5 6t20.5 2q37 0 60 -24.5t23 -61.5q0 -40 -26.5 -72.5t-72.5 -51.5t-103 -19q-58 0 -100.5 19.5t-66 55t-23.5 83.5q0 46 18 79.5t46 60
t59.5 50t59.5 47.5t46 53t18 66q0 14 -3 29.5t-8 26.5q34 -8 56.5 -23t33.5 -36t11 -49zM232 570q14 5 30.5 7.5t32.5 2.5q17 0 32 -4.5t25.5 -17t10.5 -34.5q0 -20 -6 -39l-12 -38q-14 -4 -31 -7t-33 -3t-31.5 5t-25.5 17t-10 34q0 20 6 39z" />
    <glyph glyph-name="Agrave" unicode="&#xc0;" horiz-adv-x="645" 
d="M355 708q-19 -51 -47 -117.5t-60.5 -144t-64.5 -159.5t-59.5 -163.5t-45.5 -156.5q-35 14 -54 27t-26.5 25.5t-7.5 24.5q0 13 17.5 54.5t45.5 103.5t63 136t70.5 152t66.5 152t52 134zM468 64q-7 21 -17 64.5t-22 102t-26 124t-29 131t-30.5 123t-30.5 99.5
q-13 35 -28.5 53.5t-26.5 31.5q17 6 33 9t29 3q40 0 65 -21.5t41.5 -62t29.5 -98t29 -130.5q21 -97 39.5 -189t42.5 -168t58 -124q-22 -12 -45 -20t-39 -8q-33 0 -47 20.5t-26 59.5zM167 306h269q-3 -28 -18.5 -43.5t-37 -21t-43.5 -6.5l-195 -7zM509 900q-2 -11 -12 -20.5
t-23 -12.5q-21 26 -54 55t-73.5 54.5t-84.5 38.5q1 28 11 45.5t22 28.5t20 16q38 -16 76.5 -51t70 -76.5t47.5 -77.5z" />
    <glyph glyph-name="Aacute" unicode="&#xc1;" horiz-adv-x="645" 
d="M355 708q-19 -51 -47 -117.5t-60.5 -144t-64.5 -159.5t-59.5 -163.5t-45.5 -156.5q-35 14 -54 27t-26.5 25.5t-7.5 24.5q0 13 17.5 54.5t45.5 103.5t63 136t70.5 152t66.5 152t52 134zM468 64q-7 21 -17 64.5t-22 102t-26 124t-29 131t-30.5 123t-30.5 99.5
q-13 35 -28.5 53.5t-26.5 31.5q17 6 33 9t29 3q40 0 65 -21.5t41.5 -62t29.5 -98t29 -130.5q21 -97 39.5 -189t42.5 -168t58 -124q-22 -12 -45 -20t-39 -8q-33 0 -47 20.5t-26 59.5zM167 306h269q-3 -28 -18.5 -43.5t-37 -21t-43.5 -6.5l-195 -7zM262 900q16 36 47 77.5
t70 76.5t77 51q8 -5 20 -16t22 -28.5t11 -45.5q-43 -13 -84 -38.5t-74 -54.5t-54 -55q-13 3 -23 12.5t-12 20.5z" />
    <glyph glyph-name="Acircumflex" unicode="&#xc2;" horiz-adv-x="645" 
d="M355 708q-19 -51 -47 -117.5t-60.5 -144t-64.5 -159.5t-59.5 -163.5t-45.5 -156.5q-35 14 -54 27t-26.5 25.5t-7.5 24.5q0 13 17.5 54.5t45.5 103.5t63 136t70.5 152t66.5 152t52 134zM468 64q-7 21 -17 64.5t-22 102t-26 124t-29 131t-30.5 123t-30.5 99.5
q-13 35 -28.5 53.5t-26.5 31.5q17 6 33 9t29 3q40 0 65 -21.5t41.5 -62t29.5 -98t29 -130.5q21 -97 39.5 -189t42.5 -168t58 -124q-22 -12 -45 -20t-39 -8q-33 0 -47 20.5t-26 59.5zM167 306h269q-3 -28 -18.5 -43.5t-37 -21t-43.5 -6.5l-195 -7zM264 867q-7 5 -18 15.5
t-20.5 28.5t-10.5 46q62 37 106.5 74t75.5 74q24 -4 36 -16t20.5 -31.5t18.5 -45t27.5 -55.5t49.5 -63q-13 -6 -26 -9.5t-32 -3.5q-31 0 -49.5 16t-30.5 58t-25 118l25 -38q-17 -29 -35.5 -56.5t-44.5 -54.5t-67 -57z" />
    <glyph glyph-name="Atilde" unicode="&#xc3;" horiz-adv-x="645" 
d="M355 708q-19 -51 -47 -117.5t-60.5 -144t-64.5 -159.5t-59.5 -163.5t-45.5 -156.5q-35 14 -54 27t-26.5 25.5t-7.5 24.5q0 13 17.5 54.5t45.5 103.5t63 136t70.5 152t66.5 152t52 134zM468 64q-7 21 -17 64.5t-22 102t-26 124t-29 131t-30.5 123t-30.5 99.5
q-13 35 -28.5 53.5t-26.5 31.5q17 6 33 9t29 3q40 0 65 -21.5t41.5 -62t29.5 -98t29 -130.5q21 -97 39.5 -189t42.5 -168t58 -124q-22 -12 -45 -20t-39 -8q-33 0 -47 20.5t-26 59.5zM167 306h269q-3 -28 -18.5 -43.5t-37 -21t-43.5 -6.5l-195 -7zM248 923q-10 1 -18 5.5
t-8 13.5q7 43 22 67t34 34t39 10q26 0 49.5 -7t45 -14.5t40.5 -7.5q25 0 42.5 11.5t27.5 25.5q10 -1 17 -5.5t9 -13.5q-5 -43 -20.5 -67t-35 -34t-39.5 -10q-25 0 -49 7.5t-45 14.5t-40 7q-26 0 -43.5 -11.5t-27.5 -25.5z" />
    <glyph glyph-name="Adieresis" unicode="&#xc4;" horiz-adv-x="645" 
d="M355 708q-19 -51 -47 -117.5t-60.5 -144t-64.5 -159.5t-59.5 -163.5t-45.5 -156.5q-35 14 -54 27t-26.5 25.5t-7.5 24.5q0 13 17.5 54.5t45.5 103.5t63 136t70.5 152t66.5 152t52 134zM468 64q-7 21 -17 64.5t-22 102t-26 124t-29 131t-30.5 123t-30.5 99.5
q-13 35 -28.5 53.5t-26.5 31.5q17 6 33 9t29 3q40 0 65 -21.5t41.5 -62t29.5 -98t29 -130.5q21 -97 39.5 -189t42.5 -168t58 -124q-22 -12 -45 -20t-39 -8q-33 0 -47 20.5t-26 59.5zM167 306h269q-3 -28 -18.5 -43.5t-37 -21t-43.5 -6.5l-195 -7zM338 912q-13 -4 -27.5 -7
t-29.5 -3q-14 0 -28.5 5t-23.5 16t-9 31q0 17 5.5 34t11.5 34q12 5 27 7.5t29 2.5q15 0 29 -4.5t23.5 -15.5t9.5 -32q0 -17 -6 -33.5t-11 -34.5zM528 912q-13 -4 -27.5 -7t-29.5 -3q-14 0 -28.5 5t-23.5 16t-9 31q0 17 5.5 34t11.5 34q12 5 27 7.5t29 2.5q15 0 29 -4.5
t23.5 -15.5t9.5 -32q0 -17 -6 -33.5t-11 -34.5z" />
    <glyph glyph-name="Aring" unicode="&#xc5;" horiz-adv-x="645" 
d="M355 708q-19 -51 -47 -117.5t-60.5 -144t-64.5 -159.5t-59.5 -163.5t-45.5 -156.5q-35 14 -54 27t-26.5 25.5t-7.5 24.5q0 13 17.5 54.5t45.5 103.5t63 136t70.5 152t66.5 152t52 134zM468 64q-7 21 -17 64.5t-22 102t-26 124t-29 131t-30.5 123t-30.5 99.5
q-13 35 -28.5 53.5t-26.5 31.5q17 6 33 9t29 3q40 0 65 -21.5t41.5 -62t29.5 -98t29 -130.5q21 -97 39.5 -189t42.5 -168t58 -124q-22 -12 -45 -20t-39 -8q-33 0 -47 20.5t-26 59.5zM167 306h269q-3 -28 -18.5 -43.5t-37 -21t-43.5 -6.5l-195 -7zM423 944q4 14 7.5 28
t3.5 25q0 25 -14 32t-31 7q-22 0 -42 -5q-5 -14 -8.5 -28t-3.5 -25q0 -25 14 -32t31 -7q22 0 43 5zM477 887q-22 -7 -49.5 -12t-54.5 -5q-26 0 -51 8t-41.5 28.5t-16.5 56.5q0 32 8.5 62.5t19.5 62.5q23 7 50.5 12t53.5 5q27 0 52 -8t41 -28t16 -57q0 -32 -8.5 -62.5
t-19.5 -62.5z" />
    <glyph glyph-name="AE" unicode="&#xc6;" horiz-adv-x="914" 
d="M64 -33q-34 11 -52 24t-24 27t-6 26t18.5 51.5t49 97t67.5 124.5t74.5 134.5t69.5 127.5t52 102l52 109q26 -3 63 -6.5t78.5 -6t79 -4t64.5 -1.5q68 0 133.5 6t123.5 17q-7 -42 -30.5 -65.5t-57.5 -33.5t-72.5 -12.5t-73.5 -2.5q-29 0 -61.5 1.5t-67 4.5t-69 7.5
t-66.5 10.5q-21 -50 -54.5 -116.5t-74 -143.5t-81.5 -159t-76.5 -163.5t-58.5 -155.5zM372 -9q3 10 11 26t26 33.5t49.5 29t80.5 11.5q68 0 133 4t117.5 11.5t82.5 16.5q-7 -63 -41 -97.5t-84 -34.5q-32 0 -89.5 7t-130.5 7q-36 0 -75.5 -3t-79.5 -11zM415 41q-1 6 -2 13.5
t-1 14.5q0 36 6.5 91t16.5 122.5t20 141.5t17 147.5t7 140.5l109 5q2 -8 2.5 -16.5t0.5 -17.5q0 -33 -6 -80.5t-14.5 -106.5t-16.5 -126.5t-14 -140t-6 -146.5v-6.5v-6.5zM269 306q-1 7 -1.5 15t-0.5 15q0 37 17.5 55t46 24t63.5 6q10 0 35.5 -0.5t58.5 -0.5t66 -0.5
t58.5 -1t34.5 -0.5q36 0 70.5 5.5t57.5 24.5q1 -6 1.5 -13t0.5 -14q0 -46 -17.5 -64.5t-46.5 -18.5h-32t-48 0.5t-53 0.5h-46.5h-28.5q-33 0 -73.5 -1.5t-82 -8t-80.5 -23.5z" />
    <glyph glyph-name="Ccedilla" unicode="&#xc7;" horiz-adv-x="687" 
d="M574 198q15 -1 27.5 -10t12.5 -20q-47 -91 -122.5 -142t-164.5 -51q-83 0 -144 44.5t-94.5 125.5t-33.5 192q0 104 27.5 190t78 148.5t119.5 96.5t153 34q96 0 152.5 -49t56.5 -133q0 -44 -17 -78t-46.5 -53.5t-67.5 -19.5q-9 0 -20.5 2t-26.5 6q16 19 29 45.5t20 56
t7 56.5q0 50 -25 77t-70 27q-51 0 -95.5 -32t-78.5 -89t-53 -131t-19 -159q0 -86 22.5 -149.5t63.5 -97.5t97 -34q61 0 117.5 39.5t94.5 107.5zM272 -40q60 -4 92.5 -33t32.5 -79q0 -56 -36 -101.5t-95 -62.5q-21 9 -32.5 28.5t-11.5 46.5q44 8 70 34.5t26 61.5q0 51 -55 75
q0 9 1.5 15.5t7.5 14.5z" />
    <glyph glyph-name="Egrave" unicode="&#xc8;" horiz-adv-x="610" 
d="M118 27q-4 12 -6 27.5t-2 30.5q0 34 6.5 87.5t16 119.5t19 138.5t16.5 144.5t7 137l109 5q2 -8 2.5 -16.5t0.5 -18.5q0 -32 -6 -79.5t-14 -107t-16.5 -127t-14.5 -138t-6 -139.5q0 -16 1 -22t6 -13zM67 -9q6 19 18.5 36.5t32 31.5t49 22.5t68.5 9.5q62 1 110.5 3.5
t87.5 6t72 9.5t63 13q-8 -63 -41.5 -97.5t-85.5 -34.5q-30 0 -88 7t-132 7q-41 0 -79.5 -3t-74.5 -11zM90 306q-1 6 -2 15t-1 15q0 33 14 51t42.5 26t69.5 8q18 0 42 -0.5t48 -1.5t41 -1q42 0 73 7t52 23q2 -7 3 -16t1 -19q0 -40 -17.5 -57.5t-55.5 -17.5q-15 0 -38.5 0.5
t-52.5 0.5q-42 0 -81 -3t-73 -10t-65 -20zM210 673q-37 0 -56 4.5t-25 17.5t-6 37q0 16 2.5 30.5t5.5 24.5q53 -7 107.5 -11t107.5 -4q68 0 133.5 6t123.5 17q-8 -47 -37 -72t-80 -34q-30 -5 -77 -8.5t-100 -5.5t-99 -2zM495 900q-2 -11 -12 -20.5t-23 -12.5q-21 26 -54 55
t-73.5 54.5t-84.5 38.5q1 28 11 45.5t22 28.5t20 16q38 -16 76.5 -51t70 -76.5t47.5 -77.5z" />
    <glyph glyph-name="Eacute" unicode="&#xc9;" horiz-adv-x="610" 
d="M118 27q-4 12 -6 27.5t-2 30.5q0 34 6.5 87.5t16 119.5t19 138.5t16.5 144.5t7 137l109 5q2 -8 2.5 -16.5t0.5 -18.5q0 -32 -6 -79.5t-14 -107t-16.5 -127t-14.5 -138t-6 -139.5q0 -16 1 -22t6 -13zM67 -9q6 19 18.5 36.5t32 31.5t49 22.5t68.5 9.5q62 1 110.5 3.5
t87.5 6t72 9.5t63 13q-8 -63 -41.5 -97.5t-85.5 -34.5q-30 0 -88 7t-132 7q-41 0 -79.5 -3t-74.5 -11zM90 306q-1 6 -2 15t-1 15q0 33 14 51t42.5 26t69.5 8q18 0 42 -0.5t48 -1.5t41 -1q42 0 73 7t52 23q2 -7 3 -16t1 -19q0 -40 -17.5 -57.5t-55.5 -17.5q-15 0 -38.5 0.5
t-52.5 0.5q-42 0 -81 -3t-73 -10t-65 -20zM210 673q-37 0 -56 4.5t-25 17.5t-6 37q0 16 2.5 30.5t5.5 24.5q53 -7 107.5 -11t107.5 -4q68 0 133.5 6t123.5 17q-8 -47 -37 -72t-80 -34q-30 -5 -77 -8.5t-100 -5.5t-99 -2zM248 900q16 36 47 77.5t70 76.5t77 51q8 -5 20 -16
t22 -28.5t11 -45.5q-43 -13 -84 -38.5t-74 -54.5t-54 -55q-13 3 -23 12.5t-12 20.5z" />
    <glyph glyph-name="Ecircumflex" unicode="&#xca;" horiz-adv-x="610" 
d="M118 27q-4 12 -6 27.5t-2 30.5q0 34 6.5 87.5t16 119.5t19 138.5t16.5 144.5t7 137l109 5q2 -8 2.5 -16.5t0.5 -18.5q0 -32 -6 -79.5t-14 -107t-16.5 -127t-14.5 -138t-6 -139.5q0 -16 1 -22t6 -13zM67 -9q6 19 18.5 36.5t32 31.5t49 22.5t68.5 9.5q62 1 110.5 3.5
t87.5 6t72 9.5t63 13q-8 -63 -41.5 -97.5t-85.5 -34.5q-30 0 -88 7t-132 7q-41 0 -79.5 -3t-74.5 -11zM90 306q-1 6 -2 15t-1 15q0 33 14 51t42.5 26t69.5 8q18 0 42 -0.5t48 -1.5t41 -1q42 0 73 7t52 23q2 -7 3 -16t1 -19q0 -40 -17.5 -57.5t-55.5 -17.5q-15 0 -38.5 0.5
t-52.5 0.5q-42 0 -81 -3t-73 -10t-65 -20zM210 673q-37 0 -56 4.5t-25 17.5t-6 37q0 16 2.5 30.5t5.5 24.5q53 -7 107.5 -11t107.5 -4q68 0 133.5 6t123.5 17q-8 -47 -37 -72t-80 -34q-30 -5 -77 -8.5t-100 -5.5t-99 -2zM251 867q-7 5 -18 15.5t-20.5 28.5t-10.5 46
q62 37 106.5 74t75.5 74q24 -4 36 -16t20.5 -31.5t18.5 -45t27.5 -55.5t49.5 -63q-13 -6 -26 -9.5t-32 -3.5q-31 0 -49.5 16t-30.5 58t-25 118l25 -38q-17 -29 -35.5 -56.5t-44.5 -54.5t-67 -57z" />
    <glyph glyph-name="Edieresis" unicode="&#xcb;" horiz-adv-x="610" 
d="M118 27q-4 12 -6 27.5t-2 30.5q0 34 6.5 87.5t16 119.5t19 138.5t16.5 144.5t7 137l109 5q2 -8 2.5 -16.5t0.5 -18.5q0 -32 -6 -79.5t-14 -107t-16.5 -127t-14.5 -138t-6 -139.5q0 -16 1 -22t6 -13zM67 -9q6 19 18.5 36.5t32 31.5t49 22.5t68.5 9.5q62 1 110.5 3.5
t87.5 6t72 9.5t63 13q-8 -63 -41.5 -97.5t-85.5 -34.5q-30 0 -88 7t-132 7q-41 0 -79.5 -3t-74.5 -11zM90 306q-1 6 -2 15t-1 15q0 33 14 51t42.5 26t69.5 8q18 0 42 -0.5t48 -1.5t41 -1q42 0 73 7t52 23q2 -7 3 -16t1 -19q0 -40 -17.5 -57.5t-55.5 -17.5q-15 0 -38.5 0.5
t-52.5 0.5q-42 0 -81 -3t-73 -10t-65 -20zM210 673q-37 0 -56 4.5t-25 17.5t-6 37q0 16 2.5 30.5t5.5 24.5q53 -7 107.5 -11t107.5 -4q68 0 133.5 6t123.5 17q-8 -47 -37 -72t-80 -34q-30 -5 -77 -8.5t-100 -5.5t-99 -2zM325 912q-13 -4 -28 -7t-29 -3t-28.5 5t-24 16
t-9.5 31q0 17 5.5 34t11.5 34q13 5 28 7.5t29 2.5t28.5 -4.5t24 -15.5t9.5 -32q0 -17 -6 -33.5t-11 -34.5zM515 912q-13 -4 -28 -7t-29 -3t-28.5 5t-24 16t-9.5 31q0 17 5.5 34t11.5 34q13 5 28 7.5t29 2.5t28.5 -4.5t24 -15.5t9.5 -32q0 -17 -6 -33.5t-11 -34.5z" />
    <glyph glyph-name="Igrave" unicode="&#xcc;" horiz-adv-x="344" 
d="M262 684q0 -32 -6.5 -88t-16.5 -125t-20 -141t-16.5 -137.5t-6.5 -114.5q0 -76 14 -109q-47 15 -74 36.5t-38 52t-11 71.5q0 31 6 82.5t14.5 115.5t17 133t14.5 136t6 124q0 21 -1 42t-3 40q43 -2 67.5 -11t36 -24.5t14.5 -36t3 -46.5zM335 900q-2 -11 -12 -20.5
t-23 -12.5q-21 26 -54 55t-73.5 54.5t-84.5 38.5q1 28 11 45.5t22 28.5t20 16q38 -16 76.5 -51t70 -76.5t47.5 -77.5z" />
    <glyph glyph-name="Iacute" unicode="&#xcd;" horiz-adv-x="344" 
d="M262 684q0 -32 -6.5 -88t-16.5 -125t-20 -141t-16.5 -137.5t-6.5 -114.5q0 -76 14 -109q-47 15 -74 36.5t-38 52t-11 71.5q0 31 6 82.5t14.5 115.5t17 133t14.5 136t6 124q0 21 -1 42t-3 40q43 -2 67.5 -11t36 -24.5t14.5 -36t3 -46.5zM88 900q16 36 47 77.5t70 76.5
t77 51q8 -5 20 -16t22 -28.5t11 -45.5q-43 -13 -84 -38.5t-74 -54.5t-54 -55q-13 3 -23 12.5t-12 20.5z" />
    <glyph glyph-name="Icircumflex" unicode="&#xce;" horiz-adv-x="344" 
d="M262 684q0 -32 -6.5 -88t-16.5 -125t-20 -141t-16.5 -137.5t-6.5 -114.5q0 -76 14 -109q-47 15 -74 36.5t-38 52t-11 71.5q0 31 6 82.5t14.5 115.5t17 133t14.5 136t6 124q0 21 -1 42t-3 40q43 -2 67.5 -11t36 -24.5t14.5 -36t3 -46.5zM91 867q-7 5 -18 15.5t-20.5 28.5
t-10.5 46q62 37 106.5 74t75.5 74q24 -4 36 -16t20.5 -31.5t18.5 -45t27.5 -55.5t49.5 -63q-13 -6 -26 -9.5t-32 -3.5q-31 0 -49.5 16t-30.5 58t-25 118l25 -38q-17 -29 -35.5 -56.5t-44.5 -54.5t-67 -57z" />
    <glyph glyph-name="Idieresis" unicode="&#xcf;" horiz-adv-x="344" 
d="M262 684q0 -32 -6.5 -88t-16.5 -125t-20 -141t-16.5 -137.5t-6.5 -114.5q0 -76 14 -109q-47 15 -74 36.5t-38 52t-11 71.5q0 31 6 82.5t14.5 115.5t17 133t14.5 136t6 124q0 21 -1 42t-3 40q43 -2 67.5 -11t36 -24.5t14.5 -36t3 -46.5zM164 912q-12 -4 -27 -7t-29 -3
q-15 0 -29 5t-23.5 16t-9.5 31q0 17 5.5 34t11.5 34q13 5 28 7.5t29 2.5t28.5 -4.5t23.5 -15.5t9 -32q0 -17 -5.5 -33.5zM354 912q-12 -4 -27 -7t-29 -3q-15 0 -29 5t-23.5 16t-9.5 31q0 17 5.5 34t11.5 34q13 5 28 7.5t29 2.5t28.5 -4.5t23.5 -15.5t9 -32q0 -17 -5.5 -33.5
z" />
    <glyph glyph-name="Eth" unicode="&#xd0;" horiz-adv-x="760" 
d="M251 759q49 23 88 33t82 10q87 0 153 -47.5t103 -132.5t37 -198q0 -98 -28 -178.5t-79.5 -139t-122 -90t-156.5 -31.5q-42 0 -88 9t-86.5 24.5t-68.5 34.5q12 59 21.5 127.5t18 140.5t14.5 143t9 136t3 118q0 35 -1 58.5t-4 40.5t-9 30q47 -14 74.5 -35t39.5 -53zM211 72
q19 -12 43.5 -17t50.5 -5q90 0 155.5 46t100.5 130.5t35 201.5q0 90 -26.5 157.5t-74.5 105.5t-113 38q-30 0 -62.5 -8t-55.5 -21q0 -37 -5.5 -99.5t-13 -136.5t-15.5 -148.5t-13.5 -138.5t-5.5 -105zM367 372q-59 0 -107.5 5.5t-95.5 5.5q-25 0 -51.5 -0.5t-48.5 -2
t-34 -5.5q0 5 -0.5 9.5t-0.5 8.5q0 23 6 41.5t25 29.5t56 11q59 0 107.5 -5.5t95.5 -5.5q26 0 52 0.5t48 2.5t34 5q0 -5 0.5 -9.5t0.5 -8.5q0 -23 -6.5 -41.5t-24.5 -29.5t-56 -11z" />
    <glyph glyph-name="Ntilde" unicode="&#xd1;" horiz-adv-x="821" 
d="M83 58q0 13 5.5 52t14 96.5t18 123.5t18 133.5t13.5 128t5 103.5q0 38 -3.5 62t-10.5 39q43 -13 63.5 -33.5t27.5 -47t7 -58.5q0 -81 -13 -172t-26.5 -192.5t-13.5 -214.5q0 -21 1.5 -42t2.5 -41q-32 0 -53 5t-33 14t-17.5 20t-5.5 24zM597 45q-4 13 -5.5 25t-1.5 27
q0 61 8 133.5t19 153t19 165.5t8 171q0 20 -1 41t-3 40q32 0 52.5 -5t32.5 -13.5t17.5 -19.5t5.5 -23q0 -13 -5.5 -53.5t-14 -99t-17.5 -126.5t-17.5 -136.5t-13.5 -129.5t-5 -105q0 -20 1 -39.5t4 -36.5zM519 38q-13 19 -36 64.5t-53.5 108t-65.5 132.5t-71 138.5
t-70.5 126.5t-65.5 95q-24 30 -48.5 45t-38.5 25q24 16 45 22.5t39 6.5q35 0 64.5 -13t51.5 -47q18 -26 56.5 -97t94.5 -184q33 -67 66.5 -136t68.5 -130.5t71.5 -107.5t75.5 -68q-30 -22 -53.5 -31t-47.5 -9q-18 0 -32.5 7t-27 20t-23.5 32zM313 923q-10 1 -18 5.5t-8 13.5
q7 43 22 67t34 34t39 10q26 0 49.5 -7t45 -14.5t40.5 -7.5q25 0 42.5 11.5t27.5 25.5q10 -1 17 -5.5t9 -13.5q-5 -43 -20.5 -67t-35 -34t-39.5 -10q-25 0 -49 7.5t-45 14.5t-40 7q-26 0 -43.5 -11.5t-27.5 -25.5z" />
    <glyph glyph-name="Ograve" unicode="&#xd2;" horiz-adv-x="802" 
d="M358 -25q-79 0 -135 36t-92 95.5t-53.5 131t-17.5 141.5q0 83 20.5 156.5t58 133t89 100.5t114.5 59q7 -1 13 -6.5t8 -11.5q-34 -21 -65 -50t-56 -68.5t-40 -95.5l8 -2q32 69 80.5 115.5t104 70.5t108.5 24q64 0 118 -35t87.5 -107t33.5 -183q0 -70 -14 -142t-42.5 -137
t-73.5 -115.5t-108 -80t-146 -29.5zM372 38q58 0 103.5 36t76.5 96t47 133t16 147q0 102 -20.5 162.5t-56.5 87t-80 26.5q-58 0 -107 -35t-85 -92.5t-55.5 -128t-19.5 -140.5q0 -59 10.5 -112t32.5 -93t56.5 -63.5t81.5 -23.5zM583 900q-2 -11 -12 -20.5t-23 -12.5
q-21 26 -54 55t-73.5 54.5t-84.5 38.5q1 28 11 45.5t22 28.5t20 16q38 -16 76.5 -51t70 -76.5t47.5 -77.5z" />
    <glyph glyph-name="Oacute" unicode="&#xd3;" horiz-adv-x="802" 
d="M358 -25q-79 0 -135 36t-92 95.5t-53.5 131t-17.5 141.5q0 83 20.5 156.5t58 133t89 100.5t114.5 59q7 -1 13 -6.5t8 -11.5q-34 -21 -65 -50t-56 -68.5t-40 -95.5l8 -2q32 69 80.5 115.5t104 70.5t108.5 24q64 0 118 -35t87.5 -107t33.5 -183q0 -70 -14 -142t-42.5 -137
t-73.5 -115.5t-108 -80t-146 -29.5zM372 38q58 0 103.5 36t76.5 96t47 133t16 147q0 102 -20.5 162.5t-56.5 87t-80 26.5q-58 0 -107 -35t-85 -92.5t-55.5 -128t-19.5 -140.5q0 -59 10.5 -112t32.5 -93t56.5 -63.5t81.5 -23.5zM336 900q16 36 47 77.5t70 76.5t77 51
q8 -5 20 -16t22 -28.5t11 -45.5q-43 -13 -84 -38.5t-74 -54.5t-54 -55q-13 3 -23 12.5t-12 20.5z" />
    <glyph glyph-name="Ocircumflex" unicode="&#xd4;" horiz-adv-x="802" 
d="M358 -25q-79 0 -135 36t-92 95.5t-53.5 131t-17.5 141.5q0 83 20.5 156.5t58 133t89 100.5t114.5 59q7 -1 13 -6.5t8 -11.5q-34 -21 -65 -50t-56 -68.5t-40 -95.5l8 -2q32 69 80.5 115.5t104 70.5t108.5 24q64 0 118 -35t87.5 -107t33.5 -183q0 -70 -14 -142t-42.5 -137
t-73.5 -115.5t-108 -80t-146 -29.5zM372 38q58 0 103.5 36t76.5 96t47 133t16 147q0 102 -20.5 162.5t-56.5 87t-80 26.5q-58 0 -107 -35t-85 -92.5t-55.5 -128t-19.5 -140.5q0 -59 10.5 -112t32.5 -93t56.5 -63.5t81.5 -23.5zM339 867q-7 5 -18 15.5t-20.5 28.5t-10.5 46
q62 37 106.5 74t75.5 74q24 -4 36 -16t20.5 -31.5t18.5 -45t27.5 -55.5t49.5 -63q-13 -6 -26 -9.5t-32 -3.5q-31 0 -49.5 16t-30.5 58t-25 118l25 -38q-17 -29 -35.5 -56.5t-44.5 -54.5t-67 -57z" />
    <glyph glyph-name="Otilde" unicode="&#xd5;" horiz-adv-x="802" 
d="M358 -25q-79 0 -135 36t-92 95.5t-53.5 131t-17.5 141.5q0 83 20.5 156.5t58 133t89 100.5t114.5 59q7 -1 13 -6.5t8 -11.5q-34 -21 -65 -50t-56 -68.5t-40 -95.5l8 -2q32 69 80.5 115.5t104 70.5t108.5 24q64 0 118 -35t87.5 -107t33.5 -183q0 -70 -14 -142t-42.5 -137
t-73.5 -115.5t-108 -80t-146 -29.5zM372 38q58 0 103.5 36t76.5 96t47 133t16 147q0 102 -20.5 162.5t-56.5 87t-80 26.5q-58 0 -107 -35t-85 -92.5t-55.5 -128t-19.5 -140.5q0 -59 10.5 -112t32.5 -93t56.5 -63.5t81.5 -23.5zM322 923q-10 1 -18 5.5t-8 13.5q7 43 22 67
t34 34t39 10q26 0 49.5 -7t45 -14.5t40.5 -7.5q25 0 42.5 11.5t27.5 25.5q10 -1 17 -5.5t9 -13.5q-5 -43 -20.5 -67t-35 -34t-39.5 -10q-25 0 -49 7.5t-45 14.5t-40 7q-26 0 -43.5 -11.5t-27.5 -25.5z" />
    <glyph glyph-name="Odieresis" unicode="&#xd6;" horiz-adv-x="802" 
d="M358 -25q-79 0 -135 36t-92 95.5t-53.5 131t-17.5 141.5q0 83 20.5 156.5t58 133t89 100.5t114.5 59q7 -1 13 -6.5t8 -11.5q-34 -21 -65 -50t-56 -68.5t-40 -95.5l8 -2q32 69 80.5 115.5t104 70.5t108.5 24q64 0 118 -35t87.5 -107t33.5 -183q0 -70 -14 -142t-42.5 -137
t-73.5 -115.5t-108 -80t-146 -29.5zM372 38q58 0 103.5 36t76.5 96t47 133t16 147q0 102 -20.5 162.5t-56.5 87t-80 26.5q-58 0 -107 -35t-85 -92.5t-55.5 -128t-19.5 -140.5q0 -59 10.5 -112t32.5 -93t56.5 -63.5t81.5 -23.5zM412 912q-12 -4 -27 -7t-29 -3q-15 0 -29 5
t-23.5 16t-9.5 31q0 17 5.5 34t11.5 34q13 5 28 7.5t29 2.5t28.5 -4.5t23.5 -15.5t9 -32q0 -17 -5.5 -33.5zM602 912q-12 -4 -27 -7t-29 -3q-15 0 -29 5t-23.5 16t-9.5 31q0 17 5.5 34t11.5 34q13 5 28 7.5t29 2.5t28.5 -4.5t23.5 -15.5t9 -32q0 -17 -5.5 -33.5z" />
    <glyph glyph-name="multiply" unicode="&#xd7;" horiz-adv-x="620" 
d="M492 131q-35 37 -76.5 72.5t-98.5 80.5q-43 -56 -71 -87t-48 -43.5t-41 -12.5q-20 0 -39 8t-32 23q44 41 79 84t72 89q-58 48 -89 76t-42 47.5t-11 38.5q0 21 8 39.5t23 31.5q35 -36 75.5 -71.5t99.5 -81.5q43 57 70.5 88t48 43.5t41.5 12.5t39 -8.5t31 -23.5
q-43 -41 -78 -84t-73 -89q60 -48 91 -76.5t41.5 -47t10.5 -38.5t-8 -39t-23 -32z" />
    <glyph glyph-name="Oslash" unicode="&#xd8;" horiz-adv-x="802" 
d="M358 -25q-79 0 -135 36t-92 95.5t-53.5 131t-17.5 141.5q0 83 20.5 156.5t58 133t89 100.5t114.5 59q7 -1 13 -6.5t8 -11.5q-34 -21 -65 -50t-56 -68.5t-40 -95.5l8 -2q32 69 80.5 115.5t104 70.5t108.5 24q64 0 118 -35t87.5 -107t33.5 -183q0 -70 -14 -142t-42.5 -137
t-73.5 -115.5t-108 -80t-146 -29.5zM372 38q58 0 103.5 36t76.5 96t47 133t16 147q0 102 -20.5 162.5t-56.5 87t-80 26.5q-58 0 -107 -35t-85 -92.5t-55.5 -128t-19.5 -140.5q0 -59 10.5 -112t32.5 -93t56.5 -63.5t81.5 -23.5zM553 949l9 -6.5t20 -19t20 -32t9 -45.5
q0 -21 -16 -70t-43 -117.5t-60 -149.5t-67 -166.5t-64 -168t-51 -153.5t-28 -122l-9.5 2t-23 7t-27.5 16t-23.5 28t-9.5 43q0 23 18 75t47.5 124t66 155.5t74 170t70.5 167.5t56.5 149t31.5 113z" />
    <glyph glyph-name="Ugrave" unicode="&#xd9;" horiz-adv-x="755" 
d="M238 653q0 -67 -10 -134.5t-21 -136.5t-11 -143q0 -70 13.5 -107t37 -51t52.5 -14q19 0 45 9t55 33.5t57 70t50.5 117.5t36 176.5t13.5 246.5l6 -330q-10 -59 -26.5 -118t-41 -111t-59.5 -93t-81 -64.5t-105 -23.5q-81 0 -124 56.5t-43 183.5q0 40 4.5 92t11.5 108
t13.5 110.5t11 100.5t4.5 76q0 65 -11 95q45 -14 71.5 -34.5t38.5 -48.5t12 -66zM673 684q0 -32 -6.5 -88t-16.5 -125t-20 -141t-16.5 -137.5t-6.5 -114.5q0 -76 14 -109q-47 15 -74 36.5t-38 52t-11 71.5q0 31 6 82.5t14.5 115.5t17 133t14.5 136t6 124q0 21 -1 42t-3 40
q43 -2 67.5 -11t36 -24.5t14.5 -36t3 -46.5zM541 900q-2 -11 -12 -20.5t-23 -12.5q-21 26 -54 55t-73.5 54.5t-84.5 38.5q1 28 11 45.5t22 28.5t20 16q38 -16 76.5 -51t70 -76.5t47.5 -77.5z" />
    <glyph glyph-name="Uacute" unicode="&#xda;" horiz-adv-x="755" 
d="M238 653q0 -67 -10 -134.5t-21 -136.5t-11 -143q0 -70 13.5 -107t37 -51t52.5 -14q19 0 45 9t55 33.5t57 70t50.5 117.5t36 176.5t13.5 246.5l6 -330q-10 -59 -26.5 -118t-41 -111t-59.5 -93t-81 -64.5t-105 -23.5q-81 0 -124 56.5t-43 183.5q0 40 4.5 92t11.5 108
t13.5 110.5t11 100.5t4.5 76q0 65 -11 95q45 -14 71.5 -34.5t38.5 -48.5t12 -66zM673 684q0 -32 -6.5 -88t-16.5 -125t-20 -141t-16.5 -137.5t-6.5 -114.5q0 -76 14 -109q-47 15 -74 36.5t-38 52t-11 71.5q0 31 6 82.5t14.5 115.5t17 133t14.5 136t6 124q0 21 -1 42t-3 40
q43 -2 67.5 -11t36 -24.5t14.5 -36t3 -46.5zM294 900q16 36 47 77.5t70 76.5t77 51q8 -5 20 -16t22 -28.5t11 -45.5q-43 -13 -84 -38.5t-74 -54.5t-54 -55q-13 3 -23 12.5t-12 20.5z" />
    <glyph glyph-name="Ucircumflex" unicode="&#xdb;" horiz-adv-x="755" 
d="M238 653q0 -67 -10 -134.5t-21 -136.5t-11 -143q0 -70 13.5 -107t37 -51t52.5 -14q19 0 45 9t55 33.5t57 70t50.5 117.5t36 176.5t13.5 246.5l6 -330q-10 -59 -26.5 -118t-41 -111t-59.5 -93t-81 -64.5t-105 -23.5q-81 0 -124 56.5t-43 183.5q0 40 4.5 92t11.5 108
t13.5 110.5t11 100.5t4.5 76q0 65 -11 95q45 -14 71.5 -34.5t38.5 -48.5t12 -66zM673 684q0 -32 -6.5 -88t-16.5 -125t-20 -141t-16.5 -137.5t-6.5 -114.5q0 -76 14 -109q-47 15 -74 36.5t-38 52t-11 71.5q0 31 6 82.5t14.5 115.5t17 133t14.5 136t6 124q0 21 -1 42t-3 40
q43 -2 67.5 -11t36 -24.5t14.5 -36t3 -46.5zM297 867q-7 5 -18 15.5t-20.5 28.5t-10.5 46q62 37 106.5 74t75.5 74q24 -4 36 -16t20.5 -31.5t18.5 -45t27.5 -55.5t49.5 -63q-13 -6 -26 -9.5t-32 -3.5q-31 0 -49.5 16t-30.5 58t-25 118l25 -38q-17 -29 -35.5 -56.5
t-44.5 -54.5t-67 -57z" />
    <glyph glyph-name="Udieresis" unicode="&#xdc;" horiz-adv-x="755" 
d="M238 653q0 -67 -10 -134.5t-21 -136.5t-11 -143q0 -70 13.5 -107t37 -51t52.5 -14q19 0 45 9t55 33.5t57 70t50.5 117.5t36 176.5t13.5 246.5l6 -330q-10 -59 -26.5 -118t-41 -111t-59.5 -93t-81 -64.5t-105 -23.5q-81 0 -124 56.5t-43 183.5q0 40 4.5 92t11.5 108
t13.5 110.5t11 100.5t4.5 76q0 65 -11 95q45 -14 71.5 -34.5t38.5 -48.5t12 -66zM673 684q0 -32 -6.5 -88t-16.5 -125t-20 -141t-16.5 -137.5t-6.5 -114.5q0 -76 14 -109q-47 15 -74 36.5t-38 52t-11 71.5q0 31 6 82.5t14.5 115.5t17 133t14.5 136t6 124q0 21 -1 42t-3 40
q43 -2 67.5 -11t36 -24.5t14.5 -36t3 -46.5zM370 912q-12 -4 -27 -7t-29 -3q-15 0 -29 5t-23.5 16t-9.5 31q0 17 5.5 34t11.5 34q13 5 28 7.5t29 2.5t28.5 -4.5t23.5 -15.5t9 -32q0 -17 -5.5 -33.5zM560 912q-12 -4 -27 -7t-29 -3q-15 0 -29 5t-23.5 16t-9.5 31q0 17 5.5 34
t11.5 34q13 5 28 7.5t29 2.5t28.5 -4.5t23.5 -15.5t9 -32q0 -17 -5.5 -33.5z" />
    <glyph glyph-name="Yacute" unicode="&#xdd;" horiz-adv-x="565" 
d="M318 277q-8 -51 -12.5 -103t-4.5 -96q0 -37 3.5 -65t10.5 -44q-47 0 -75 13t-40 47t-12 97q0 16 1.5 35t4.5 46t8 68q-53 199 -95.5 320t-81.5 182q19 13 39.5 19.5t40.5 6.5q23 0 40.5 -10t33 -38t30 -80t32 -136t40.5 -207q37 66 70 133.5t59 131t42.5 117.5t21.5 93
q48 -12 72 -31.5t24 -45.5q0 -19 -11.5 -49.5t-39.5 -80.5t-77 -128.5t-124 -194.5zM209 900q16 36 47 77.5t70 76.5t77 51q8 -5 20 -16t22 -28.5t11 -45.5q-43 -13 -84 -38.5t-74 -54.5t-54 -55q-13 3 -23 12.5t-12 20.5z" />
    <glyph glyph-name="Thorn" unicode="&#xde;" horiz-adv-x="621" 
d="M237 596q43 26 89 36.5t84 10.5q70 0 116 -28t68.5 -73t22.5 -98q0 -49 -19 -98t-56 -90t-91.5 -65.5t-125.5 -24.5q-14 0 -28 1t-28 3l-3 35q70 0 116.5 19.5t73.5 52.5t39 71.5t12 76.5t-16 70.5t-49 52t-84 19.5q-23 0 -49.5 -5.5t-55.5 -16.5zM92 69q0 36 7 92
t17 124t19.5 142t16.5 148t7 141q0 38 -3.5 66.5t-10.5 43.5q35 -3 62.5 -21t44 -48.5t16.5 -73.5q0 -41 -8.5 -105t-20 -143.5t-20 -169t-8.5 -182.5q0 -23 1 -47.5t5 -50.5q-10 -1 -17.5 -1.5t-13.5 -0.5q-47 0 -70.5 20t-23.5 66z" />
    <glyph glyph-name="germandbls" unicode="&#xdf;" horiz-adv-x="717" 
d="M477 471q63 -5 110.5 -33.5t73.5 -76t26 -109.5q0 -60 -21 -111.5t-58.5 -91.5t-87.5 -62t-106 -22q-74 0 -117.5 38t-43.5 101q0 37 14.5 67t38.5 48t53 18q9 0 21.5 -3t24.5 -8q-11 -12 -22 -35.5t-18 -50t-7 -46.5q0 -34 17 -53t49 -19q38 0 69.5 29.5t51 79
t19.5 109.5q0 55 -20 98t-56.5 66.5t-85.5 23.5l-15 40q48 30 83 70.5t55 86.5t20 94q0 54 -23.5 85.5t-66.5 31.5q-66 0 -114.5 -79t-73.5 -224q-12 -69 -23.5 -140.5t-20.5 -140t-14 -130t-5 -113.5q0 -25 2.5 -53t8.5 -74q-38 18 -62.5 46t-37 67t-12.5 91q0 29 4.5 75
t12 101.5t17.5 113.5t21 114q-34 -7 -60.5 -15t-51.5 -17v17.5t-0.5 4t-0.5 5.5q2 47 33 68t100 22q45 161 121 243t177 82q52 0 91.5 -21.5t61.5 -58t22 -85.5q0 -48 -22 -97t-61 -90.5t-92 -71.5z" />
    <glyph glyph-name="agrave" unicode="&#xe0;" horiz-adv-x="635" 
d="M414 171q-19 -53 -54.5 -94.5t-79.5 -65t-89 -23.5q-67 0 -105 52t-38 144q0 75 22 142t60.5 118t89 80t107.5 29q20 0 39.5 -4t40.5 -12q-51 -14 -95 -47t-76 -79t-49.5 -100.5t-17.5 -113.5q0 -58 20 -89.5t57 -31.5q39 0 74.5 32t64.5 87.5t45 125t16 145.5
q0 27 -1.5 54.5t-5.5 47.5q10 1 18 1.5t18 0.5q45 0 67.5 -20.5t22.5 -61.5q0 -26 -7 -67t-16.5 -92t-17 -107t-7.5 -111q0 -43 7 -74t24 -70q-69 14 -98.5 57t-29.5 127v11t1 7zM490 652q-2 -11 -12 -20.5t-23 -12.5q-21 26 -54 55t-73.5 54.5t-84.5 38.5q1 28 11 45.5
t22 28.5t20 16q38 -16 76.5 -51t70 -76.5t47.5 -77.5z" />
    <glyph glyph-name="aacute" unicode="&#xe1;" horiz-adv-x="635" 
d="M414 171q-19 -53 -54.5 -94.5t-79.5 -65t-89 -23.5q-67 0 -105 52t-38 144q0 75 22 142t60.5 118t89 80t107.5 29q20 0 39.5 -4t40.5 -12q-51 -14 -95 -47t-76 -79t-49.5 -100.5t-17.5 -113.5q0 -58 20 -89.5t57 -31.5q39 0 74.5 32t64.5 87.5t45 125t16 145.5
q0 27 -1.5 54.5t-5.5 47.5q10 1 18 1.5t18 0.5q45 0 67.5 -20.5t22.5 -61.5q0 -26 -7 -67t-16.5 -92t-17 -107t-7.5 -111q0 -43 7 -74t24 -70q-69 14 -98.5 57t-29.5 127v11t1 7zM243 652q16 36 47 77.5t70 76.5t77 51q8 -5 20 -16t22 -28.5t11 -45.5q-43 -13 -84 -38.5
t-74 -54.5t-54 -55q-13 3 -23 12.5t-12 20.5z" />
    <glyph glyph-name="acircumflex" unicode="&#xe2;" horiz-adv-x="635" 
d="M414 171q-19 -53 -54.5 -94.5t-79.5 -65t-89 -23.5q-67 0 -105 52t-38 144q0 75 22 142t60.5 118t89 80t107.5 29q20 0 39.5 -4t40.5 -12q-51 -14 -95 -47t-76 -79t-49.5 -100.5t-17.5 -113.5q0 -58 20 -89.5t57 -31.5q39 0 74.5 32t64.5 87.5t45 125t16 145.5
q0 27 -1.5 54.5t-5.5 47.5q10 1 18 1.5t18 0.5q45 0 67.5 -20.5t22.5 -61.5q0 -26 -7 -67t-16.5 -92t-17 -107t-7.5 -111q0 -43 7 -74t24 -70q-69 14 -98.5 57t-29.5 127v11t1 7zM246 619q-7 5 -18 15.5t-20.5 28.5t-10.5 46q62 37 106.5 74t75.5 74q24 -4 36 -16
t20.5 -31.5t18.5 -45t27.5 -55.5t49.5 -63q-13 -6 -26 -9.5t-32 -3.5q-31 0 -49.5 16t-30.5 58t-25 118l25 -38q-17 -29 -35.5 -56.5t-44.5 -54.5t-67 -57z" />
    <glyph glyph-name="atilde" unicode="&#xe3;" horiz-adv-x="635" 
d="M414 171q-19 -53 -54.5 -94.5t-79.5 -65t-89 -23.5q-67 0 -105 52t-38 144q0 75 22 142t60.5 118t89 80t107.5 29q20 0 39.5 -4t40.5 -12q-51 -14 -95 -47t-76 -79t-49.5 -100.5t-17.5 -113.5q0 -58 20 -89.5t57 -31.5q39 0 74.5 32t64.5 87.5t45 125t16 145.5
q0 27 -1.5 54.5t-5.5 47.5q10 1 18 1.5t18 0.5q45 0 67.5 -20.5t22.5 -61.5q0 -26 -7 -67t-16.5 -92t-17 -107t-7.5 -111q0 -43 7 -74t24 -70q-69 14 -98.5 57t-29.5 127v11t1 7zM229 675q-10 1 -18 5.5t-8 13.5q7 43 22 67t34 34t39 10q26 0 49.5 -7t45 -14.5t40.5 -7.5
q25 0 42.5 11.5t27.5 25.5q10 -1 17 -5.5t9 -13.5q-5 -43 -20.5 -67t-35 -34t-39.5 -10q-25 0 -49 7.5t-45 14.5t-40 7q-26 0 -43.5 -11.5t-27.5 -25.5z" />
    <glyph glyph-name="adieresis" unicode="&#xe4;" horiz-adv-x="635" 
d="M414 171q-19 -53 -54.5 -94.5t-79.5 -65t-89 -23.5q-67 0 -105 52t-38 144q0 75 22 142t60.5 118t89 80t107.5 29q20 0 39.5 -4t40.5 -12q-51 -14 -95 -47t-76 -79t-49.5 -100.5t-17.5 -113.5q0 -58 20 -89.5t57 -31.5q39 0 74.5 32t64.5 87.5t45 125t16 145.5
q0 27 -1.5 54.5t-5.5 47.5q10 1 18 1.5t18 0.5q45 0 67.5 -20.5t22.5 -61.5q0 -26 -7 -67t-16.5 -92t-17 -107t-7.5 -111q0 -43 7 -74t24 -70q-69 14 -98.5 57t-29.5 127v11t1 7zM319 664q-12 -4 -27 -7t-29 -3q-15 0 -29 5t-23.5 16t-9.5 31q0 17 5.5 34t11.5 34
q13 5 28 7.5t29 2.5t28.5 -4.5t23.5 -15.5t9 -32q0 -17 -5.5 -33.5zM509 664q-12 -4 -27 -7t-29 -3q-15 0 -29 5t-23.5 16t-9.5 31q0 17 5.5 34t11.5 34q13 5 28 7.5t29 2.5t28.5 -4.5t23.5 -15.5t9 -32q0 -17 -5.5 -33.5z" />
    <glyph glyph-name="aring" unicode="&#xe5;" horiz-adv-x="635" 
d="M414 171q-19 -53 -54.5 -94.5t-79.5 -65t-89 -23.5q-67 0 -105 52t-38 144q0 75 22 142t60.5 118t89 80t107.5 29q20 0 39.5 -4t40.5 -12q-51 -14 -95 -47t-76 -79t-49.5 -100.5t-17.5 -113.5q0 -58 20 -89.5t57 -31.5q39 0 74.5 32t64.5 87.5t45 125t16 145.5
q0 27 -1.5 54.5t-5.5 47.5q10 1 18 1.5t18 0.5q45 0 67.5 -20.5t22.5 -61.5q0 -26 -7 -67t-16.5 -92t-17 -107t-7.5 -111q0 -43 7 -74t24 -70q-69 14 -98.5 57t-29.5 127v11t1 7zM405 696q4 14 7.5 28t3.5 25q0 25 -14 32t-31 7q-22 0 -42 -5q-5 -14 -8.5 -28t-3.5 -25
q0 -25 14 -32t31 -7q22 0 43 5zM459 639q-22 -7 -49.5 -12t-54.5 -5q-26 0 -51 8t-41.5 28.5t-16.5 56.5q0 32 8.5 62.5t19.5 62.5q23 7 50.5 12t53.5 5q27 0 52 -8t41 -28t16 -57q0 -32 -8.5 -62.5t-19.5 -62.5z" />
    <glyph glyph-name="ae" unicode="&#xe6;" horiz-adv-x="890" 
d="M190 -15q-62 0 -102 50.5t-40 139.5q0 70 22 136.5t60 120.5t88.5 86t108.5 32q20 0 40 -4t40 -12q-51 -14 -94.5 -49.5t-76 -83.5t-50 -103t-17.5 -109q0 -52 20.5 -84t57.5 -32q38 0 73.5 32.5t64 88t45 124.5t16.5 141q0 28 -1 56t-5 50q6 1 19.5 1.5t22.5 0.5
q12 0 18 -6.5t7.5 -25.5t1.5 -55l-98 -320q-21 -52 -57 -91.5t-79 -61.5t-85 -22zM594 -15q-52 0 -92 27t-64.5 75t-29.5 112l85 281q39 46 92 71.5t115 25.5q74 0 113.5 -37.5t39.5 -107.5q0 -54 -29 -96t-79.5 -66t-116.5 -24q-31 0 -58.5 3.5t-52.5 9.5l3 37h34
q56 0 97.5 19t64.5 54.5t23 82.5q0 33 -16 51.5t-44 18.5q-37 0 -65.5 -28t-48.5 -73.5t-30 -97t-10 -97.5q0 -86 25.5 -130t76.5 -44q94 0 158 98q19 -3 28 -10.5t9 -19.5q-43 -68 -99 -101.5t-129 -33.5z" />
    <glyph glyph-name="ccedilla" unicode="&#xe7;" horiz-adv-x="545" 
d="M179 226q0 -82 26 -128t73 -46q38 0 79 25.5t71 72.5q17 -3 27 -9.5t10 -20.5q-30 -53 -68 -82.5t-77.5 -41t-71.5 -11.5q-48 0 -91 25t-70 77.5t-27 133.5q0 70 20 134t57.5 114t92 79t123.5 29q53 0 85.5 -18.5t48 -48t15.5 -61.5q0 -30 -13 -57t-36 -44.5t-54 -17.5
q-10 0 -22.5 2t-23.5 7q14 16 26 49t12 64q1 29 -11 49.5t-44 20.5q-36 0 -65 -27t-49.5 -70.5t-31.5 -95.5t-11 -103zM240 -40q60 -4 92.5 -33t32.5 -79q0 -56 -36 -101.5t-95 -62.5q-21 9 -32.5 28.5t-11.5 46.5q44 8 70 34.5t26 61.5q0 51 -55 75q0 9 1.5 15.5t7.5 14.5z
" />
    <glyph glyph-name="egrave" unicode="&#xe8;" horiz-adv-x="544" 
d="M248 -15q-55 0 -97.5 30.5t-66.5 86t-24 127.5q0 74 22 137.5t62 110.5t93.5 73.5t116.5 26.5q74 0 113.5 -37.5t39.5 -107.5q0 -54 -29 -96t-79.5 -66t-116.5 -24q-31 0 -58.5 3.5t-52.5 9.5l3 37h34q56 0 97.5 19t64.5 54.5t23 82.5q0 33 -16 51.5t-44 18.5
q-37 0 -65.5 -28t-48.5 -73.5t-30 -97t-10 -97.5q0 -86 25.5 -130t76.5 -44q94 0 158 98q37 -7 37 -30q-43 -68 -99 -101.5t-129 -33.5zM453 652q-2 -11 -12 -20.5t-23 -12.5q-21 26 -54 55t-73.5 54.5t-84.5 38.5q1 28 11 45.5t22 28.5t20 16q38 -16 76.5 -51t70 -76.5
t47.5 -77.5z" />
    <glyph glyph-name="eacute" unicode="&#xe9;" horiz-adv-x="544" 
d="M248 -15q-55 0 -97.5 30.5t-66.5 86t-24 127.5q0 74 22 137.5t62 110.5t93.5 73.5t116.5 26.5q74 0 113.5 -37.5t39.5 -107.5q0 -54 -29 -96t-79.5 -66t-116.5 -24q-31 0 -58.5 3.5t-52.5 9.5l3 37h34q56 0 97.5 19t64.5 54.5t23 82.5q0 33 -16 51.5t-44 18.5
q-37 0 -65.5 -28t-48.5 -73.5t-30 -97t-10 -97.5q0 -86 25.5 -130t76.5 -44q94 0 158 98q37 -7 37 -30q-43 -68 -99 -101.5t-129 -33.5zM206 652q16 36 47 77.5t70 76.5t77 51q8 -5 20 -16t22 -28.5t11 -45.5q-43 -13 -84 -38.5t-74 -54.5t-54 -55q-13 3 -23 12.5t-12 20.5z
" />
    <glyph glyph-name="ecircumflex" unicode="&#xea;" horiz-adv-x="544" 
d="M248 -15q-55 0 -97.5 30.5t-66.5 86t-24 127.5q0 74 22 137.5t62 110.5t93.5 73.5t116.5 26.5q74 0 113.5 -37.5t39.5 -107.5q0 -54 -29 -96t-79.5 -66t-116.5 -24q-31 0 -58.5 3.5t-52.5 9.5l3 37h34q56 0 97.5 19t64.5 54.5t23 82.5q0 33 -16 51.5t-44 18.5
q-37 0 -65.5 -28t-48.5 -73.5t-30 -97t-10 -97.5q0 -86 25.5 -130t76.5 -44q94 0 158 98q37 -7 37 -30q-43 -68 -99 -101.5t-129 -33.5zM209 619q-7 5 -18 15.5t-20.5 28.5t-10.5 46q62 37 106.5 74t75.5 74q24 -4 36 -16t20.5 -31.5t18.5 -45t27.5 -55.5t49.5 -63
q-13 -6 -26 -9.5t-32 -3.5q-31 0 -49.5 16t-30.5 58t-25 118l25 -38q-17 -29 -35.5 -56.5t-44.5 -54.5t-67 -57z" />
    <glyph glyph-name="edieresis" unicode="&#xeb;" horiz-adv-x="544" 
d="M248 -15q-55 0 -97.5 30.5t-66.5 86t-24 127.5q0 74 22 137.5t62 110.5t93.5 73.5t116.5 26.5q74 0 113.5 -37.5t39.5 -107.5q0 -54 -29 -96t-79.5 -66t-116.5 -24q-31 0 -58.5 3.5t-52.5 9.5l3 37h34q56 0 97.5 19t64.5 54.5t23 82.5q0 33 -16 51.5t-44 18.5
q-37 0 -65.5 -28t-48.5 -73.5t-30 -97t-10 -97.5q0 -86 25.5 -130t76.5 -44q94 0 158 98q37 -7 37 -30q-43 -68 -99 -101.5t-129 -33.5zM282 664q-13 -4 -27.5 -7t-28.5 -3q-15 0 -29 5t-23.5 16t-9.5 31q0 17 5.5 34t11.5 34q13 5 28 7.5t29 2.5t28.5 -4.5t23.5 -15.5
t9 -32q0 -17 -5.5 -33.5zM472 664q-13 -4 -27.5 -7t-28.5 -3q-15 0 -29 5t-23.5 16t-9.5 31q0 17 5.5 34t11.5 34q13 5 28 7.5t29 2.5t28.5 -4.5t23.5 -15.5t9 -32q0 -17 -5.5 -33.5z" />
    <glyph glyph-name="igrave" unicode="&#xec;" horiz-adv-x="321" 
d="M197 88q0 -36 3 -62.5t9 -40.5q-44 14 -68.5 37.5t-34 58t-9.5 83.5q0 44 8 98t16 110t8 107q0 26 -0.5 51.5t-5.5 50.5q8 1 17 1.5t16 0.5q49 0 70 -20t21 -66q0 -29 -12 -90t-24.5 -143t-13.5 -176zM312 652q-2 -11 -12 -20.5t-23 -12.5q-21 26 -54 55t-73.5 54.5
t-84.5 38.5q1 28 11 45.5t22 28.5t20 16q38 -16 76.5 -51t70 -76.5t47.5 -77.5z" />
    <glyph glyph-name="iacute" unicode="&#xed;" horiz-adv-x="321" 
d="M197 88q0 -36 3 -62.5t9 -40.5q-44 14 -68.5 37.5t-34 58t-9.5 83.5q0 44 8 98t16 110t8 107q0 26 -0.5 51.5t-5.5 50.5q8 1 17 1.5t16 0.5q49 0 70 -20t21 -66q0 -29 -12 -90t-24.5 -143t-13.5 -176zM65 652q16 36 47 77.5t70 76.5t77 51q8 -5 20 -16t22 -28.5t11 -45.5
q-43 -13 -84 -38.5t-74 -54.5t-54 -55q-13 3 -23 12.5t-12 20.5z" />
    <glyph glyph-name="icircumflex" unicode="&#xee;" horiz-adv-x="321" 
d="M197 88q0 -36 3 -62.5t9 -40.5q-44 14 -68.5 37.5t-34 58t-9.5 83.5q0 44 8 98t16 110t8 107q0 26 -0.5 51.5t-5.5 50.5q8 1 17 1.5t16 0.5q49 0 70 -20t21 -66q0 -29 -12 -90t-24.5 -143t-13.5 -176zM68 619q-7 5 -18 15.5t-20.5 28.5t-10.5 46q62 37 106.5 74t75.5 74
q24 -4 36 -16t20.5 -31.5t18.5 -45t27.5 -55.5t49.5 -63q-13 -6 -26 -9.5t-32 -3.5q-31 0 -49.5 16t-30.5 58t-25 118l25 -38q-17 -29 -35.5 -56.5t-44.5 -54.5t-67 -57z" />
    <glyph glyph-name="idieresis" unicode="&#xef;" horiz-adv-x="321" 
d="M197 88q0 -36 3 -62.5t9 -40.5q-44 14 -68.5 37.5t-34 58t-9.5 83.5q0 44 8 98t16 110t8 107q0 26 -0.5 51.5t-5.5 50.5q8 1 17 1.5t16 0.5q49 0 70 -20t21 -66q0 -29 -12 -90t-24.5 -143t-13.5 -176zM141 664q-12 -4 -27 -7t-29 -3q-15 0 -29 5t-23.5 16t-9.5 31
q0 17 5.5 34t11.5 34q13 5 28 7.5t29 2.5t28.5 -4.5t23.5 -15.5t9 -32q0 -17 -5.5 -33.5zM331 664q-12 -4 -27 -7t-29 -3q-15 0 -29 5t-23.5 16t-9.5 31q0 17 5.5 34t11.5 34q13 5 28 7.5t29 2.5t28.5 -4.5t23.5 -15.5t9 -32q0 -17 -5.5 -33.5z" />
    <glyph glyph-name="eth" unicode="&#xf0;" horiz-adv-x="606" 
d="M334 899q53 0 92.5 -25t68.5 -67t46.5 -95t26.5 -109t9 -109q0 -74 -11.5 -147.5t-35 -138.5t-59.5 -115t-86 -79t-113 -29q-55 0 -103 27t-78.5 82.5t-30.5 141.5q0 96 38.5 162.5t100 101t130.5 34.5q37 0 73.5 -10t70.5 -30q0 27 -2.5 69t-10 88.5t-22.5 87.5
t-39.5 67t-62.5 26q-43 0 -68 -29.5t-25 -86.5q-31 0 -51.5 20.5t-20.5 47.5q0 36 22.5 62t59.5 39.5t81 13.5zM296 50q42 0 74 32.5t54 88t33.5 125t14.5 142.5q-26 18 -59.5 27t-58.5 9q-49 0 -90 -30.5t-65.5 -86t-24.5 -130.5q0 -53 14 -93t41 -62t67 -22zM325 663
q36 5 76.5 25t80 43.5t75.5 41t64 17.5q23 0 35.5 -16t20.5 -39q-36 -4 -76.5 -24t-80 -44t-75 -42t-64.5 -18q-23 0 -35.5 16.5t-20.5 39.5z" />
    <glyph glyph-name="ntilde" unicode="&#xf1;" horiz-adv-x="626" 
d="M219 345q25 68 63 120.5t80.5 82t79.5 29.5q59 0 82.5 -38.5t23.5 -103.5q0 -50 -9.5 -107t-19.5 -116t-10 -117q0 -47 14 -69.5t43 -39.5q-10 -1 -19 -1h-18q-72 0 -103.5 25t-31.5 92q0 30 6 68t14 80t14 84t6 80q0 66 -40 66q-26 0 -59 -27t-63 -77.5t-49.5 -121
t-19.5 -156.5q0 -23 1 -47.5t5 -50.5q-11 -1 -19.5 -1.5t-15.5 -0.5q-47 0 -70.5 20t-23.5 66q0 22 6.5 62.5t14.5 91.5t14.5 105.5t6.5 104.5q0 39 -4 77t-13 73q67 -25 90.5 -69t23.5 -102q0 -19 -1.5 -39.5t-4.5 -41.5zM202 675q-10 1 -18 5.5t-8 13.5q7 43 22 67t34 34
t39 10q26 0 49.5 -7t45 -14.5t40.5 -7.5q25 0 42.5 11.5t27.5 25.5q10 -1 17 -5.5t9 -13.5q-5 -43 -20.5 -67t-35 -34t-39.5 -10q-25 0 -49 7.5t-45 14.5t-40 7q-26 0 -43.5 -11.5t-27.5 -25.5z" />
    <glyph glyph-name="ograve" unicode="&#xf2;" horiz-adv-x="617" 
d="M267 -15q-37 0 -73.5 15.5t-66.5 47.5t-48.5 81.5t-18.5 117.5q0 83 26 153t73 119.5t110 71.5q11 0 17 -6t6 -14q-33 -21 -65 -60t-49 -104l7 -2q29 65 67.5 102t79.5 52t75 15q44 0 77.5 -26t53 -74.5t19.5 -116.5q0 -64 -16.5 -129.5t-51 -120.5t-89.5 -88.5
t-133 -33.5zM281 50q40 0 71 26t53 69t33 94.5t11 101.5q0 89 -24 128t-63 39q-37 0 -70 -25.5t-59.5 -67t-41 -91t-14.5 -96.5t10.5 -87.5t33.5 -65.5t60 -25zM459 652q-2 -11 -12 -20.5t-23 -12.5q-21 26 -54 55t-73.5 54.5t-84.5 38.5q1 28 11 45.5t22 28.5t20 16
q38 -16 76.5 -51t70 -76.5t47.5 -77.5z" />
    <glyph glyph-name="oacute" unicode="&#xf3;" horiz-adv-x="617" 
d="M267 -15q-37 0 -73.5 15.5t-66.5 47.5t-48.5 81.5t-18.5 117.5q0 83 26 153t73 119.5t110 71.5q11 0 17 -6t6 -14q-33 -21 -65 -60t-49 -104l7 -2q29 65 67.5 102t79.5 52t75 15q44 0 77.5 -26t53 -74.5t19.5 -116.5q0 -64 -16.5 -129.5t-51 -120.5t-89.5 -88.5
t-133 -33.5zM281 50q40 0 71 26t53 69t33 94.5t11 101.5q0 89 -24 128t-63 39q-37 0 -70 -25.5t-59.5 -67t-41 -91t-14.5 -96.5t10.5 -87.5t33.5 -65.5t60 -25zM212 652q16 36 47 77.5t70 76.5t77 51q8 -5 20 -16t22 -28.5t11 -45.5q-43 -13 -84 -38.5t-74 -54.5t-54 -55
q-13 3 -23 12.5t-12 20.5z" />
    <glyph glyph-name="ocircumflex" unicode="&#xf4;" horiz-adv-x="617" 
d="M267 -15q-37 0 -73.5 15.5t-66.5 47.5t-48.5 81.5t-18.5 117.5q0 83 26 153t73 119.5t110 71.5q11 0 17 -6t6 -14q-33 -21 -65 -60t-49 -104l7 -2q29 65 67.5 102t79.5 52t75 15q44 0 77.5 -26t53 -74.5t19.5 -116.5q0 -64 -16.5 -129.5t-51 -120.5t-89.5 -88.5
t-133 -33.5zM281 50q40 0 71 26t53 69t33 94.5t11 101.5q0 89 -24 128t-63 39q-37 0 -70 -25.5t-59.5 -67t-41 -91t-14.5 -96.5t10.5 -87.5t33.5 -65.5t60 -25zM215 619q-7 5 -18 15.5t-20.5 28.5t-10.5 46q62 37 106.5 74t75.5 74q24 -4 36 -16t20.5 -31.5t18.5 -45
t27.5 -55.5t49.5 -63q-13 -6 -26 -9.5t-32 -3.5q-31 0 -49.5 16t-30.5 58t-25 118l25 -38q-17 -29 -35.5 -56.5t-44.5 -54.5t-67 -57z" />
    <glyph glyph-name="otilde" unicode="&#xf5;" horiz-adv-x="617" 
d="M267 -15q-37 0 -73.5 15.5t-66.5 47.5t-48.5 81.5t-18.5 117.5q0 83 26 153t73 119.5t110 71.5q11 0 17 -6t6 -14q-33 -21 -65 -60t-49 -104l7 -2q29 65 67.5 102t79.5 52t75 15q44 0 77.5 -26t53 -74.5t19.5 -116.5q0 -64 -16.5 -129.5t-51 -120.5t-89.5 -88.5
t-133 -33.5zM281 50q40 0 71 26t53 69t33 94.5t11 101.5q0 89 -24 128t-63 39q-37 0 -70 -25.5t-59.5 -67t-41 -91t-14.5 -96.5t10.5 -87.5t33.5 -65.5t60 -25zM198 675q-10 1 -18 5.5t-8 13.5q7 43 22 67t34 34t39 10q26 0 49.5 -7t45 -14.5t40.5 -7.5q25 0 42.5 11.5
t27.5 25.5q10 -1 17 -5.5t9 -13.5q-5 -43 -20.5 -67t-35 -34t-39.5 -10q-25 0 -49 7.5t-45 14.5t-40 7q-26 0 -43.5 -11.5t-27.5 -25.5z" />
    <glyph glyph-name="odieresis" unicode="&#xf6;" horiz-adv-x="617" 
d="M267 -15q-37 0 -73.5 15.5t-66.5 47.5t-48.5 81.5t-18.5 117.5q0 83 26 153t73 119.5t110 71.5q11 0 17 -6t6 -14q-33 -21 -65 -60t-49 -104l7 -2q29 65 67.5 102t79.5 52t75 15q44 0 77.5 -26t53 -74.5t19.5 -116.5q0 -64 -16.5 -129.5t-51 -120.5t-89.5 -88.5
t-133 -33.5zM281 50q40 0 71 26t53 69t33 94.5t11 101.5q0 89 -24 128t-63 39q-37 0 -70 -25.5t-59.5 -67t-41 -91t-14.5 -96.5t10.5 -87.5t33.5 -65.5t60 -25zM288 664q-12 -4 -27 -7t-29 -3q-15 0 -29 5t-23.5 16t-9.5 31q0 17 5.5 34t11.5 34q13 5 28 7.5t29 2.5
t28.5 -4.5t23.5 -15.5t9 -32q0 -17 -5.5 -33.5zM478 664q-12 -4 -27 -7t-29 -3q-15 0 -29 5t-23.5 16t-9.5 31q0 17 5.5 34t11.5 34q13 5 28 7.5t29 2.5t28.5 -4.5t23.5 -15.5t9 -32q0 -17 -5.5 -33.5z" />
    <glyph glyph-name="divide" unicode="&#xf7;" horiz-adv-x="620" 
d="M459 414q57 0 81.5 -18.5t24.5 -63.5q0 -7 -0.5 -14.5t-2.5 -15.5q-33 5 -73 7t-86 2q-57 0 -114 -6t-128 -6q-57 0 -81.5 19t-24.5 63q0 7 1 14.5t2 15.5q34 -5 74 -7t85 -2q57 0 114 6t128 6zM369 96q-14 -4 -31 -7t-33 -3t-31.5 4.5t-26 17t-10.5 34.5q0 20 6 39
l12 38q15 5 31.5 7.5t32.5 2.5q17 0 32 -4.5t25.5 -17t10.5 -34.5q0 -20 -6 -39zM369 496q-14 -4 -31 -7t-33 -3t-31.5 4.5t-26 17t-10.5 34.5q0 20 6 39l12 38q15 5 31.5 7.5t32.5 2.5q17 0 32 -4.5t25.5 -17t10.5 -34.5q0 -20 -6 -39z" />
    <glyph glyph-name="oslash" unicode="&#xf8;" horiz-adv-x="617" 
d="M267 -15q-36 0 -73 15.5t-67 47.5t-48.5 81.5t-18.5 117.5q0 83 26 153t73 119.5t110 71.5q11 0 17 -6t6 -14q-33 -21 -65 -60t-49 -104l7 -2q29 65 67.5 102t79.5 52t75 15q44 0 77.5 -26t53 -74.5t19.5 -116.5q0 -64 -16.5 -129.5t-51 -120.5t-89.5 -88.5t-133 -33.5z
M281 50q40 0 71.5 26t53 69t32.5 94.5t11 101.5q0 89 -24 128t-63 39q-37 0 -70 -25.5t-59.5 -67t-41 -91t-14.5 -96.5t10.5 -87.5t33.5 -65.5t60 -25zM430 720l7 -5t16.5 -15t16.5 -25.5t7 -36.5q0 -16 -12.5 -55.5t-34.5 -94.5l-48 -120t-53 -133t-51 -134t-41 -122.5
t-23 -98.5l-7.5 1.5t-18.5 6t-22 13t-19 22.5t-8 34q0 19 14.5 60.5t38 99t53 124t59.5 136t56.5 134.5t45 119t24.5 90z" />
    <glyph glyph-name="ugrave" unicode="&#xf9;" horiz-adv-x="606" 
d="M512 -21q-46 17 -71.5 43.5t-35 60t-9.5 73.5q0 16 1.5 33t3.5 35l-8 2q-23 -66 -57 -117.5t-71 -80t-69 -28.5q-45 0 -70 22.5t-35 60t-10 83.5q0 53 8.5 103.5t16.5 98.5t8 94q0 28 -3 55t-11 55q42 0 72.5 -8t48 -30.5t17.5 -68.5q0 -36 -10.5 -87t-21 -105
t-10.5 -102q0 -37 10.5 -55.5t33.5 -18.5q22 0 46.5 23.5t47 64t40 92t27.5 108.5t10 114q-1 19 -2.5 39.5t-5.5 38.5q9 1 18.5 1.5t16.5 0.5q26 0 46.5 -7t33.5 -26.5t13 -55.5q0 -19 -5.5 -56t-13.5 -84.5t-13.5 -98t-5.5 -97.5q0 -46 4 -90t15 -85zM400 652
q-2 -11 -12 -20.5t-23 -12.5q-21 26 -54 55t-73.5 54.5t-84.5 38.5q1 28 11 45.5t22 28.5t20 16q38 -16 76.5 -51t70 -76.5t47.5 -77.5z" />
    <glyph glyph-name="uacute" unicode="&#xfa;" horiz-adv-x="606" 
d="M512 -21q-46 17 -71.5 43.5t-35 60t-9.5 73.5q0 16 1.5 33t3.5 35l-8 2q-23 -66 -57 -117.5t-71 -80t-69 -28.5q-45 0 -70 22.5t-35 60t-10 83.5q0 53 8.5 103.5t16.5 98.5t8 94q0 28 -3 55t-11 55q42 0 72.5 -8t48 -30.5t17.5 -68.5q0 -36 -10.5 -87t-21 -105
t-10.5 -102q0 -37 10.5 -55.5t33.5 -18.5q22 0 46.5 23.5t47 64t40 92t27.5 108.5t10 114q-1 19 -2.5 39.5t-5.5 38.5q9 1 18.5 1.5t16.5 0.5q26 0 46.5 -7t33.5 -26.5t13 -55.5q0 -19 -5.5 -56t-13.5 -84.5t-13.5 -98t-5.5 -97.5q0 -46 4 -90t15 -85zM207 652
q16 36 47 77.5t70 76.5t77 51q8 -5 20 -16t22 -28.5t11 -45.5q-43 -13 -84 -38.5t-74 -54.5t-54 -55q-13 3 -23 12.5t-12 20.5z" />
    <glyph glyph-name="ucircumflex" unicode="&#xfb;" horiz-adv-x="606" 
d="M512 -21q-46 17 -71.5 43.5t-35 60t-9.5 73.5q0 16 1.5 33t3.5 35l-8 2q-23 -66 -57 -117.5t-71 -80t-69 -28.5q-45 0 -70 22.5t-35 60t-10 83.5q0 53 8.5 103.5t16.5 98.5t8 94q0 28 -3 55t-11 55q42 0 72.5 -8t48 -30.5t17.5 -68.5q0 -36 -10.5 -87t-21 -105
t-10.5 -102q0 -37 10.5 -55.5t33.5 -18.5q22 0 46.5 23.5t47 64t40 92t27.5 108.5t10 114q-1 19 -2.5 39.5t-5.5 38.5q9 1 18.5 1.5t16.5 0.5q26 0 46.5 -7t33.5 -26.5t13 -55.5q0 -19 -5.5 -56t-13.5 -84.5t-13.5 -98t-5.5 -97.5q0 -46 4 -90t15 -85zM210 619
q-7 5 -18 15.5t-20.5 28.5t-10.5 46q62 37 106.5 74t75.5 74q24 -4 36 -16t20.5 -31.5t18.5 -45t27.5 -55.5t49.5 -63q-13 -6 -26 -9.5t-32 -3.5q-31 0 -49.5 16t-30.5 58t-25 118l25 -38q-17 -29 -35.5 -56.5t-44.5 -54.5t-67 -57z" />
    <glyph glyph-name="udieresis" unicode="&#xfc;" horiz-adv-x="606" 
d="M512 -21q-46 17 -71.5 43.5t-35 60t-9.5 73.5q0 16 1.5 33t3.5 35l-8 2q-23 -66 -57 -117.5t-71 -80t-69 -28.5q-45 0 -70 22.5t-35 60t-10 83.5q0 53 8.5 103.5t16.5 98.5t8 94q0 28 -3 55t-11 55q42 0 72.5 -8t48 -30.5t17.5 -68.5q0 -36 -10.5 -87t-21 -105
t-10.5 -102q0 -37 10.5 -55.5t33.5 -18.5q22 0 46.5 23.5t47 64t40 92t27.5 108.5t10 114q-1 19 -2.5 39.5t-5.5 38.5q9 1 18.5 1.5t16.5 0.5q26 0 46.5 -7t33.5 -26.5t13 -55.5q0 -19 -5.5 -56t-13.5 -84.5t-13.5 -98t-5.5 -97.5q0 -46 4 -90t15 -85zM283 664
q-12 -4 -27 -7t-29 -3q-15 0 -29 5t-23.5 16t-9.5 31q0 17 5.5 34t11.5 34q13 5 28 7.5t29 2.5t28.5 -4.5t23.5 -15.5t9 -32q0 -17 -5.5 -33.5zM473 664q-12 -4 -27 -7t-29 -3q-15 0 -29 5t-23.5 16t-9.5 31q0 17 5.5 34t11.5 34q13 5 28 7.5t29 2.5t28.5 -4.5t23.5 -15.5
t9 -32q0 -17 -5.5 -33.5z" />
    <glyph glyph-name="yacute" unicode="&#xfd;" horiz-adv-x="516" 
d="M96 -228q0 34 18 83.5t48 110t65.5 127.5t71.5 135.5t66 135.5t48 126.5t18 108.5q36 -22 52 -43.5t16 -47.5q0 -33 -21 -79t-54.5 -103.5t-70.5 -124t-70.5 -140.5t-54.5 -153.5t-21 -163.5q0 -20 1.5 -42t5.5 -44q-38 5 -61.5 17t-35.5 28t-16.5 34.5t-4.5 34.5z
M175 -48q-7 58 -17 126t-22.5 138t-28 136t-33 120t-38.5 88q17 12 39 19t41 7q33 0 52.5 -29.5t30.5 -79.5t17 -113t12 -132t16 -134zM175 652q16 36 47 77.5t70 76.5t77 51q8 -5 20 -16t22 -28.5t11 -45.5q-43 -13 -84 -38.5t-74 -54.5t-54 -55q-13 3 -23 12.5t-12 20.5z
" />
    <glyph glyph-name="thorn" unicode="&#xfe;" horiz-adv-x="648" 
d="M214 362q30 62 69.5 104.5t82 64.5t79.5 22q39 0 71.5 -21t52 -63.5t19.5 -108.5q0 -75 -21.5 -140.5t-59 -114.5t-86 -77t-104.5 -28q-40 0 -81 16q58 12 101 49.5t72 88t44 104.5t15 99q0 47 -19 77.5t-55 30.5q-51 0 -93 -43.5t-72 -122t-45.5 -182.5t-15.5 -225
q0 -52 4.5 -107.5t15.5 -113.5q-39 2 -71 11t-50.5 33.5t-18.5 71.5q0 21 7 80t18 144.5t23 187t23 209.5t18 211t7 190q0 41 -3 71.5t-9 45.5q43 -14 67.5 -37t34.5 -57t10 -81q0 -40 -5 -93.5t-13.5 -125t-18.5 -167.5z" />
    <glyph glyph-name="ydieresis" unicode="&#xff;" horiz-adv-x="516" 
d="M96 -228q0 34 18 83.5t48 110t65.5 127.5t71.5 135.5t66 135.5t48 126.5t18 108.5q36 -22 52 -43.5t16 -47.5q0 -33 -21 -79t-54.5 -103.5t-70.5 -124t-70.5 -140.5t-54.5 -153.5t-21 -163.5q0 -20 1.5 -42t5.5 -44q-38 5 -61.5 17t-35.5 28t-16.5 34.5t-4.5 34.5z
M175 -48q-7 58 -17 126t-22.5 138t-28 136t-33 120t-38.5 88q17 12 39 19t41 7q33 0 52.5 -29.5t30.5 -79.5t17 -113t12 -132t16 -134zM251 664q-12 -4 -27 -7t-29 -3q-15 0 -29 5t-23.5 16t-9.5 31q0 17 5.5 34t11.5 34q13 5 28 7.5t29 2.5t28.5 -4.5t23.5 -15.5t9 -32
q0 -17 -5.5 -33.5zM441 664q-12 -4 -27 -7t-29 -3q-15 0 -29 5t-23.5 16t-9.5 31q0 17 5.5 34t11.5 34q13 5 28 7.5t29 2.5t28.5 -4.5t23.5 -15.5t9 -32q0 -17 -5.5 -33.5z" />
    <glyph glyph-name="Amacron" unicode="&#x100;" horiz-adv-x="645" 
d="M355 708q-19 -51 -47 -117.5t-60.5 -144t-64.5 -159.5t-59.5 -163.5t-45.5 -156.5q-35 14 -54 27t-26.5 25.5t-7.5 24.5q0 13 17.5 54.5t45.5 103.5t63 136t70.5 152t66.5 152t52 134zM468 64q-7 21 -17 64.5t-22 102t-26 124t-29 131t-30.5 123t-30.5 99.5
q-13 35 -28.5 53.5t-26.5 31.5q17 6 33 9t29 3q40 0 65 -21.5t41.5 -62t29.5 -98t29 -130.5q21 -97 39.5 -189t42.5 -168t58 -124q-22 -12 -45 -20t-39 -8q-33 0 -47 20.5t-26 59.5zM167 306h269q-3 -28 -18.5 -43.5t-37 -21t-43.5 -6.5l-195 -7zM298 937q-41 0 -52.5 23
t-11.5 63q0 6 1 10t2 10q25 -6 47.5 -8t45.5 -2q35 0 68.5 6.5t74.5 6.5t52.5 -23t11.5 -63q0 -5 -0.5 -9.5t-2.5 -10.5q-25 6 -47 8t-46 2q-35 0 -68 -6.5t-75 -6.5z" />
    <glyph glyph-name="amacron" unicode="&#x101;" horiz-adv-x="635" 
d="M414 171q-19 -53 -54.5 -94.5t-79.5 -65t-89 -23.5q-67 0 -105 52t-38 144q0 75 22 142t60.5 118t89 80t107.5 29q20 0 39.5 -4t40.5 -12q-51 -14 -95 -47t-76 -79t-49.5 -100.5t-17.5 -113.5q0 -58 20 -89.5t57 -31.5q39 0 74.5 32t64.5 87.5t45 125t16 145.5
q0 27 -1.5 54.5t-5.5 47.5q10 1 18 1.5t18 0.5q45 0 67.5 -20.5t22.5 -61.5q0 -26 -7 -67t-16.5 -92t-17 -107t-7.5 -111q0 -43 7 -74t24 -70q-69 14 -98.5 57t-29.5 127v11t1 7zM279 689q-41 0 -52.5 23t-11.5 63q0 6 1 10t2 10q25 -6 47.5 -8t45.5 -2q35 0 68.5 6.5
t74.5 6.5t52.5 -23t11.5 -63q0 -5 -0.5 -9.5t-2.5 -10.5q-25 6 -47 8t-46 2q-35 0 -68 -6.5t-75 -6.5z" />
    <glyph glyph-name="Abreve" unicode="&#x102;" horiz-adv-x="645" 
d="M355 708q-19 -51 -47 -117.5t-60.5 -144t-64.5 -159.5t-59.5 -163.5t-45.5 -156.5q-35 14 -54 27t-26.5 25.5t-7.5 24.5q0 13 17.5 54.5t45.5 103.5t63 136t70.5 152t66.5 152t52 134zM468 64q-7 21 -17 64.5t-22 102t-26 124t-29 131t-30.5 123t-30.5 99.5
q-13 35 -28.5 53.5t-26.5 31.5q17 6 33 9t29 3q40 0 65 -21.5t41.5 -62t29.5 -98t29 -130.5q21 -97 39.5 -189t42.5 -168t58 -124q-22 -12 -45 -20t-39 -8q-33 0 -47 20.5t-26 59.5zM167 306h269q-3 -28 -18.5 -43.5t-37 -21t-43.5 -6.5l-195 -7zM243 1039q7 6 15.5 10
t17.5 4q16 0 24 -13q6 -31 23 -49t44 -18q23 0 45 12t38 33.5t18 49.5q15 0 29 -10t22 -25t8 -31q-10 -37 -32.5 -61t-52.5 -36.5t-65 -12.5q-33 0 -64 14.5t-50.5 46.5t-19.5 86z" />
    <glyph glyph-name="abreve" unicode="&#x103;" horiz-adv-x="635" 
d="M414 171q-19 -53 -54.5 -94.5t-79.5 -65t-89 -23.5q-67 0 -105 52t-38 144q0 75 22 142t60.5 118t89 80t107.5 29q20 0 39.5 -4t40.5 -12q-51 -14 -95 -47t-76 -79t-49.5 -100.5t-17.5 -113.5q0 -58 20 -89.5t57 -31.5q39 0 74.5 32t64.5 87.5t45 125t16 145.5
q0 27 -1.5 54.5t-5.5 47.5q10 1 18 1.5t18 0.5q45 0 67.5 -20.5t22.5 -61.5q0 -26 -7 -67t-16.5 -92t-17 -107t-7.5 -111q0 -43 7 -74t24 -70q-69 14 -98.5 57t-29.5 127v11t1 7zM224 791q7 6 15.5 10t17.5 4q16 0 24 -13q6 -31 23 -49t44 -18q23 0 45 12t38 33.5t18 49.5
q15 0 29 -10t22 -25t8 -31q-10 -37 -32.5 -61t-52.5 -36.5t-65 -12.5q-33 0 -64 14.5t-50.5 46.5t-19.5 86z" />
    <glyph glyph-name="Aogonek" unicode="&#x104;" horiz-adv-x="645" 
d="M355 708q-19 -51 -47 -117.5t-60.5 -144t-64.5 -159.5t-59.5 -163.5t-45.5 -156.5q-35 14 -54 27t-26.5 25.5t-7.5 24.5q0 13 17.5 54.5t45.5 103.5t63 136t70.5 152t66.5 152t52 134zM468 64q-7 21 -17 64.5t-22 102t-26 124t-29 131t-30.5 123t-30.5 99.5
q-13 35 -28.5 53.5t-26.5 31.5q17 6 33 9t29 3q40 0 65 -21.5t41.5 -62t29.5 -98t29 -130.5q21 -97 39.5 -189t42.5 -168t58 -124q-22 -12 -45 -20t-39 -8q-33 0 -47 20.5t-26 59.5zM167 306h269q-3 -28 -18.5 -43.5t-37 -21t-43.5 -6.5l-195 -7zM669 -189q30 -9 30 -36
q-35 -39 -76 -59.5t-85 -20.5q-55 0 -88.5 34.5t-33.5 91.5q0 65 46 119.5t134 91.5l28 -20q-60 -41 -91.5 -84.5t-31.5 -85.5q0 -34 19 -54.5t50 -20.5q25 0 52 12t47 32z" />
    <glyph glyph-name="aogonek" unicode="&#x105;" horiz-adv-x="635" 
d="M414 171q-19 -53 -54.5 -94.5t-79.5 -65t-89 -23.5q-67 0 -105 52t-38 144q0 75 22 142t60.5 118t89 80t107.5 29q20 0 39.5 -4t40.5 -12q-51 -14 -95 -47t-76 -79t-49.5 -100.5t-17.5 -113.5q0 -58 20 -89.5t57 -31.5q39 0 74.5 32t64.5 87.5t45 125t16 145.5
q0 27 -1.5 54.5t-5.5 47.5q10 1 18 1.5t18 0.5q45 0 67.5 -20.5t22.5 -61.5q0 -26 -7 -67t-16.5 -92t-17 -107t-7.5 -111q0 -43 7 -74t24 -70q-69 14 -98.5 57t-29.5 127v11t1 7zM592 -234q30 -9 30 -36q-35 -39 -76 -59.5t-85 -20.5q-55 0 -88.5 34.5t-33.5 91.5
q0 65 46 119.5t134 91.5l28 -20q-60 -41 -91.5 -84.5t-31.5 -85.5q0 -34 19 -54.5t50 -20.5q25 0 52 12t47 32z" />
    <glyph glyph-name="Cacute" unicode="&#x106;" horiz-adv-x="687" 
d="M574 198q15 -1 27.5 -10t12.5 -20q-47 -91 -122.5 -142t-164.5 -51q-83 0 -144 44.5t-94.5 125.5t-33.5 192q0 104 27.5 190t78 148.5t119.5 96.5t153 34q96 0 152.5 -49t56.5 -133q0 -44 -17 -78t-46.5 -53.5t-67.5 -19.5q-9 0 -20.5 2t-26.5 6q16 19 29 45.5t20 56
t7 56.5q0 50 -25 77t-70 27q-51 0 -95.5 -32t-78.5 -89t-53 -131t-19 -159q0 -86 22.5 -149.5t63.5 -97.5t97 -34q61 0 117.5 39.5t94.5 107.5zM280 900q16 36 47 77.5t70 76.5t77 51q8 -5 20 -16t22 -28.5t11 -45.5q-43 -13 -84 -38.5t-74 -54.5t-54 -55q-13 3 -23 12.5
t-12 20.5z" />
    <glyph glyph-name="cacute" unicode="&#x107;" horiz-adv-x="545" 
d="M179 226q0 -82 26 -128t73 -46q38 0 79 25.5t71 72.5q17 -3 27 -9.5t10 -20.5q-30 -53 -68 -82.5t-77.5 -41t-71.5 -11.5q-48 0 -91 25t-70 77.5t-27 133.5q0 70 20 134t57.5 114t92 79t123.5 29q53 0 85.5 -18.5t48 -48t15.5 -61.5q0 -30 -13 -57t-36 -44.5t-54 -17.5
q-10 0 -22.5 2t-23.5 7q14 16 26 49t12 64q1 29 -11 49.5t-44 20.5q-36 0 -65 -27t-49.5 -70.5t-31.5 -95.5t-11 -103zM207 652q16 36 47 77.5t70 76.5t77 51q8 -5 20 -16t22 -28.5t11 -45.5q-43 -13 -84 -38.5t-74 -54.5t-54 -55q-13 3 -23 12.5t-12 20.5z" />
    <glyph glyph-name="Ccircumflex" unicode="&#x108;" horiz-adv-x="687" 
d="M574 198q15 -1 27.5 -10t12.5 -20q-47 -91 -122.5 -142t-164.5 -51q-83 0 -144 44.5t-94.5 125.5t-33.5 192q0 104 27.5 190t78 148.5t119.5 96.5t153 34q96 0 152.5 -49t56.5 -133q0 -44 -17 -78t-46.5 -53.5t-67.5 -19.5q-9 0 -20.5 2t-26.5 6q16 19 29 45.5t20 56
t7 56.5q0 50 -25 77t-70 27q-51 0 -95.5 -32t-78.5 -89t-53 -131t-19 -159q0 -86 22.5 -149.5t63.5 -97.5t97 -34q61 0 117.5 39.5t94.5 107.5zM283 867q-7 5 -18 15.5t-20.5 28.5t-10.5 46q62 37 106.5 74t75.5 74q24 -4 36 -16t20.5 -31.5t18.5 -45t27.5 -55.5t49.5 -63
q-13 -6 -26 -9.5t-32 -3.5q-31 0 -49.5 16t-30.5 58t-25 118l25 -38q-17 -29 -35.5 -56.5t-44.5 -54.5t-67 -57z" />
    <glyph glyph-name="ccircumflex" unicode="&#x109;" horiz-adv-x="545" 
d="M179 226q0 -82 26 -128t73 -46q38 0 79 25.5t71 72.5q17 -3 27 -9.5t10 -20.5q-30 -53 -68 -82.5t-77.5 -41t-71.5 -11.5q-48 0 -91 25t-70 77.5t-27 133.5q0 70 20 134t57.5 114t92 79t123.5 29q53 0 85.5 -18.5t48 -48t15.5 -61.5q0 -30 -13 -57t-36 -44.5t-54 -17.5
q-10 0 -22.5 2t-23.5 7q14 16 26 49t12 64q1 29 -11 49.5t-44 20.5q-36 0 -65 -27t-49.5 -70.5t-31.5 -95.5t-11 -103zM210 619q-7 5 -18 15.5t-20.5 28.5t-10.5 46q62 37 106.5 74t75.5 74q24 -4 36 -16t20.5 -31.5t18.5 -45t27.5 -55.5t49.5 -63q-13 -6 -26 -9.5t-32 -3.5
q-31 0 -49.5 16t-30.5 58t-25 118l25 -38q-17 -29 -35.5 -56.5t-44.5 -54.5t-67 -57z" />
    <glyph glyph-name="Cdotaccent" unicode="&#x10a;" horiz-adv-x="687" 
d="M574 198q15 -1 27.5 -10t12.5 -20q-47 -91 -122.5 -142t-164.5 -51q-83 0 -144 44.5t-94.5 125.5t-33.5 192q0 104 27.5 190t78 148.5t119.5 96.5t153 34q96 0 152.5 -49t56.5 -133q0 -44 -17 -78t-46.5 -53.5t-67.5 -19.5q-9 0 -20.5 2t-26.5 6q16 19 29 45.5t20 56
t7 56.5q0 50 -25 77t-70 27q-51 0 -95.5 -32t-78.5 -89t-53 -131t-19 -159q0 -86 22.5 -149.5t63.5 -97.5t97 -34q61 0 117.5 39.5t94.5 107.5zM456 909q-13 -4 -28.5 -7t-30.5 -3t-30 5t-25 17t-10 33q0 18 6 35.5t12 36.5q13 5 29 7.5t30 2.5q16 0 30.5 -5t24.5 -16.5
t10 -33.5q0 -18 -6 -35.5t-12 -36.5z" />
    <glyph glyph-name="cdotaccent" unicode="&#x10b;" horiz-adv-x="545" 
d="M179 226q0 -82 26 -128t73 -46q38 0 79 25.5t71 72.5q17 -3 27 -9.5t10 -20.5q-30 -53 -68 -82.5t-77.5 -41t-71.5 -11.5q-48 0 -91 25t-70 77.5t-27 133.5q0 70 20 134t57.5 114t92 79t123.5 29q53 0 85.5 -18.5t48 -48t15.5 -61.5q0 -30 -13 -57t-36 -44.5t-54 -17.5
q-10 0 -22.5 2t-23.5 7q14 16 26 49t12 64q1 29 -11 49.5t-44 20.5q-36 0 -65 -27t-49.5 -70.5t-31.5 -95.5t-11 -103zM383 661q-13 -4 -28.5 -7t-30.5 -3t-30 5t-25 17t-10 33q0 18 6 35.5t12 36.5q13 5 29 7.5t30 2.5q16 0 30.5 -5t24.5 -16.5t10 -33.5q0 -18 -6 -35.5
t-12 -36.5z" />
    <glyph glyph-name="Ccaron" unicode="&#x10c;" horiz-adv-x="687" 
d="M574 198q15 -1 27.5 -10t12.5 -20q-47 -91 -122.5 -142t-164.5 -51q-83 0 -144 44.5t-94.5 125.5t-33.5 192q0 104 27.5 190t78 148.5t119.5 96.5t153 34q96 0 152.5 -49t56.5 -133q0 -44 -17 -78t-46.5 -53.5t-67.5 -19.5q-9 0 -20.5 2t-26.5 6q16 19 29 45.5t20 56
t7 56.5q0 50 -25 77t-70 27q-51 0 -95.5 -32t-78.5 -89t-53 -131t-19 -159q0 -86 22.5 -149.5t63.5 -97.5t97 -34q61 0 117.5 39.5t94.5 107.5zM523 1105q7 -5 18 -15.5t20 -28.5t10 -46q-61 -38 -105.5 -74t-76.5 -74q-23 3 -35.5 15t-20.5 32t-18 45.5t-28 55.5t-50 62
q14 7 27 10t31 3q31 0 49.5 -16t31.5 -57.5t25 -118.5l-26 38q17 30 35.5 57t45.5 54t67 58z" />
    <glyph glyph-name="ccaron" unicode="&#x10d;" horiz-adv-x="545" 
d="M179 226q0 -82 26 -128t73 -46q38 0 79 25.5t71 72.5q17 -3 27 -9.5t10 -20.5q-30 -53 -68 -82.5t-77.5 -41t-71.5 -11.5q-48 0 -91 25t-70 77.5t-27 133.5q0 70 20 134t57.5 114t92 79t123.5 29q53 0 85.5 -18.5t48 -48t15.5 -61.5q0 -30 -13 -57t-36 -44.5t-54 -17.5
q-10 0 -22.5 2t-23.5 7q14 16 26 49t12 64q1 29 -11 49.5t-44 20.5q-36 0 -65 -27t-49.5 -70.5t-31.5 -95.5t-11 -103zM450 857q7 -5 18 -15.5t20 -28.5t10 -46q-61 -38 -105.5 -74t-76.5 -74q-23 3 -35.5 15t-20.5 32t-18 45.5t-28 55.5t-50 62q14 7 27 10t31 3
q31 0 49.5 -16t31.5 -57.5t25 -118.5l-26 38q17 30 35.5 57t45.5 54t67 58z" />
    <glyph glyph-name="Dcaron" unicode="&#x10e;" horiz-adv-x="760" 
d="M251 759q49 23 88 33t82 10q87 0 153 -47.5t103 -132.5t37 -198q0 -98 -28 -178.5t-79.5 -139t-122 -90t-156.5 -31.5q-42 0 -88 9t-86.5 24.5t-68.5 34.5q12 59 21.5 127.5t18 140.5t14.5 143t9 136t3 118q0 35 -1 58.5t-4 40.5t-9 30q47 -14 74.5 -35t39.5 -53zM211 72
q19 -12 43.5 -17t50.5 -5q90 0 155.5 46t100.5 130.5t35 201.5q0 90 -26.5 157.5t-74.5 105.5t-113 38q-30 0 -62.5 -8t-55.5 -21q0 -37 -5.5 -99.5t-13 -136.5t-15.5 -148.5t-13.5 -138.5t-5.5 -105zM537 1105q7 -5 18 -15.5t20 -28.5t10 -46q-61 -38 -105.5 -74t-76.5 -74
q-23 3 -35.5 15t-20.5 32t-18 45.5t-28 55.5t-50 62q14 7 27 10t31 3q31 0 49.5 -16t31.5 -57.5t25 -118.5l-26 38q17 30 35.5 57t45.5 54t67 58z" />
    <glyph glyph-name="dcaron" unicode="&#x10f;" horiz-adv-x="616" 
d="M408 163q-21 -55 -56 -94t-76.5 -59.5t-84.5 -20.5q-39 0 -72 21t-53 65.5t-20 112.5q0 82 23 151t64 119t95.5 77.5t118.5 27.5q20 0 40.5 -3.5t38.5 -9.5q-70 -14 -119.5 -52t-80 -89t-45 -105.5t-14.5 -101.5q0 -34 8.5 -62.5t27 -46t48.5 -17.5q41 0 73 31t55.5 84
t40 120t27 139.5t16.5 142.5t8.5 129.5t2.5 99.5q0 39 -1.5 73.5t-6.5 61.5q41 -11 65 -40t35.5 -71t11.5 -96q0 -60 -10 -132.5t-23.5 -153.5t-23.5 -167.5t-10 -174.5q0 -71 9 -140q-42 14 -65.5 40.5t-32 62.5t-9.5 77zM652 978q15 8 37 14.5t37 6.5q21 0 36.5 -14.5
t15.5 -56.5q0 -46 -28.5 -94.5t-85.5 -93.5l-28 26q22 28 32.5 59t10.5 62q0 26 -8 49t-19 42z" />
    <glyph glyph-name="Dcroat" unicode="&#x110;" horiz-adv-x="760" 
d="M251 759q49 23 88 33t82 10q87 0 153 -47.5t103 -132.5t37 -198q0 -98 -28 -178.5t-79.5 -139t-122 -90t-156.5 -31.5q-42 0 -88 9t-86.5 24.5t-68.5 34.5q12 59 21.5 127.5t18 140.5t14.5 143t9 136t3 118q0 35 -1 58.5t-4 40.5t-9 30q47 -14 74.5 -35t39.5 -53zM211 72
q19 -12 43.5 -17t50.5 -5q90 0 155.5 46t100.5 130.5t35 201.5q0 90 -26.5 157.5t-74.5 105.5t-113 38q-30 0 -62.5 -8t-55.5 -21q0 -37 -5.5 -99.5t-13 -136.5t-15.5 -148.5t-13.5 -138.5t-5.5 -105zM367 372q-59 0 -107.5 5.5t-95.5 5.5q-25 0 -51.5 -0.5t-48.5 -2
t-34 -5.5q0 5 -0.5 9.5t-0.5 8.5q0 23 6 41.5t25 29.5t56 11q59 0 107.5 -5.5t95.5 -5.5q26 0 52 0.5t48 2.5t34 5q0 -5 0.5 -9.5t0.5 -8.5q0 -23 -6.5 -41.5t-24.5 -29.5t-56 -11z" />
    <glyph glyph-name="dcroat" unicode="&#x111;" horiz-adv-x="616" 
d="M408 163q-21 -55 -56 -94t-76.5 -59.5t-84.5 -20.5q-39 0 -72 21t-53 65.5t-20 112.5q0 82 23 151t64 119t95.5 77.5t118.5 27.5q20 0 40.5 -3.5t38.5 -9.5q-70 -14 -119.5 -52t-80 -89t-45 -105.5t-14.5 -101.5q0 -34 8.5 -62.5t27 -46t48.5 -17.5q41 0 73 31t55.5 84
t40 120t27 139.5t16.5 142t8.5 129.5t2.5 100q0 39 -1.5 73.5t-6.5 61.5q41 -11 65 -40t35.5 -71t11.5 -96q0 -60 -10 -132.5t-23.5 -153.5t-23.5 -167.5t-10 -174.5q0 -71 9 -140q-42 14 -65.5 40.5t-32 62.5t-9.5 77zM590 692q-54 0 -97.5 4.5t-85.5 4.5q-23 0 -46.5 -0.5
t-43.5 -2t-31 -4.5q0 4 -0.5 7.5t-0.5 7.5q0 18 5.5 33t22.5 23.5t51 8.5q53 0 97 -4.5t85 -4.5q23 0 46.5 0.5t43.5 2t31 4.5q0 -4 0.5 -7.5t0.5 -7.5q0 -18 -5.5 -33t-22.5 -23.5t-50 -8.5z" />
    <glyph glyph-name="Emacron" unicode="&#x112;" horiz-adv-x="610" 
d="M118 27q-4 12 -6 27.5t-2 30.5q0 34 6.5 87.5t16 119.5t19 138.5t16.5 144.5t7 137l109 5q2 -8 2.5 -16.5t0.5 -18.5q0 -32 -6 -79.5t-14 -107t-16.5 -127t-14.5 -138t-6 -139.5q0 -16 1 -22t6 -13zM67 -9q6 19 18.5 36.5t32 31.5t49 22.5t68.5 9.5q62 1 110.5 3.5
t87.5 6t72 9.5t63 13q-8 -63 -41.5 -97.5t-85.5 -34.5q-30 0 -88 7t-132 7q-41 0 -79.5 -3t-74.5 -11zM90 306q-1 6 -2 15t-1 15q0 33 14 51t42.5 26t69.5 8q18 0 42 -0.5t48 -1.5t41 -1q42 0 73 7t52 23q2 -7 3 -16t1 -19q0 -40 -17.5 -57.5t-55.5 -17.5q-15 0 -38.5 0.5
t-52.5 0.5q-42 0 -81 -3t-73 -10t-65 -20zM210 673q-37 0 -56 4.5t-25 17.5t-6 37q0 16 2.5 30.5t5.5 24.5q53 -7 107.5 -11t107.5 -4q68 0 133.5 6t123.5 17q-8 -47 -37 -72t-80 -34q-30 -5 -77 -8.5t-100 -5.5t-99 -2zM285 937q-41 0 -52.5 23t-11.5 63q0 6 1 10t2 10
q25 -6 47.5 -8t45.5 -2q35 0 68.5 6.5t74.5 6.5t52.5 -23t11.5 -63q0 -5 -0.5 -9.5t-2.5 -10.5q-25 6 -47 8t-46 2q-35 0 -68 -6.5t-75 -6.5z" />
    <glyph glyph-name="emacron" unicode="&#x113;" horiz-adv-x="544" 
d="M248 -15q-55 0 -97.5 30.5t-66.5 86t-24 127.5q0 74 22 137.5t62 110.5t93.5 73.5t116.5 26.5q74 0 113.5 -37.5t39.5 -107.5q0 -54 -29 -96t-79.5 -66t-116.5 -24q-31 0 -58.5 3.5t-52.5 9.5l3 37h34q56 0 97.5 19t64.5 54.5t23 82.5q0 33 -16 51.5t-44 18.5
q-37 0 -65.5 -28t-48.5 -73.5t-30 -97t-10 -97.5q0 -86 25.5 -130t76.5 -44q94 0 158 98q37 -7 37 -30q-43 -68 -99 -101.5t-129 -33.5zM242 689q-41 0 -52.5 23t-11.5 63q0 6 1 10t2 10q25 -6 47.5 -8t45.5 -2q35 0 68.5 6.5t74.5 6.5t52.5 -23t11.5 -63q0 -5 -0.5 -9.5
t-2.5 -10.5q-25 6 -47 8t-46 2q-35 0 -68 -6.5t-75 -6.5z" />
    <glyph glyph-name="Ebreve" unicode="&#x114;" horiz-adv-x="610" 
d="M118 27q-4 12 -6 27.5t-2 30.5q0 34 6.5 87.5t16 119.5t19 138.5t16.5 144.5t7 137l109 5q2 -8 2.5 -16.5t0.5 -18.5q0 -32 -6 -79.5t-14 -107t-16.5 -127t-14.5 -138t-6 -139.5q0 -16 1 -22t6 -13zM67 -9q6 19 18.5 36.5t32 31.5t49 22.5t68.5 9.5q62 1 110.5 3.5
t87.5 6t72 9.5t63 13q-8 -63 -41.5 -97.5t-85.5 -34.5q-30 0 -88 7t-132 7q-41 0 -79.5 -3t-74.5 -11zM90 306q-1 6 -2 15t-1 15q0 33 14 51t42.5 26t69.5 8q18 0 42 -0.5t48 -1.5t41 -1q42 0 73 7t52 23q2 -7 3 -16t1 -19q0 -40 -17.5 -57.5t-55.5 -17.5q-15 0 -38.5 0.5
t-52.5 0.5q-42 0 -81 -3t-73 -10t-65 -20zM210 673q-37 0 -56 4.5t-25 17.5t-6 37q0 16 2.5 30.5t5.5 24.5q53 -7 107.5 -11t107.5 -4q68 0 133.5 6t123.5 17q-8 -47 -37 -72t-80 -34q-30 -5 -77 -8.5t-100 -5.5t-99 -2zM229 1039q7 6 15.5 10t17.5 4q16 0 24 -13
q6 -31 23 -49t44 -18q23 0 45 12t38 33.5t18 49.5q15 0 29 -10t22 -25t8 -31q-10 -37 -32.5 -61t-52.5 -36.5t-65 -12.5q-33 0 -64 14.5t-50.5 46.5t-19.5 86z" />
    <glyph glyph-name="ebreve" unicode="&#x115;" horiz-adv-x="544" 
d="M248 -15q-55 0 -97.5 30.5t-66.5 86t-24 127.5q0 74 22 137.5t62 110.5t93.5 73.5t116.5 26.5q74 0 113.5 -37.5t39.5 -107.5q0 -54 -29 -96t-79.5 -66t-116.5 -24q-31 0 -58.5 3.5t-52.5 9.5l3 37h34q56 0 97.5 19t64.5 54.5t23 82.5q0 33 -16 51.5t-44 18.5
q-37 0 -65.5 -28t-48.5 -73.5t-30 -97t-10 -97.5q0 -86 25.5 -130t76.5 -44q94 0 158 98q37 -7 37 -30q-43 -68 -99 -101.5t-129 -33.5zM187 791q7 6 15.5 10t17.5 4q16 0 24 -13q6 -31 23 -49t44 -18q23 0 45 12t38 33.5t18 49.5q15 0 29 -10t22 -25t8 -31
q-10 -37 -32.5 -61t-52.5 -36.5t-65 -12.5q-33 0 -64 14.5t-50.5 46.5t-19.5 86z" />
    <glyph glyph-name="Edotaccent" unicode="&#x116;" horiz-adv-x="610" 
d="M118 27q-4 12 -6 27.5t-2 30.5q0 34 6.5 87.5t16 119.5t19 138.5t16.5 144.5t7 137l109 5q2 -8 2.5 -16.5t0.5 -18.5q0 -32 -6 -79.5t-14 -107t-16.5 -127t-14.5 -138t-6 -139.5q0 -16 1 -22t6 -13zM67 -9q6 19 18.5 36.5t32 31.5t49 22.5t68.5 9.5q62 1 110.5 3.5
t87.5 6t72 9.5t63 13q-8 -63 -41.5 -97.5t-85.5 -34.5q-30 0 -88 7t-132 7q-41 0 -79.5 -3t-74.5 -11zM90 306q-1 6 -2 15t-1 15q0 33 14 51t42.5 26t69.5 8q18 0 42 -0.5t48 -1.5t41 -1q42 0 73 7t52 23q2 -7 3 -16t1 -19q0 -40 -17.5 -57.5t-55.5 -17.5q-15 0 -38.5 0.5
t-52.5 0.5q-42 0 -81 -3t-73 -10t-65 -20zM210 673q-37 0 -56 4.5t-25 17.5t-6 37q0 16 2.5 30.5t5.5 24.5q53 -7 107.5 -11t107.5 -4q68 0 133.5 6t123.5 17q-8 -47 -37 -72t-80 -34q-30 -5 -77 -8.5t-100 -5.5t-99 -2zM425 909q-13 -4 -28.5 -7t-30.5 -3t-30 5t-25 17
t-10 33q0 18 6 35.5t12 36.5q13 5 29 7.5t30 2.5q16 0 30.5 -5t24.5 -16.5t10 -33.5q0 -18 -6 -35.5t-12 -36.5z" />
    <glyph glyph-name="edotaccent" unicode="&#x117;" horiz-adv-x="544" 
d="M248 -15q-55 0 -97.5 30.5t-66.5 86t-24 127.5q0 74 22 137.5t62 110.5t93.5 73.5t116.5 26.5q74 0 113.5 -37.5t39.5 -107.5q0 -54 -29 -96t-79.5 -66t-116.5 -24q-31 0 -58.5 3.5t-52.5 9.5l3 37h34q56 0 97.5 19t64.5 54.5t23 82.5q0 33 -16 51.5t-44 18.5
q-37 0 -65.5 -28t-48.5 -73.5t-30 -97t-10 -97.5q0 -86 25.5 -130t76.5 -44q94 0 158 98q37 -7 37 -30q-43 -68 -99 -101.5t-129 -33.5zM382 661q-13 -4 -28.5 -7t-30.5 -3t-30 5t-25 17t-10 33q0 18 6 35.5t12 36.5q13 5 29 7.5t30 2.5q16 0 30.5 -5t24.5 -16.5t10 -33.5
q0 -18 -6 -35.5t-12 -36.5z" />
    <glyph glyph-name="Eogonek" unicode="&#x118;" horiz-adv-x="610" 
d="M118 27q-4 12 -6 27.5t-2 30.5q0 34 6.5 87.5t16 119.5t19 138.5t16.5 144.5t7 137l109 5q2 -8 2.5 -16.5t0.5 -18.5q0 -32 -6 -79.5t-14 -107t-16.5 -127t-14.5 -138t-6 -139.5q0 -16 1 -22t6 -13zM67 -9q6 19 18.5 36.5t32 31.5t49 22.5t68.5 9.5q62 1 110.5 3.5
t87.5 6t72 9.5t63 13q-8 -63 -41.5 -97.5t-85.5 -34.5q-30 0 -88 7t-132 7q-41 0 -79.5 -3t-74.5 -11zM90 306q-1 6 -2 15t-1 15q0 33 14 51t42.5 26t69.5 8q18 0 42 -0.5t48 -1.5t41 -1q42 0 73 7t52 23q2 -7 3 -16t1 -19q0 -40 -17.5 -57.5t-55.5 -17.5q-15 0 -38.5 0.5
t-52.5 0.5q-42 0 -81 -3t-73 -10t-65 -20zM210 673q-37 0 -56 4.5t-25 17.5t-6 37q0 16 2.5 30.5t5.5 24.5q53 -7 107.5 -11t107.5 -4q68 0 133.5 6t123.5 17q-8 -47 -37 -72t-80 -34q-30 -5 -77 -8.5t-100 -5.5t-99 -2zM534 -201q30 -9 30 -36q-35 -39 -76 -59.5t-85 -20.5
q-55 0 -88.5 34.5t-33.5 91.5q0 65 46 119.5t134 91.5l28 -20q-60 -41 -91.5 -84.5t-31.5 -85.5q0 -34 19 -54.5t50 -20.5q25 0 52 12t47 32z" />
    <glyph glyph-name="eogonek" unicode="&#x119;" horiz-adv-x="544" 
d="M248 -15q-55 0 -97.5 30.5t-66.5 86t-24 127.5q0 74 22 137.5t62 110.5t93.5 73.5t116.5 26.5q74 0 113.5 -37.5t39.5 -107.5q0 -54 -29 -96t-79.5 -66t-116.5 -24q-31 0 -58.5 3.5t-52.5 9.5l3 37h34q56 0 97.5 19t64.5 54.5t23 82.5q0 33 -16 51.5t-44 18.5
q-37 0 -65.5 -28t-48.5 -73.5t-30 -97t-10 -97.5q0 -86 25.5 -130t76.5 -44q94 0 158 98q37 -7 37 -30q-43 -68 -99 -101.5t-129 -33.5zM382 -201q30 -9 30 -36q-35 -39 -76 -59.5t-85 -20.5q-55 0 -88.5 34.5t-33.5 91.5q0 65 46 119.5t134 91.5l28 -20
q-60 -41 -91.5 -84.5t-31.5 -85.5q0 -34 19 -54.5t50 -20.5q25 0 52 12t47 32z" />
    <glyph glyph-name="Ecaron" unicode="&#x11a;" horiz-adv-x="610" 
d="M118 27q-4 12 -6 27.5t-2 30.5q0 34 6.5 87.5t16 119.5t19 138.5t16.5 144.5t7 137l109 5q2 -8 2.5 -16.5t0.5 -18.5q0 -32 -6 -79.5t-14 -107t-16.5 -127t-14.5 -138t-6 -139.5q0 -16 1 -22t6 -13zM67 -9q6 19 18.5 36.5t32 31.5t49 22.5t68.5 9.5q62 1 110.5 3.5
t87.5 6t72 9.5t63 13q-8 -63 -41.5 -97.5t-85.5 -34.5q-30 0 -88 7t-132 7q-41 0 -79.5 -3t-74.5 -11zM90 306q-1 6 -2 15t-1 15q0 33 14 51t42.5 26t69.5 8q18 0 42 -0.5t48 -1.5t41 -1q42 0 73 7t52 23q2 -7 3 -16t1 -19q0 -40 -17.5 -57.5t-55.5 -17.5q-15 0 -38.5 0.5
t-52.5 0.5q-42 0 -81 -3t-73 -10t-65 -20zM210 673q-37 0 -56 4.5t-25 17.5t-6 37q0 16 2.5 30.5t5.5 24.5q53 -7 107.5 -11t107.5 -4q68 0 133.5 6t123.5 17q-8 -47 -37 -72t-80 -34q-30 -5 -77 -8.5t-100 -5.5t-99 -2zM491 1105q7 -5 18 -15.5t20 -28.5t10 -46
q-61 -38 -105.5 -74t-76.5 -74q-23 3 -35.5 15t-20.5 32t-18 45.5t-27.5 55.5t-50.5 62q14 7 27 10t31 3q31 0 49.5 -16t31.5 -57.5t25 -118.5l-26 38q17 30 35.5 57t45.5 54t67 58z" />
    <glyph glyph-name="ecaron" unicode="&#x11b;" horiz-adv-x="544" 
d="M248 -15q-55 0 -97.5 30.5t-66.5 86t-24 127.5q0 74 22 137.5t62 110.5t93.5 73.5t116.5 26.5q74 0 113.5 -37.5t39.5 -107.5q0 -54 -29 -96t-79.5 -66t-116.5 -24q-31 0 -58.5 3.5t-52.5 9.5l3 37h34q56 0 97.5 19t64.5 54.5t23 82.5q0 33 -16 51.5t-44 18.5
q-37 0 -65.5 -28t-48.5 -73.5t-30 -97t-10 -97.5q0 -86 25.5 -130t76.5 -44q94 0 158 98q37 -7 37 -30q-43 -68 -99 -101.5t-129 -33.5zM449 857q7 -5 18 -15.5t20 -28.5t10 -46q-61 -38 -105.5 -74t-76.5 -74q-23 3 -35.5 15t-20.5 32t-18 45.5t-28 55.5t-50 62q14 7 27 10
t31 3q31 0 49.5 -16t31.5 -57.5t24 -118.5l-25 38q17 30 35.5 57t45.5 54t67 58z" />
    <glyph glyph-name="Gcircumflex" unicode="&#x11c;" horiz-adv-x="687" 
d="M524 263q-16 -71 -52.5 -123.5t-86 -81.5t-107.5 -29q-68 0 -119.5 38.5t-80 107.5t-28.5 160q0 101 28.5 186.5t79.5 149.5t119 99.5t149 35.5q92 0 146.5 -46.5t54.5 -127.5q0 -44 -19 -79t-51.5 -55t-75.5 -20q-39 0 -73 17t-54 47q13 -4 25.5 -5.5t25.5 -1.5
q52 0 86 31.5t34 78.5q0 43 -29.5 70.5t-76.5 27.5q-49 0 -93 -33.5t-78.5 -91t-54.5 -131.5t-20 -156q0 -68 18 -119.5t51 -79.5t77 -28q45 0 80.5 27.5t55.5 75t20 107.5q0 25 -3 50zM280 -266q73 0 118 67t65 185.5t20 274.5q0 25 -3 51.5t-8 51.5q8 1 20.5 1.5t19.5 0.5
q51 0 70 -20t19 -66q0 -84 -10.5 -170.5t-33.5 -165t-61.5 -140t-95 -97.5t-132.5 -36q-72 0 -117 27t-65.5 69t-20.5 85q0 40 15 70.5t40 48.5t56 18q14 0 28 -4.5t29 -12.5q-17 -23 -31.5 -56t-14.5 -75q0 -43 21 -75t72 -32zM276 867q-7 5 -18 15.5t-20.5 28.5t-10.5 46
q62 37 106.5 74t75.5 74q24 -4 36 -16t20.5 -31.5t18.5 -45t27.5 -55.5t49.5 -63q-13 -6 -26 -9.5t-32 -3.5q-31 0 -49.5 16t-30.5 58t-25 118l25 -38q-17 -29 -35.5 -56.5t-44.5 -54.5t-67 -57z" />
    <glyph glyph-name="gcircumflex" unicode="&#x11d;" horiz-adv-x="619" 
d="M413 162q-22 -50 -56 -86.5t-73 -56t-79 -19.5q-51 0 -86 26.5t-52.5 72t-17.5 101.5q0 51 14.5 103.5t42 100t66 84t88 58t107.5 21.5q22 0 36 -7.5t19 -24.5q-59 -12 -105.5 -43.5t-78.5 -76.5t-48.5 -97.5t-16.5 -106.5q0 -35 8.5 -64t27.5 -45.5t48 -16.5
q38 0 69 21.5t54.5 60.5t39 90.5t21.5 112.5q6 62 13.5 104.5t19 71t30 46t48.5 27.5q-4 -29 -7.5 -53t-5 -46t-1.5 -47q-1 -111 -7.5 -214t-22 -192.5t-41.5 -162t-65 -125t-92.5 -80.5t-123.5 -28q-52 0 -88 17t-54.5 45t-18.5 59q0 44 27 77t70 33q12 0 23 -2.5t24 -7.5
q-17 -12 -27.5 -34.5t-10.5 -46.5q0 -35 22 -55t61 -20q36 0 68 19t58 65t46.5 129.5t32.5 211.5zM249 619q-7 5 -18 15.5t-20.5 28.5t-10.5 46q62 37 106.5 74t75.5 74q24 -4 36 -16t20.5 -31.5t18.5 -45t27.5 -55.5t49.5 -63q-13 -6 -26 -9.5t-32 -3.5q-31 0 -49.5 16
t-30.5 58t-25 118l25 -38q-17 -29 -35.5 -56.5t-44.5 -54.5t-67 -57z" />
    <glyph glyph-name="Gbreve" unicode="&#x11e;" horiz-adv-x="687" 
d="M524 263q-16 -71 -52.5 -123.5t-86 -81.5t-107.5 -29q-68 0 -119.5 38.5t-80 107.5t-28.5 160q0 101 28.5 186.5t79.5 149.5t119 99.5t149 35.5q92 0 146.5 -46.5t54.5 -127.5q0 -44 -19 -79t-51.5 -55t-75.5 -20q-39 0 -73 17t-54 47q13 -4 25.5 -5.5t25.5 -1.5
q52 0 86 31.5t34 78.5q0 43 -29.5 70.5t-76.5 27.5q-49 0 -93 -33.5t-78.5 -91t-54.5 -131.5t-20 -156q0 -68 18 -119.5t51 -79.5t77 -28q45 0 80.5 27.5t55.5 75t20 107.5q0 25 -3 50zM280 -266q73 0 118 67t65 185.5t20 274.5q0 25 -3 51.5t-8 51.5q8 1 20.5 1.5t19.5 0.5
q51 0 70 -20t19 -66q0 -84 -10.5 -170.5t-33.5 -165t-61.5 -140t-95 -97.5t-132.5 -36q-72 0 -117 27t-65.5 69t-20.5 85q0 40 15 70.5t40 48.5t56 18q14 0 28 -4.5t29 -12.5q-17 -23 -31.5 -56t-14.5 -75q0 -43 21 -75t72 -32zM254 1039q7 6 15.5 10t17.5 4q16 0 24 -13
q6 -31 23 -49t44 -18q23 0 45 12t38 33.5t18 49.5q15 0 29 -10t22 -25t8 -31q-10 -37 -32.5 -61t-52.5 -36.5t-65 -12.5q-33 0 -64 14.5t-50.5 46.5t-19.5 86z" />
    <glyph glyph-name="gbreve" unicode="&#x11f;" horiz-adv-x="619" 
d="M413 162q-22 -50 -56 -86.5t-73 -56t-79 -19.5q-51 0 -86 26.5t-52.5 72t-17.5 101.5q0 51 14.5 103.5t42 100t66 84t88 58t107.5 21.5q22 0 36 -7.5t19 -24.5q-59 -12 -105.5 -43.5t-78.5 -76.5t-48.5 -97.5t-16.5 -106.5q0 -35 8.5 -64t27.5 -45.5t48 -16.5
q38 0 69 21.5t54.5 60.5t39 90.5t21.5 112.5q6 62 13.5 104.5t19 71t30 46t48.5 27.5q-4 -29 -7.5 -53t-5 -46t-1.5 -47q-1 -111 -7.5 -214t-22 -192.5t-41.5 -162t-65 -125t-92.5 -80.5t-123.5 -28q-52 0 -88 17t-54.5 45t-18.5 59q0 44 27 77t70 33q12 0 23 -2.5t24 -7.5
q-17 -12 -27.5 -34.5t-10.5 -46.5q0 -35 22 -55t61 -20q36 0 68 19t58 65t46.5 129.5t32.5 211.5zM227 791q7 6 15.5 10t17.5 4q16 0 24 -13q6 -31 23 -49t44 -18q23 0 45 12t38 33.5t18 49.5q15 0 29 -10t22 -25t8 -31q-10 -37 -32.5 -61t-52.5 -36.5t-65 -12.5
q-33 0 -64 14.5t-50.5 46.5t-19.5 86z" />
    <glyph glyph-name="Gdotaccent" unicode="&#x120;" horiz-adv-x="687" 
d="M524 263q-16 -71 -52.5 -123.5t-86 -81.5t-107.5 -29q-68 0 -119.5 38.5t-80 107.5t-28.5 160q0 101 28.5 186.5t79.5 149.5t119 99.5t149 35.5q92 0 146.5 -46.5t54.5 -127.5q0 -44 -19 -79t-51.5 -55t-75.5 -20q-39 0 -73 17t-54 47q13 -4 25.5 -5.5t25.5 -1.5
q52 0 86 31.5t34 78.5q0 43 -29.5 70.5t-76.5 27.5q-49 0 -93 -33.5t-78.5 -91t-54.5 -131.5t-20 -156q0 -68 18 -119.5t51 -79.5t77 -28q45 0 80.5 27.5t55.5 75t20 107.5q0 25 -3 50zM280 -266q73 0 118 67t65 185.5t20 274.5q0 25 -3 51.5t-8 51.5q8 1 20.5 1.5t19.5 0.5
q51 0 70 -20t19 -66q0 -84 -10.5 -170.5t-33.5 -165t-61.5 -140t-95 -97.5t-132.5 -36q-72 0 -117 27t-65.5 69t-20.5 85q0 40 15 70.5t40 48.5t56 18q14 0 28 -4.5t29 -12.5q-17 -23 -31.5 -56t-14.5 -75q0 -43 21 -75t72 -32zM449 909q-13 -4 -28.5 -7t-30.5 -3t-30 5
t-25 17t-10 33q0 18 6 35.5t12 36.5q13 5 29 7.5t30 2.5q16 0 30.5 -5t24.5 -16.5t10 -33.5q0 -18 -6 -35.5t-12 -36.5z" />
    <glyph glyph-name="gdotaccent" unicode="&#x121;" horiz-adv-x="619" 
d="M413 162q-22 -50 -56 -86.5t-73 -56t-79 -19.5q-51 0 -86 26.5t-52.5 72t-17.5 101.5q0 51 14.5 103.5t42 100t66 84t88 58t107.5 21.5q22 0 36 -7.5t19 -24.5q-59 -12 -105.5 -43.5t-78.5 -76.5t-48.5 -97.5t-16.5 -106.5q0 -35 8.5 -64t27.5 -45.5t48 -16.5
q38 0 69 21.5t54.5 60.5t39 90.5t21.5 112.5q6 62 13.5 104.5t19 71t30 46t48.5 27.5q-4 -29 -7.5 -53t-5 -46t-1.5 -47q-1 -111 -7.5 -214t-22 -192.5t-41.5 -162t-65 -125t-92.5 -80.5t-123.5 -28q-52 0 -88 17t-54.5 45t-18.5 59q0 44 27 77t70 33q12 0 23 -2.5t24 -7.5
q-17 -12 -27.5 -34.5t-10.5 -46.5q0 -35 22 -55t61 -20q36 0 68 19t58 65t46.5 129.5t32.5 211.5zM422 661q-13 -4 -28.5 -7t-30.5 -3t-30 5t-25 17t-10 33q0 18 6 35.5t12 36.5q13 5 29 7.5t30 2.5q16 0 30.5 -5t24.5 -16.5t10 -33.5q0 -18 -6 -35.5t-12 -36.5z" />
    <glyph glyph-name="uni0122" unicode="&#x122;" horiz-adv-x="687" 
d="M524 263q-16 -71 -52.5 -123.5t-86 -81.5t-107.5 -29q-68 0 -119.5 38.5t-80 107.5t-28.5 160q0 101 28.5 186.5t79.5 149.5t119 99.5t149 35.5q92 0 146.5 -46.5t54.5 -127.5q0 -44 -19 -79t-51.5 -55t-75.5 -20q-39 0 -73 17t-54 47q13 -4 25.5 -5.5t25.5 -1.5
q52 0 86 31.5t34 78.5q0 43 -29.5 70.5t-76.5 27.5q-49 0 -93 -33.5t-78.5 -91t-54.5 -131.5t-20 -156q0 -68 18 -119.5t51 -79.5t77 -28q45 0 80.5 27.5t55.5 75t20 107.5q0 25 -3 50zM280 -266q73 0 118 67t65 185.5t20 274.5q0 25 -3 51.5t-8 51.5q8 1 20.5 1.5t19.5 0.5
q51 0 70 -20t19 -66q0 -84 -10.5 -170.5t-33.5 -165t-61.5 -140t-95 -97.5t-132.5 -36q-72 0 -117 27t-65.5 69t-20.5 85q0 40 15 70.5t40 48.5t56 18q14 0 28 -4.5t29 -12.5q-17 -23 -31.5 -56t-14.5 -75q0 -43 21 -75t72 -32zM456 937q-12 -4 -28 -7t-31 -3t-28 4.5
t-21.5 16.5t-8.5 33q0 53 37 103t111 89l22 -30q-32 -30 -49 -66.5t-17 -74.5q0 -16 3.5 -32.5t9.5 -32.5z" />
    <glyph glyph-name="uni0123" unicode="&#x123;" horiz-adv-x="619" 
d="M413 162q-22 -50 -56 -86.5t-73 -56t-79 -19.5q-51 0 -86 26.5t-52.5 72t-17.5 101.5q0 51 14.5 103.5t42 100t66 84t88 58t107.5 21.5q22 0 36 -7.5t19 -24.5q-59 -12 -105.5 -43.5t-78.5 -76.5t-48.5 -97.5t-16.5 -106.5q0 -35 8.5 -64t27.5 -45.5t48 -16.5
q38 0 69 21.5t54.5 60.5t39 90.5t21.5 112.5q6 62 13.5 104.5t19 71t30 46t48.5 27.5q-4 -29 -7.5 -53t-5 -46t-1.5 -47q-1 -111 -7.5 -214t-22 -192.5t-41.5 -162t-65 -125t-92.5 -80.5t-123.5 -28q-52 0 -88 17t-54.5 45t-18.5 59q0 44 27 77t70 33q12 0 23 -2.5t24 -7.5
q-17 -12 -27.5 -34.5t-10.5 -46.5q0 -35 22 -55t61 -20q36 0 68 19t58 65t46.5 129.5t32.5 211.5zM429 689q-12 -4 -28.5 -7t-30.5 -3q-15 0 -28 4.5t-21.5 16.5t-8.5 33q0 53 37 103t110 89l23 -30q-32 -30 -49 -66.5t-17 -74.5q0 -16 3.5 -32.5t9.5 -32.5z" />
    <glyph glyph-name="Hcircumflex" unicode="&#x124;" horiz-adv-x="791" 
d="M576 437q-2 -28 -11.5 -44.5t-24 -25.5t-30.5 -12t-31 -3q-35 0 -72 1t-74 1q-62 0 -124 -6.5t-122 -27.5q-1 7 -1.5 18t-0.5 19q0 35 18 51.5t48.5 21t67.5 4.5h70t128.5 1t158.5 2zM709 684q0 -32 -6.5 -88t-16.5 -125t-20 -141t-16.5 -137.5t-6.5 -114.5
q0 -76 14 -109q-47 15 -74 36.5t-38 52t-11 71.5q0 31 6 82.5t14.5 115.5t17 133t14.5 136t6 124q0 21 -1 42t-3 40q43 -2 67.5 -11t36 -24.5t14.5 -36t3 -46.5zM290 684q0 -32 -6.5 -88t-16.5 -125t-20 -141t-16.5 -137.5t-6.5 -114.5q0 -37 3.5 -65t10.5 -44
q-47 15 -74 36.5t-38 52t-11 71.5q0 31 6 82.5t14.5 115.5t17 133t14.5 136t6 124q0 21 -1 42t-3 40q43 -2 67.5 -11t36 -24.5t14.5 -36t3 -46.5zM315 867q-7 5 -18 15.5t-20.5 28.5t-10.5 46q62 37 106.5 74t75.5 74q24 -4 36 -16t20.5 -31.5t18.5 -45t27.5 -55.5t49.5 -63
q-13 -6 -26 -9.5t-32 -3.5q-31 0 -49.5 16t-30.5 58t-25 118l25 -38q-17 -29 -35.5 -56.5t-44.5 -54.5t-67 -57z" />
    <glyph glyph-name="hcircumflex" unicode="&#x125;" horiz-adv-x="621" 
d="M524 -15q-68 0 -101.5 25t-33.5 92q0 30 6 68t14 80t14 84t6 80q0 66 -44 66q-25 0 -56.5 -27t-61.5 -77.5t-49.5 -121t-19.5 -156.5q0 -23 1 -47.5t5 -50.5q-10 -1 -18 -1.5t-14 -0.5q-49 0 -73 19.5t-24 65.5q0 33 7 89t17.5 129t21.5 157t18 173.5t7 177.5
q0 41 -3 71.5t-9 45.5q44 -14 68 -37t34.5 -57t10.5 -81q0 -41 -6 -105t-15.5 -143t-22.5 -166l7 -1q25 70 63 124.5t80 85.5t78 31q65 0 88.5 -38.5t23.5 -103.5q0 -56 -9.5 -112.5t-19.5 -113t-10 -114.5q0 -47 14 -69.5t43 -39.5q-10 -1 -19 -1h-18zM80 977
q-7 5 -18 15.5t-20.5 28.5t-10.5 46q62 37 106.5 74t75.5 74q24 -4 36 -16t20.5 -31.5t18.5 -45t27.5 -55.5t49.5 -63q-13 -6 -26 -9.5t-32 -3.5q-31 0 -49.5 16t-30.5 58t-25 118l25 -38q-17 -29 -35.5 -56.5t-44.5 -54.5t-67 -57z" />
    <glyph glyph-name="Hbar" unicode="&#x126;" horiz-adv-x="791" 
d="M576 437q-2 -28 -11.5 -44.5t-24 -25.5t-30.5 -12t-31 -3q-35 0 -72 1t-74 1q-62 0 -124 -6.5t-122 -27.5q-1 7 -1.5 18t-0.5 19q0 35 18 51.5t48.5 21t67.5 4.5h70t128.5 1t158.5 2zM709 684q0 -32 -6.5 -88t-16.5 -125t-20 -141t-16.5 -137.5t-6.5 -114.5
q0 -76 14 -109q-47 15 -74 36.5t-38 52t-11 71.5q0 31 6 82.5t14.5 115.5t17 133t14.5 136t6 124q0 21 -1 42t-3 40q43 -2 67.5 -11t36 -24.5t14.5 -36t3 -46.5zM290 684q0 -32 -6.5 -88t-16.5 -125t-20 -141t-16.5 -137.5t-6.5 -114.5q0 -37 3.5 -65t10.5 -44
q-47 15 -74 36.5t-38 52t-11 71.5q0 31 6 82.5t14.5 115.5t17 133t14.5 136t6 124q0 21 -1 42t-3 40q43 -2 67.5 -11t36 -24.5t14.5 -36t3 -46.5zM660 561q-103 0 -186.5 4t-162.5 4q-40 0 -81 -1t-75.5 -2.5t-53.5 -1.5q0 26 7 42.5t28 24t62 7.5q103 0 186.5 -4t162.5 -4
q41 0 81.5 1t75 2.5t54.5 1.5q0 -26 -7.5 -42.5t-28.5 -24t-62 -7.5z" />
    <glyph glyph-name="hbar" unicode="&#x127;" horiz-adv-x="621" 
d="M524 -15q-68 0 -101.5 25t-33.5 92q0 30 6 68t14 80t14 84t6 80q0 66 -44 66q-25 0 -56.5 -27t-61.5 -77.5t-49.5 -121t-19.5 -156.5q0 -23 1 -47.5t5 -50.5q-10 -1 -18 -1.5t-14 -0.5q-49 0 -73 19.5t-24 65.5q0 33 7 89t17.5 129t21.5 157t18 173.5t7 177.5
q0 41 -3 71.5t-9 45.5q44 -14 68 -37t34.5 -57t10.5 -81q0 -41 -6 -105t-15.5 -143t-22.5 -166l7 -1q25 70 63 124.5t80 85.5t78 31q65 0 88.5 -38.5t23.5 -103.5q0 -56 -9.5 -112.5t-19.5 -113t-10 -114.5q0 -47 14 -69.5t43 -39.5q-10 -1 -19 -1h-18zM363 692
q-54 0 -97.5 4.5t-85.5 4.5q-23 0 -46.5 -0.5t-43.5 -2t-30 -4.5q0 4 -0.5 7.5t-0.5 7.5q0 18 5 33t22.5 23.5t51.5 8.5q52 0 96 -4.5t86 -4.5q23 0 46.5 0.5t43 2t30.5 4.5q0 -4 0.5 -7.5t0.5 -7.5q0 -18 -5.5 -33t-22.5 -23.5t-50 -8.5z" />
    <glyph glyph-name="Itilde" unicode="&#x128;" horiz-adv-x="344" 
d="M262 684q0 -32 -6.5 -88t-16.5 -125t-20 -141t-16.5 -137.5t-6.5 -114.5q0 -76 14 -109q-47 15 -74 36.5t-38 52t-11 71.5q0 31 6 82.5t14.5 115.5t17 133t14.5 136t6 124q0 21 -1 42t-3 40q43 -2 67.5 -11t36 -24.5t14.5 -36t3 -46.5zM74 923q-10 1 -18 5.5t-8 13.5
q7 43 22 67t34 34t39 10q26 0 49.5 -7t45 -14.5t40.5 -7.5q25 0 42.5 11.5t27.5 25.5q10 -1 17 -5.5t9 -13.5q-5 -43 -20.5 -67t-35 -34t-39.5 -10q-25 0 -49 7.5t-45 14.5t-40 7q-26 0 -43.5 -11.5t-27.5 -25.5z" />
    <glyph glyph-name="itilde" unicode="&#x129;" horiz-adv-x="321" 
d="M197 88q0 -36 3 -62.5t9 -40.5q-44 14 -68.5 37.5t-34 58t-9.5 83.5q0 44 8 98t16 110t8 107q0 26 -0.5 51.5t-5.5 50.5q8 1 17 1.5t16 0.5q49 0 70 -20t21 -66q0 -29 -12 -90t-24.5 -143t-13.5 -176zM51 675q-10 1 -18 5.5t-8 13.5q7 43 22 67t34 34t39 10q26 0 49.5 -7
t45 -14.5t40.5 -7.5q25 0 42.5 11.5t27.5 25.5q10 -1 17 -5.5t9 -13.5q-5 -43 -20.5 -67t-35 -34t-39.5 -10q-25 0 -49 7.5t-45 14.5t-40 7q-26 0 -43.5 -11.5t-27.5 -25.5z" />
    <glyph glyph-name="Imacron" unicode="&#x12a;" horiz-adv-x="344" 
d="M262 684q0 -32 -6.5 -88t-16.5 -125t-20 -141t-16.5 -137.5t-6.5 -114.5q0 -76 14 -109q-47 15 -74 36.5t-38 52t-11 71.5q0 31 6 82.5t14.5 115.5t17 133t14.5 136t6 124q0 21 -1 42t-3 40q43 -2 67.5 -11t36 -24.5t14.5 -36t3 -46.5zM124 937q-41 0 -52.5 23t-11.5 63
q0 6 1 10t2 10q25 -6 47.5 -8t45.5 -2q35 0 68.5 6.5t74.5 6.5t52.5 -23t11.5 -63q0 -5 -0.5 -9.5t-2.5 -10.5q-25 6 -47 8t-46 2q-35 0 -68 -6.5t-75 -6.5z" />
    <glyph glyph-name="imacron" unicode="&#x12b;" horiz-adv-x="321" 
d="M197 88q0 -36 3 -62.5t9 -40.5q-44 14 -68.5 37.5t-34 58t-9.5 83.5q0 44 8 98t16 110t8 107q0 26 -0.5 51.5t-5.5 50.5q8 1 17 1.5t16 0.5q49 0 70 -20t21 -66q0 -29 -12 -90t-24.5 -143t-13.5 -176zM101 689q-41 0 -52.5 23t-11.5 63q0 6 1 10t2 10q25 -6 47.5 -8
t45.5 -2q35 0 68.5 6.5t74.5 6.5t52.5 -23t11.5 -63q0 -5 -0.5 -9.5t-2.5 -10.5q-25 6 -47 8t-46 2q-35 0 -68 -6.5t-75 -6.5z" />
    <glyph glyph-name="Ibreve" unicode="&#x12c;" horiz-adv-x="344" 
d="M262 684q0 -32 -6.5 -88t-16.5 -125t-20 -141t-16.5 -137.5t-6.5 -114.5q0 -76 14 -109q-47 15 -74 36.5t-38 52t-11 71.5q0 31 6 82.5t14.5 115.5t17 133t14.5 136t6 124q0 21 -1 42t-3 40q43 -2 67.5 -11t36 -24.5t14.5 -36t3 -46.5zM69 1039q7 6 15.5 10t17.5 4
q16 0 24 -13q6 -31 23 -49t44 -18q23 0 45 12t38 33.5t18 49.5q15 0 29 -10t22 -25t8 -31q-10 -37 -32.5 -61t-52.5 -36.5t-65 -12.5q-33 0 -64 14.5t-50.5 46.5t-19.5 86z" />
    <glyph glyph-name="ibreve" unicode="&#x12d;" horiz-adv-x="321" 
d="M197 88q0 -36 3 -62.5t9 -40.5q-44 14 -68.5 37.5t-34 58t-9.5 83.5q0 44 8 98t16 110t8 107q0 26 -0.5 51.5t-5.5 50.5q8 1 17 1.5t16 0.5q49 0 70 -20t21 -66q0 -29 -12 -90t-24.5 -143t-13.5 -176zM46 791q7 6 15.5 10t17.5 4q16 0 24 -13q6 -31 23 -49t44 -18
q23 0 45 12t38 33.5t18 49.5q15 0 29 -10t22 -25t8 -31q-10 -37 -32.5 -61t-52.5 -36.5t-65 -12.5q-33 0 -64 14.5t-50.5 46.5t-19.5 86z" />
    <glyph glyph-name="Iogonek" unicode="&#x12e;" horiz-adv-x="344" 
d="M262 684q0 -32 -6.5 -88t-16.5 -125t-20 -141t-16.5 -137.5t-6.5 -114.5q0 -76 14 -109q-47 15 -74 36.5t-38 52t-11 71.5q0 31 6 82.5t14.5 115.5t17 133t14.5 136t6 124q0 21 -1 42t-3 40q43 -2 67.5 -11t36 -24.5t14.5 -36t3 -46.5zM255 -232q30 -9 30 -36
q-35 -39 -76 -59.5t-85 -20.5q-55 0 -88.5 34.5t-33.5 91.5q0 65 46 119.5t134 91.5l28 -20q-60 -41 -91.5 -84.5t-31.5 -85.5q0 -34 19 -54.5t50 -20.5q25 0 52 12t47 32z" />
    <glyph glyph-name="iogonek" unicode="&#x12f;" horiz-adv-x="321" 
d="M197 88q0 -36 3 -62.5t9 -40.5q-44 14 -68.5 37.5t-34 58t-9.5 83.5q0 44 8 98t16 110t8 107q0 26 -0.5 51.5t-5.5 50.5q8 1 17 1.5t16 0.5q49 0 70 -20t21 -66q0 -29 -12 -90t-24.5 -143t-13.5 -176zM241 661q-13 -4 -28.5 -7t-30.5 -3t-30 5t-25 17t-10 33q0 18 6 35.5
t12 36.5q13 5 29 7.5t30 2.5q16 0 30.5 -5t24.5 -16.5t10 -33.5q0 -18 -6 -35.5t-12 -36.5zM253 -216q30 -9 30 -36q-35 -39 -76 -59.5t-85 -20.5q-55 0 -88.5 34.5t-33.5 91.5q0 65 46 119.5t134 91.5l28 -20q-60 -41 -91.5 -84.5t-31.5 -85.5q0 -34 19 -54.5t50 -20.5
q25 0 52 12t47 32z" />
    <glyph glyph-name="Idotaccent" unicode="&#x130;" horiz-adv-x="344" 
d="M262 684q0 -32 -6.5 -88t-16.5 -125t-20 -141t-16.5 -137.5t-6.5 -114.5q0 -76 14 -109q-47 15 -74 36.5t-38 52t-11 71.5q0 31 6 82.5t14.5 115.5t17 133t14.5 136t6 124q0 21 -1 42t-3 40q43 -2 67.5 -11t36 -24.5t14.5 -36t3 -46.5zM264 909q-13 -4 -28.5 -7t-30.5 -3
t-30 5t-25 17t-10 33q0 18 6 35.5t12 36.5q13 5 29 7.5t30 2.5q16 0 30.5 -5t24.5 -16.5t10 -33.5q0 -18 -6 -35.5t-12 -36.5z" />
    <glyph glyph-name="dotlessi" unicode="&#x131;" horiz-adv-x="321" 
d="M197 88q0 -36 3 -62.5t9 -40.5q-44 14 -68.5 37.5t-34 58t-9.5 83.5q0 44 8 98t16 110t8 107q0 26 -0.5 51.5t-5.5 50.5q8 1 17 1.5t16 0.5q49 0 70 -20t21 -66q0 -29 -12 -90t-24.5 -143t-13.5 -176z" />
    <glyph glyph-name="IJ" unicode="&#x132;" horiz-adv-x="862" 
d="M262 684q0 -32 -6.5 -88t-16.5 -125t-20 -141t-16.5 -137.5t-6.5 -114.5q0 -76 14 -109q-47 15 -74 36.5t-38 52t-11 71.5q0 31 6 82.5t14.5 115.5t17 133t14.5 136t6 124q0 21 -1 42t-3 40q43 -2 67.5 -11t36 -24.5t14.5 -36t3 -46.5zM470 -36q-51 0 -90 21t-61.5 58.5
t-22.5 85.5q0 38 14.5 66t40 44.5t58.5 16.5q30 0 54 -16q-25 -22 -40 -56.5t-15 -72.5q0 -42 17 -63.5t51 -21.5q32 0 57 18.5t43 64.5t29.5 126.5t16.5 203t5 294.5l124 5l-37 -415q-16 -175 -78.5 -267t-165.5 -92zM568 662q-35 0 -46.5 20t-11.5 44q0 15 2 28.5t4 23.5
q39 -10 76.5 -13.5t73.5 -3.5q55 0 110 8.5t109 24.5q-4 -38 -23.5 -62.5t-42.5 -36.5t-41 -16q-26 -4 -65.5 -8t-79 -6.5t-65.5 -2.5z" />
    <glyph glyph-name="ij" unicode="&#x133;" horiz-adv-x="652" 
d="M197 88q0 -36 3 -62.5t9 -40.5q-44 14 -68.5 37.5t-34 58t-9.5 83.5q0 44 8 98t16 110t8 107q0 26 -0.5 51.5t-5.5 50.5q8 1 17 1.5t16 0.5q49 0 70 -20t21 -66q0 -29 -12 -90t-24.5 -143t-13.5 -176zM241 661q-13 -4 -28.5 -7t-30.5 -3t-30 5t-25 17t-10 33q0 18 6 35.5
t12 36.5q13 5 29 7.5t30 2.5q16 0 30.5 -5t24.5 -16.5t10 -33.5q0 -18 -6 -35.5t-12 -36.5zM236 -334q-54 0 -91 33.5t-37 82.5q0 29 12.5 54.5t36 42t56.5 16.5q7 0 17 -1.5t18 -5.5q-10 -9 -19 -23.5t-15 -32.5t-6 -38q0 -29 12.5 -45t33.5 -16q36 0 64.5 30t49.5 82
t35.5 119.5t23 143.5t12.5 154t4 150q0 47 -2 89.5t-4 79.5q8 1 18.5 1.5t18.5 0.5q45 0 64.5 -18.5t19.5 -60.5q0 -55 -3 -127t-11 -151.5t-22.5 -159.5t-38.5 -151.5t-58 -127.5t-81 -88.5t-108 -32.5zM549 661q-13 -4 -28.5 -7t-30.5 -3t-30 5t-25 17t-10 33q0 18 6 35.5
t12 36.5q13 5 29 7.5t30 2.5q16 0 30.5 -5t24.5 -16.5t10 -33.5q0 -18 -6 -35.5t-12 -36.5z" />
    <glyph glyph-name="Jcircumflex" unicode="&#x134;" horiz-adv-x="518" 
d="M126 -36q-51 0 -90 21t-61.5 58.5t-22.5 85.5q0 38 14.5 66t40 44.5t58.5 16.5q30 0 54 -16q-25 -22 -40 -56.5t-15 -72.5q0 -42 17 -63.5t51 -21.5q32 0 57 18.5t43 64.5t29.5 126.5t16.5 203t5 294.5l124 5l-37 -415q-16 -175 -78.5 -267t-165.5 -92zM224 662
q-35 0 -46.5 20t-11.5 44q0 15 2 28.5t4 23.5q39 -10 76.5 -13.5t73.5 -3.5q55 0 110 8.5t109 24.5q-4 -38 -23.5 -62.5t-42.5 -36.5t-41 -16q-26 -4 -65.5 -8t-79 -6.5t-65.5 -2.5zM242 867q-7 5 -18 15.5t-20.5 28.5t-10.5 46q62 37 106.5 74t75.5 74q24 -4 36 -16
t20.5 -31.5t18.5 -45t27.5 -55.5t49.5 -63q-13 -6 -26 -9.5t-32 -3.5q-31 0 -49.5 16t-30.5 58t-25 118l25 -38q-17 -29 -35.5 -56.5t-44.5 -54.5t-67 -57z" />
    <glyph glyph-name="jcircumflex" unicode="&#x135;" horiz-adv-x="331" 
d="M-85 -334q-54 0 -91 33.5t-37 82.5q0 29 12.5 54.5t36 42t56.5 16.5q7 0 17 -1.5t18 -5.5q-10 -9 -19 -23.5t-15 -32.5t-6 -38q0 -29 12.5 -45t33.5 -16q36 0 64.5 30t49.5 82t35.5 119.5t23 143.5t12.5 154t4 150q0 47 -2 89.5t-4 79.5q8 1 18.5 1.5t18.5 0.5
q45 0 64.5 -18.5t19.5 -60.5q0 -55 -3 -127t-11 -151.5t-22.5 -159.5t-38.5 -151.5t-58 -127.5t-81 -88.5t-108 -32.5zM55 619q-7 5 -18 15.5t-20.5 28.5t-10.5 46q62 37 106.5 74t75.5 74q24 -4 36 -16t20.5 -31.5t18.5 -45t27.5 -55.5t49.5 -63q-13 -6 -26 -9.5t-32 -3.5
q-31 0 -49.5 16t-30.5 58t-25 118l25 -38q-17 -29 -35.5 -56.5t-44.5 -54.5t-67 -57z" />
    <glyph glyph-name="uni0136" unicode="&#x136;" horiz-adv-x="671" 
d="M176 277l-10 60q111 86 198 168.5t147 157.5t88 136q13 -23 19.5 -51t6.5 -57q0 -25 -11 -51t-39 -57t-78.5 -72.5t-129.5 -98.5t-191 -135zM210 -31q-47 15 -74 36.5t-38 52t-11 71.5q0 31 6 82.5t14.5 115.5t17 133t14.5 136t6 124q0 21 -1 42t-3 40q43 -2 67.5 -11
t36 -24.5t14.5 -36t3 -46.5q0 -32 -6.5 -88t-16.5 -125t-20 -141t-16.5 -137.5t-6.5 -114.5q0 -76 14 -109zM594 -33q-46 0 -84.5 25t-71.5 68t-60.5 98t-51.5 115.5t-46 119.5l105 60q32 -99 61.5 -170t60.5 -124t65 -96.5t74 -85.5q-11 -4 -25 -7t-27 -3zM273 -90
q12 4 28 7t31 3t28 -4.5t21.5 -16.5t8.5 -33q0 -53 -37 -103t-111 -89l-22 30q32 30 49 66.5t17 74.5q0 16 -3.5 32.5t-9.5 32.5z" />
    <glyph glyph-name="uni0137" unicode="&#x137;" horiz-adv-x="574" 
d="M209 362q24 82 57.5 129.5t70.5 67.5t69 20q53 0 85 -34t32 -97q0 -40 -16 -75.5t-45.5 -62t-70.5 -42.5l12 -37q18 -58 45.5 -113t56.5 -101.5t55 -80t41 -47.5q-15 -4 -28.5 -6.5t-25.5 -2.5q-49 0 -86.5 31.5t-67 84.5t-54 117.5t-46.5 130.5q-11 -1 -20 -1h-19
q-6 5 -6 32q49 1 81.5 17t53 41.5t29.5 54t9 52.5q0 26 -11.5 44t-35.5 18q-31 0 -62.5 -32t-58.5 -89t-43.5 -130.5t-16.5 -156.5q0 -23 1 -45.5t5 -48.5q-10 -1 -18 -1.5t-14 -0.5q-49 0 -73 19.5t-24 65.5q0 33 7 89t17.5 129t21.5 157t18 173.5t7 177.5q0 41 -3 71.5
t-9 45.5q44 -14 68 -37t34.5 -57t10.5 -81q0 -39 -6.5 -98.5t-16 -133.5t-18.5 -155zM228 -90q12 4 28 7t31 3t28 -4.5t21.5 -16.5t8.5 -33q0 -53 -37 -103t-111 -89l-22 30q32 30 49 66.5t17 74.5q0 16 -3.5 32.5t-9.5 32.5z" />
    <glyph glyph-name="kgreenlandic" unicode="&#x138;" horiz-adv-x="548" 
d="M158 201l-8 59q101 68 175.5 131.5t123 117t69.5 90.5q7 -14 12.5 -28t8.5 -29t3 -29q0 -33 -31.5 -67.5t-85.5 -73t-123 -81t-144 -90.5zM171 -2q-49 0 -70 20t-21 66q0 22 7.5 62t17 94.5t17 118.5t8.5 134q0 36 -3 63t-9 40q45 -14 69 -37.5t33.5 -58t9.5 -83.5
q0 -44 -8 -98t-16 -110t-8 -107q0 -25 1 -51t5 -51q-8 -1 -17 -1.5t-16 -0.5zM493 -10q-47 0 -83 27.5t-64.5 73.5t-52.5 104t-46 119l90 60q2 -8 5 -16.5t6 -16.5q24 -71 50.5 -128t53 -100t51.5 -71.5t44 -42.5q-13 -4 -26.5 -6.5t-27.5 -2.5z" />
    <glyph glyph-name="Lacute" unicode="&#x139;" horiz-adv-x="547" 
d="M207 30l-86 1q-14 20 -19.5 43.5t-5.5 54.5t6 82.5t14.5 115.5t17 133t14.5 136t6 124q0 21 -1 42t-3 40q43 -2 67.5 -11t36 -24.5t14.5 -36t3 -46.5q0 -32 -6.5 -88t-16.5 -125t-20 -141t-16.5 -137.5t-6.5 -114.5q0 -13 0.5 -25t1.5 -23zM48 -9q3 10 11 26t26 33.5
t49.5 29t80.5 11.5q68 0 133 4t117.5 11.5t82.5 16.5q-7 -63 -41 -97.5t-84 -34.5q-21 0 -54 3.5t-75.5 7t-90.5 3.5q-37 0 -76 -3t-79 -11zM114 900q16 36 47 77.5t70 76.5t77 51q8 -5 20 -16t22 -28.5t11 -45.5q-43 -13 -84 -38.5t-74 -54.5t-54 -55q-13 3 -23 12.5
t-12 20.5z" />
    <glyph glyph-name="lacute" unicode="&#x13a;" horiz-adv-x="299" 
d="M77 117q0 33 7 94t17 138t19.5 160t16.5 161t7 139q0 41 -3 71.5t-9 45.5q42 -14 66 -37t34 -57t10 -81q0 -46 -9 -120t-20 -166t-20 -192t-9 -198q0 -23 1.5 -45.5t2.5 -44.5q-40 2 -62.5 12t-33 27t-13 40.5t-2.5 52.5zM80 1010q16 36 47 77.5t70 76.5t77 51
q8 -5 20 -16t22 -28.5t11 -45.5q-43 -13 -84 -38.5t-74 -54.5t-54 -55q-13 3 -23 12.5t-12 20.5z" />
    <glyph glyph-name="uni013B" unicode="&#x13b;" horiz-adv-x="547" 
d="M207 30l-86 1q-14 20 -19.5 43.5t-5.5 54.5t6 82.5t14.5 115.5t17 133t14.5 136t6 124q0 21 -1 42t-3 40q43 -2 67.5 -11t36 -24.5t14.5 -36t3 -46.5q0 -32 -6.5 -88t-16.5 -125t-20 -141t-16.5 -137.5t-6.5 -114.5q0 -13 0.5 -25t1.5 -23zM48 -9q3 10 11 26t26 33.5
t49.5 29t80.5 11.5q68 0 133 4t117.5 11.5t82.5 16.5q-7 -63 -41 -97.5t-84 -34.5q-21 0 -54 3.5t-75.5 7t-90.5 3.5q-37 0 -76 -3t-79 -11zM235 -90q12 4 28 7t31 3t28 -4.5t21.5 -16.5t8.5 -33q0 -53 -37 -103t-111 -89l-22 30q32 30 49 66.5t17 74.5q0 16 -3.5 32.5
t-9.5 32.5z" />
    <glyph glyph-name="uni013C" unicode="&#x13c;" horiz-adv-x="299" 
d="M77 117q0 33 7 94t17 138t19.5 160t16.5 161t7 139q0 41 -3 71.5t-9 45.5q42 -14 66 -37t34 -57t10 -81q0 -46 -9 -120t-20 -166t-20 -192t-9 -198q0 -23 1.5 -45.5t2.5 -44.5q-40 2 -62.5 12t-33 27t-13 40.5t-2.5 52.5zM61 -90q12 4 28 7t31 3t28 -4.5t21.5 -16.5
t8.5 -33q0 -53 -37 -103t-111 -89l-22 30q32 30 49 66.5t17 74.5q0 16 -3.5 32.5t-9.5 32.5z" />
    <glyph glyph-name="Lcaron" unicode="&#x13d;" horiz-adv-x="547" 
d="M207 30l-86 1q-14 20 -19.5 43.5t-5.5 54.5t6 82.5t14.5 115.5t17 133t14.5 136t6 124q0 21 -1 42t-3 40q43 -2 67.5 -11t36 -24.5t14.5 -36t3 -46.5q0 -32 -6.5 -88t-16.5 -125t-20 -141t-16.5 -137.5t-6.5 -114.5q0 -13 0.5 -25t1.5 -23zM48 -9q3 10 11 26t26 33.5
t49.5 29t80.5 11.5q68 0 133 4t117.5 11.5t82.5 16.5q-7 -63 -41 -97.5t-84 -34.5q-21 0 -54 3.5t-75.5 7t-90.5 3.5q-37 0 -76 -3t-79 -11zM385 844q15 8 37 14.5t37 6.5q21 0 36.5 -14.5t15.5 -56.5q0 -46 -28.5 -94.5t-85.5 -93.5l-28 26q22 28 32.5 59t10.5 62
q0 26 -8 49t-19 42z" />
    <glyph glyph-name="lcaron" unicode="&#x13e;" horiz-adv-x="299" 
d="M77 117q0 33 7 94t17 138t19.5 160t16.5 161t7 139q0 41 -3 71.5t-9 45.5q42 -14 66 -37t34 -57t10 -81q0 -46 -9 -120t-20 -166t-20 -192t-9 -198q0 -23 1.5 -45.5t2.5 -44.5q-40 2 -62.5 12t-33 27t-13 40.5t-2.5 52.5zM335 978q15 8 37 14.5t37 6.5q21 0 36.5 -14.5
t15.5 -56.5q0 -46 -28.5 -94.5t-85.5 -93.5l-28 26q22 28 32.5 59t10.5 62q0 26 -8 49t-19 42z" />
    <glyph glyph-name="Ldot" unicode="&#x13f;" horiz-adv-x="547" 
d="M207 30l-86 1q-14 20 -19.5 43.5t-5.5 54.5t6 82.5t14.5 115.5t17 133t14.5 136t6 124q0 21 -1 42t-3 40q43 -2 67.5 -11t36 -24.5t14.5 -36t3 -46.5q0 -32 -6.5 -88t-16.5 -125t-20 -141t-16.5 -137.5t-6.5 -114.5q0 -13 0.5 -25t1.5 -23zM48 -9q3 10 11 26t26 33.5
t49.5 29t80.5 11.5q68 0 133 4t117.5 11.5t82.5 16.5q-7 -63 -41 -97.5t-84 -34.5q-21 0 -54 3.5t-75.5 7t-90.5 3.5q-37 0 -76 -3t-79 -11zM528 363q-14 -4 -31 -7t-33 -3t-31.5 4.5t-26 17t-10.5 34.5q0 20 6 39l12 38q15 5 31.5 7.5t32.5 2.5q17 0 32 -4.5t25.5 -17
t10.5 -34.5q0 -20 -6 -39z" />
    <glyph glyph-name="ldot" unicode="&#x140;" horiz-adv-x="376" 
d="M77 117q0 33 7 94t17 138t19.5 160t16.5 161t7 139q0 41 -3 71.5t-9 45.5q42 -14 66 -37t34 -57t10 -81q0 -46 -9 -120t-20 -166t-20 -192t-9 -198q0 -23 1.5 -45.5t2.5 -44.5q-40 2 -62.5 12t-33 27t-13 40.5t-2.5 52.5zM412 418q-14 -4 -31 -7t-33 -3t-31.5 4.5t-26 17
t-10.5 34.5q0 20 6 39l12 38q15 5 31.5 7.5t32.5 2.5q17 0 32 -4.5t25.5 -17t10.5 -34.5q0 -20 -6 -39z" />
    <glyph glyph-name="Lslash" unicode="&#x141;" horiz-adv-x="547" 
d="M207 30l-86 1q-14 20 -19.5 43.5t-5.5 54.5t6 82.5t14.5 115.5t17 133t14.5 136t6 124q0 21 -1 42t-3 40q43 -2 67.5 -11t36 -24.5t14.5 -36t3 -46.5q0 -32 -6.5 -88t-16.5 -125t-20 -141t-16.5 -137.5t-6.5 -114.5q0 -13 0.5 -25t1.5 -23zM48 -9q3 10 11 26t26 33.5
t49.5 29t80.5 11.5q68 0 133 4t117.5 11.5t82.5 16.5q-7 -63 -41 -97.5t-84 -34.5q-21 0 -54 3.5t-75.5 7t-90.5 3.5q-37 0 -76 -3t-79 -11zM18 384q41 6 85.5 28t89 48t84 45.5t70.5 19.5q26 0 39.5 -17.5t23.5 -42.5q-41 -5 -85.5 -27.5t-88.5 -49t-83.5 -46t-71.5 -19.5
q-26 0 -39.5 18t-23.5 43z" />
    <glyph glyph-name="lslash" unicode="&#x142;" horiz-adv-x="299" 
d="M77 117q0 33 7 94t17 138t19.5 160t16.5 161t7 139q0 41 -3 71.5t-9 45.5q42 -14 66 -37t34 -57t10 -81q0 -46 -9 -120t-20 -166t-20 -192t-9 -198q0 -23 1.5 -45.5t2.5 -44.5q-40 2 -62.5 12t-33 27t-13 40.5t-2.5 52.5zM-9 439q41 6 85.5 28t89 48t84 45.5t70.5 19.5
q26 0 39.5 -17.5t23.5 -42.5q-41 -5 -85.5 -27.5t-88.5 -49t-83.5 -46t-71.5 -19.5q-26 0 -39.5 18t-23.5 43z" />
    <glyph glyph-name="Nacute" unicode="&#x143;" horiz-adv-x="821" 
d="M83 58q0 13 5.5 52t14 96.5t18 123.5t18 133.5t13.5 128t5 103.5q0 38 -3.5 62t-10.5 39q43 -13 63.5 -33.5t27.5 -47t7 -58.5q0 -81 -13 -172t-26.5 -192.5t-13.5 -214.5q0 -21 1.5 -42t2.5 -41q-32 0 -53 5t-33 14t-17.5 20t-5.5 24zM597 45q-4 13 -5.5 25t-1.5 27
q0 61 8 133.5t19 153t19 165.5t8 171q0 20 -1 41t-3 40q32 0 52.5 -5t32.5 -13.5t17.5 -19.5t5.5 -23q0 -13 -5.5 -53.5t-14 -99t-17.5 -126.5t-17.5 -136.5t-13.5 -129.5t-5 -105q0 -20 1 -39.5t4 -36.5zM519 38q-13 19 -36 64.5t-53.5 108t-65.5 132.5t-71 138.5
t-70.5 126.5t-65.5 95q-24 30 -48.5 45t-38.5 25q24 16 45 22.5t39 6.5q35 0 64.5 -13t51.5 -47q18 -26 56.5 -97t94.5 -184q33 -67 66.5 -136t68.5 -130.5t71.5 -107.5t75.5 -68q-30 -22 -53.5 -31t-47.5 -9q-18 0 -32.5 7t-27 20t-23.5 32zM327 900q16 36 47 77.5t70 76.5
t77 51q8 -5 20 -16t22 -28.5t11 -45.5q-43 -13 -84 -38.5t-74 -54.5t-54 -55q-13 3 -23 12.5t-12 20.5z" />
    <glyph glyph-name="nacute" unicode="&#x144;" horiz-adv-x="626" 
d="M219 345q25 68 63 120.5t80.5 82t79.5 29.5q59 0 82.5 -38.5t23.5 -103.5q0 -50 -9.5 -107t-19.5 -116t-10 -117q0 -47 14 -69.5t43 -39.5q-10 -1 -19 -1h-18q-72 0 -103.5 25t-31.5 92q0 30 6 68t14 80t14 84t6 80q0 66 -40 66q-26 0 -59 -27t-63 -77.5t-49.5 -121
t-19.5 -156.5q0 -23 1 -47.5t5 -50.5q-11 -1 -19.5 -1.5t-15.5 -0.5q-47 0 -70.5 20t-23.5 66q0 22 6.5 62.5t14.5 91.5t14.5 105.5t6.5 104.5q0 39 -4 77t-13 73q67 -25 90.5 -69t23.5 -102q0 -19 -1.5 -39.5t-4.5 -41.5zM216 652q16 36 47 77.5t70 76.5t77 51q8 -5 20 -16
t22 -28.5t11 -45.5q-43 -13 -84 -38.5t-74 -54.5t-54 -55q-13 3 -23 12.5t-12 20.5z" />
    <glyph glyph-name="uni0145" unicode="&#x145;" horiz-adv-x="821" 
d="M83 58q0 13 5.5 52t14 96.5t18 123.5t18 133.5t13.5 128t5 103.5q0 38 -3.5 62t-10.5 39q43 -13 63.5 -33.5t27.5 -47t7 -58.5q0 -81 -13 -172t-26.5 -192.5t-13.5 -214.5q0 -21 1.5 -42t2.5 -41q-32 0 -53 5t-33 14t-17.5 20t-5.5 24zM597 45q-4 13 -5.5 25t-1.5 27
q0 61 8 133.5t19 153t19 165.5t8 171q0 20 -1 41t-3 40q32 0 52.5 -5t32.5 -13.5t17.5 -19.5t5.5 -23q0 -13 -5.5 -53.5t-14 -99t-17.5 -126.5t-17.5 -136.5t-13.5 -129.5t-5 -105q0 -20 1 -39.5t4 -36.5zM519 38q-13 19 -36 64.5t-53.5 108t-65.5 132.5t-71 138.5
t-70.5 126.5t-65.5 95q-24 30 -48.5 45t-38.5 25q24 16 45 22.5t39 6.5q35 0 64.5 -13t51.5 -47q18 -26 56.5 -97t94.5 -184q33 -67 66.5 -136t68.5 -130.5t71.5 -107.5t75.5 -68q-30 -22 -53.5 -31t-47.5 -9q-18 0 -32.5 7t-27 20t-23.5 32zM328 -90q12 4 28 7t31 3
t28 -4.5t21.5 -16.5t8.5 -33q0 -53 -37 -103t-111 -89l-22 30q32 30 49 66.5t17 74.5q0 16 -3.5 32.5t-9.5 32.5z" />
    <glyph glyph-name="uni0146" unicode="&#x146;" horiz-adv-x="626" 
d="M219 345q25 68 63 120.5t80.5 82t79.5 29.5q59 0 82.5 -38.5t23.5 -103.5q0 -50 -9.5 -107t-19.5 -116t-10 -117q0 -47 14 -69.5t43 -39.5q-10 -1 -19 -1h-18q-72 0 -103.5 25t-31.5 92q0 30 6 68t14 80t14 84t6 80q0 66 -40 66q-26 0 -59 -27t-63 -77.5t-49.5 -121
t-19.5 -156.5q0 -23 1 -47.5t5 -50.5q-11 -1 -19.5 -1.5t-15.5 -0.5q-47 0 -70.5 20t-23.5 66q0 22 6.5 62.5t14.5 91.5t14.5 105.5t6.5 104.5q0 39 -4 77t-13 73q67 -25 90.5 -69t23.5 -102q0 -19 -1.5 -39.5t-4.5 -41.5zM248 -90q12 4 28 7t31 3t28 -4.5t21.5 -16.5
t8.5 -33q0 -53 -37 -103t-111 -89l-22 30q32 30 49 66.5t17 74.5q0 16 -3.5 32.5t-9.5 32.5z" />
    <glyph glyph-name="Ncaron" unicode="&#x147;" horiz-adv-x="821" 
d="M83 58q0 13 5.5 52t14 96.5t18 123.5t18 133.5t13.5 128t5 103.5q0 38 -3.5 62t-10.5 39q43 -13 63.5 -33.5t27.5 -47t7 -58.5q0 -81 -13 -172t-26.5 -192.5t-13.5 -214.5q0 -21 1.5 -42t2.5 -41q-32 0 -53 5t-33 14t-17.5 20t-5.5 24zM597 45q-4 13 -5.5 25t-1.5 27
q0 61 8 133.5t19 153t19 165.5t8 171q0 20 -1 41t-3 40q32 0 52.5 -5t32.5 -13.5t17.5 -19.5t5.5 -23q0 -13 -5.5 -53.5t-14 -99t-17.5 -126.5t-17.5 -136.5t-13.5 -129.5t-5 -105q0 -20 1 -39.5t4 -36.5zM519 38q-13 19 -36 64.5t-53.5 108t-65.5 132.5t-71 138.5
t-71 126.5t-65 95q-24 30 -48.5 45t-38.5 25q24 16 45 22.5t39 6.5q35 0 64.5 -13t51.5 -47q18 -26 56.5 -97t94.5 -184q33 -67 66.5 -136t68.5 -130.5t71.5 -107.5t75.5 -68q-30 -22 -53.5 -31t-47.5 -9q-18 0 -32.5 7t-27 20t-23.5 32zM570 1105q7 -5 18 -15.5t20 -28.5
t10 -46q-61 -38 -105.5 -74t-76.5 -74q-23 3 -35.5 15t-20.5 32t-18 45.5t-28 55.5t-50 62q14 7 27 10t31 3q31 0 49.5 -16t31.5 -57.5t25 -118.5l-26 38q17 30 35.5 57t45.5 54t67 58z" />
    <glyph glyph-name="ncaron" unicode="&#x148;" horiz-adv-x="626" 
d="M219 345q25 68 63 120.5t80.5 82t79.5 29.5q59 0 82.5 -38.5t23.5 -103.5q0 -50 -9.5 -107t-19.5 -116t-10 -117q0 -47 14 -69.5t43 -39.5q-10 -1 -19 -1h-18q-72 0 -103.5 25t-31.5 92q0 30 6 68t14 80t14 84t6 80q0 66 -40 66q-26 0 -59 -27t-63 -77.5t-49.5 -121
t-19.5 -156.5q0 -23 1 -47.5t5 -50.5q-11 -1 -19.5 -1.5t-15.5 -0.5q-47 0 -70.5 20t-23.5 66q0 22 6.5 62.5t14.5 91.5t14.5 105.5t6.5 104.5q0 39 -4 77t-13 73q67 -25 90.5 -69t23.5 -102q0 -19 -1.5 -39.5t-4.5 -41.5zM459 857q7 -5 18 -15.5t20 -28.5t10 -46
q-61 -38 -105.5 -74t-76.5 -74q-23 3 -35.5 15t-20.5 32t-18 45.5t-28 55.5t-50 62q14 7 27 10t31 3q31 0 49.5 -16t31.5 -57.5t25 -118.5l-26 38q17 30 35.5 57t45.5 54t67 58z" />
    <glyph glyph-name="Eng" unicode="&#x14a;" horiz-adv-x="820" 
d="M397 -334q-54 0 -91.5 33.5t-37.5 82.5q0 29 12.5 54.5t36 42t56.5 16.5q8 0 17.5 -1.5t17.5 -5.5q-9 -9 -18.5 -23.5t-15.5 -32.5t-6 -38q0 -29 13 -45t33 -16q32 0 59.5 34t51 93.5t42.5 136t33.5 161.5t25 170.5t15 163.5t4.5 140q0 47 -1.5 89.5t-3.5 79.5
q7 1 18 1.5t19 0.5q31 0 45.5 -8t19.5 -25.5t5 -45.5q0 -44 -3.5 -112.5t-11.5 -152t-21 -173.5t-32 -179t-45.5 -168t-61.5 -140.5t-78.5 -97t-96.5 -35.5zM192 -5q-32 0 -53 5t-33 14t-17.5 20t-5.5 24t5.5 52t14 96.5t18 123.5t18 133.5t13.5 128t5 103.5q0 38 -3.5 62
t-10.5 39q43 -13 63.5 -33.5t27.5 -47t7 -58.5q0 -81 -13 -172t-26.5 -192.5t-13.5 -214.5q0 -21 1.5 -42t2.5 -41zM617 -1q-23 1 -45 11t-41.5 29t-36.5 46q-11 20 -32 62.5t-48.5 99.5t-59.5 120.5t-66 126.5t-67.5 117.5t-63.5 91.5q-24 30 -48.5 45t-38.5 25
q24 16 45 22.5t39 6.5q35 0 64.5 -13t51.5 -47q18 -26 56.5 -97t94.5 -184q32 -64 64 -133t65 -131t67 -108v-90z" />
    <glyph glyph-name="eng" unicode="&#x14b;" horiz-adv-x="640" 
d="M218 -334q-36 0 -66 16t-47.5 42.5t-17.5 59.5q0 31 14 56t37.5 40t52.5 15q11 0 20 -1.5t17 -5.5q-12 -10 -21 -25.5t-14.5 -33t-5.5 -34.5q0 -27 14 -44.5t35 -17.5q29 0 58 38t56 103.5t47.5 149t32.5 175.5t12 183q0 58 -8 78t-30 20q-39 0 -74 -33.5t-61.5 -92.5
t-42.5 -134.5t-16 -159.5q0 -3 -0.5 2.5t-1.5 14t-2 15.5t-1 9t1 -6.5t3.5 -30.5t6.5 -64q-10 -1 -18.5 -1.5t-17.5 -0.5q-47 0 -69.5 20.5t-22.5 62.5q0 25 6.5 66t14.5 91.5t14.5 105.5t6.5 107q0 81 -17 147q59 -22 86.5 -63t27.5 -108q0 -16 -1.5 -35t-4.5 -40l8 -2
q28 72 65 122.5t79.5 77.5t86.5 27q51 0 73 -41t22 -138q0 -111 -18.5 -218t-50.5 -200t-75 -163.5t-92.5 -110.5t-100.5 -40z" />
    <glyph glyph-name="Omacron" unicode="&#x14c;" horiz-adv-x="802" 
d="M358 -25q-79 0 -135 36t-92 95.5t-53.5 131t-17.5 141.5q0 83 20.5 156.5t58 133t89 100.5t114.5 59q7 -1 13 -6.5t8 -11.5q-34 -21 -65 -50t-56 -68.5t-40 -95.5l8 -2q32 69 80.5 115.5t104 70.5t108.5 24q64 0 118 -35t87.5 -107t33.5 -183q0 -70 -14 -142t-42.5 -137
t-73.5 -115.5t-108 -80t-146 -29.5zM372 38q58 0 103.5 36t76.5 96t47 133t16 147q0 102 -20.5 162.5t-56.5 87t-80 26.5q-58 0 -107 -35t-85 -92.5t-55.5 -128t-19.5 -140.5q0 -59 10.5 -112t32.5 -93t56.5 -63.5t81.5 -23.5zM372 937q-41 0 -52.5 23t-11.5 63q0 6 1 10
t2 10q25 -6 47.5 -8t45.5 -2q35 0 68.5 6.5t74.5 6.5t52.5 -23t11.5 -63q0 -5 -0.5 -9.5t-2.5 -10.5q-25 6 -47 8t-46 2q-35 0 -68 -6.5t-75 -6.5z" />
    <glyph glyph-name="omacron" unicode="&#x14d;" horiz-adv-x="617" 
d="M267 -15q-37 0 -73.5 15.5t-66.5 47.5t-48.5 81.5t-18.5 117.5q0 83 26 153t73 119.5t110 71.5q11 0 17 -6t6 -14q-33 -21 -65 -60t-49 -104l7 -2q29 65 67.5 102t79.5 52t75 15q44 0 77.5 -26t53 -74.5t19.5 -116.5q0 -64 -16.5 -129.5t-51 -120.5t-89.5 -88.5
t-133 -33.5zM281 50q40 0 71 26t53 69t33 94.5t11 101.5q0 89 -24 128t-63 39q-37 0 -70 -25.5t-59.5 -67t-41 -91t-14.5 -96.5t10.5 -87.5t33.5 -65.5t60 -25zM248 689q-41 0 -52.5 23t-11.5 63q0 6 1 10t2 10q25 -6 47.5 -8t45.5 -2q35 0 68.5 6.5t74.5 6.5t52.5 -23
t11.5 -63q0 -5 -0.5 -9.5t-2.5 -10.5q-25 6 -47 8t-46 2q-35 0 -68 -6.5t-75 -6.5z" />
    <glyph glyph-name="Obreve" unicode="&#x14e;" horiz-adv-x="802" 
d="M358 -25q-79 0 -135 36t-92 95.5t-53.5 131t-17.5 141.5q0 83 20.5 156.5t58 133t89 100.5t114.5 59q7 -1 13 -6.5t8 -11.5q-34 -21 -65 -50t-56 -68.5t-40 -95.5l8 -2q32 69 80.5 115.5t104 70.5t108.5 24q64 0 118 -35t87.5 -107t33.5 -183q0 -70 -14 -142t-42.5 -137
t-73.5 -115.5t-108 -80t-146 -29.5zM372 38q58 0 103.5 36t76.5 96t47 133t16 147q0 102 -20.5 162.5t-56.5 87t-80 26.5q-58 0 -107 -35t-85 -92.5t-55.5 -128t-19.5 -140.5q0 -59 10.5 -112t32.5 -93t56.5 -63.5t81.5 -23.5zM317 1039q7 6 15.5 10t17.5 4q16 0 24 -13
q6 -31 23 -49t44 -18q23 0 45 12t38 33.5t18 49.5q15 0 29 -10t22 -25t8 -31q-10 -37 -32.5 -61t-52.5 -36.5t-65 -12.5q-33 0 -64 14.5t-50.5 46.5t-19.5 86z" />
    <glyph glyph-name="obreve" unicode="&#x14f;" horiz-adv-x="617" 
d="M267 -15q-37 0 -73.5 15.5t-66.5 47.5t-48.5 81.5t-18.5 117.5q0 83 26 153t73 119.5t110 71.5q11 0 17 -6t6 -14q-33 -21 -65 -60t-49 -104l7 -2q29 65 67.5 102t79.5 52t75 15q44 0 77.5 -26t53 -74.5t19.5 -116.5q0 -64 -16.5 -129.5t-51 -120.5t-89.5 -88.5
t-133 -33.5zM281 50q40 0 71 26t53 69t33 94.5t11 101.5q0 89 -24 128t-63 39q-37 0 -70 -25.5t-59.5 -67t-41 -91t-14.5 -96.5t10.5 -87.5t33.5 -65.5t60 -25zM193 791q7 6 15.5 10t17.5 4q16 0 24 -13q6 -31 23 -49t44 -18q23 0 45 12t38 33.5t18 49.5q15 0 29 -10t22 -25
t8 -31q-10 -37 -32.5 -61t-52.5 -36.5t-65 -12.5q-33 0 -64 14.5t-50.5 46.5t-19.5 86z" />
    <glyph glyph-name="Ohungarumlaut" unicode="&#x150;" horiz-adv-x="802" 
d="M358 -25q-79 0 -135 36t-92 95.5t-53.5 131t-17.5 141.5q0 83 20.5 156.5t58 133t89 100.5t114.5 59q7 -1 13 -6.5t8 -11.5q-34 -21 -65 -50t-56 -68.5t-40 -95.5l8 -2q32 69 80.5 115.5t104 70.5t108.5 24q64 0 118 -35t87.5 -107t33.5 -183q0 -70 -14 -142t-42.5 -137
t-73.5 -115.5t-108 -80t-146 -29.5zM372 38q58 0 103.5 36t76.5 96t47 133t16 147q0 102 -20.5 162.5t-56.5 87t-80 26.5q-58 0 -107 -35t-85 -92.5t-55.5 -128t-19.5 -140.5q0 -59 10.5 -112t32.5 -93t56.5 -63.5t81.5 -23.5zM277 900q14 36 40 77.5t59.5 76.5t65.5 51
q7 -5 18.5 -15.5t20.5 -28.5t10 -46q-37 -13 -71.5 -38.5t-62.5 -54.5t-47 -55q-11 3 -21 12.5t-12 20.5zM472 900q14 37 41 78.5t60 76t64 50.5q7 -5 18 -15.5t20.5 -28.5t10.5 -46q-37 -12 -71.5 -37.5t-62.5 -55t-46 -55.5q-12 3 -22 12.5t-12 20.5z" />
    <glyph glyph-name="ohungarumlaut" unicode="&#x151;" horiz-adv-x="617" 
d="M267 -15q-37 0 -73.5 15.5t-66.5 47.5t-48.5 81.5t-18.5 117.5q0 83 26 153t73 119.5t110 71.5q11 0 17 -6t6 -14q-33 -21 -65 -60t-49 -104l7 -2q29 65 67.5 102t79.5 52t75 15q44 0 77.5 -26t53 -74.5t19.5 -116.5q0 -64 -16.5 -129.5t-51 -120.5t-89.5 -88.5
t-133 -33.5zM281 50q40 0 71 26t53 69t33 94.5t11 101.5q0 89 -24 128t-63 39q-37 0 -70 -25.5t-59.5 -67t-41 -91t-14.5 -96.5t10.5 -87.5t33.5 -65.5t60 -25zM153 652q14 36 40 77.5t59.5 76.5t65.5 51q7 -5 18.5 -15.5t20.5 -28.5t10 -46q-37 -13 -71.5 -38.5
t-62.5 -54.5t-47 -55q-11 3 -21 12.5t-12 20.5zM348 652q14 37 41 78.5t60 76t64 50.5q7 -5 18 -15.5t20.5 -28.5t10.5 -46q-37 -12 -71.5 -37.5t-62.5 -55t-46 -55.5q-12 3 -22 12.5t-12 20.5z" />
    <glyph glyph-name="OE" unicode="&#x152;" horiz-adv-x="1019" 
d="M357 -25q-65 0 -119 29.5t-94 84t-62 128.5t-22 162q0 111 35.5 203.5t98.5 156.5t148 89q8 -1 14 -6t7 -12q-41 -25 -72.5 -57t-53 -70.5t-34.5 -85.5l7 -3q30 64 75.5 110.5t102 71.5t117.5 25q51 0 129 -12t179 -12q53 0 103 4.5t96 14.5q-5 -61 -66 -95t-166 -34
q-19 0 -40 1.5t-44 5.5q-3 -46 -12 -112t-18 -142q30 -1 50 -1h33q47 0 79 7t53 22q2 -9 2 -15.5v-16.5q0 -40 -17.5 -59.5t-56.5 -19.5q-15 0 -37 0.5t-45.5 1t-43 0.5h-27.5q-7 -71 -11.5 -133t-5.5 -116q67 0 132.5 4.5t119.5 11.5t87 17q-7 -70 -41 -102t-102 -32
q-36 0 -76 5.5t-78 5.5q-55 0 -95 -4t-73.5 -8.5t-70 -8.5t-85.5 -4zM378 38q27 0 54 6.5t50 17t35 23.5q3 38 10 95t16 124t17.5 138t15 137.5t9.5 121.5q-48 25 -117 25q-55 0 -105 -32t-89.5 -88t-62 -127.5t-22.5 -148.5q0 -136 50.5 -214t138.5 -78z" />
    <glyph glyph-name="oe" unicode="&#x153;" horiz-adv-x="910" 
d="M263 -15q-36 0 -72 15.5t-65.5 47.5t-47.5 81.5t-18 117.5q0 83 24.5 152t70 118.5t106.5 73.5q11 0 15.5 -6t4.5 -14q-31 -21 -62.5 -58t-49.5 -102l7 -2q29 63 67.5 99t79.5 51t77 15q44 0 77 -26t51.5 -74.5t18.5 -116.5q0 -64 -16 -129.5t-50 -120.5t-88 -88.5
t-130 -33.5zM273 47q42 0 74.5 26.5t55 70t34.5 95.5t12 102q0 89 -25.5 129.5t-65.5 40.5q-39 0 -73.5 -26t-62 -68t-43 -92t-15.5 -97t11 -88.5t35 -67t63 -25.5zM614 -15q-57 0 -99.5 33.5t-65.5 90.5l48 348q39 56 96.5 88t126.5 32q74 0 113.5 -37.5t39.5 -107.5
q0 -54 -29 -96t-79.5 -66t-116.5 -24q-30 0 -57.5 3.5t-53.5 9.5l3 37h34q56 0 97.5 19t64.5 54.5t23 82.5q0 33 -16 51.5t-44 18.5q-37 0 -65.5 -28t-48.5 -73.5t-30 -97t-10 -97.5q0 -86 26 -130t76 -44q94 0 158 98q37 -7 37 -30q-42 -68 -98.5 -101.5t-129.5 -33.5z" />
    <glyph glyph-name="Racute" unicode="&#x154;" horiz-adv-x="675" 
d="M436 360q28 -97 64.5 -172.5t78.5 -131.5t84 -94q-13 -5 -28 -7.5t-30 -2.5q-40 0 -74 22.5t-63 61.5t-53.5 88t-45.5 103t-38 106zM246 741q43 26 89 36.5t84 10.5q70 0 116 -28t68.5 -73t22.5 -98q0 -49 -19 -98t-56 -90t-91.5 -65.5t-125.5 -24.5q-14 0 -28 1t-28 3
l-3 35q70 0 116.5 19.5t73.5 52.5t39 71.5t12 76.5t-16 70.5t-49 52t-84 19.5q-23 0 -49.5 -5.5t-55.5 -16.5zM92 69q0 36 7 92t17 124t19.5 142t16.5 148t7 141q0 79 -14 110q35 -3 62.5 -21t44 -48.5t16.5 -73.5q0 -41 -8.5 -105t-20 -143.5t-20 -169t-8.5 -182.5
q0 -23 1 -47.5t5 -50.5q-10 -1 -17.5 -1.5t-13.5 -0.5q-47 0 -70.5 20t-23.5 66zM274 900q16 36 47 77.5t70 76.5t77 51q8 -5 20 -16t22 -28.5t11 -45.5q-43 -13 -84 -38.5t-74 -54.5t-54 -55q-13 3 -23 12.5t-12 20.5z" />
    <glyph glyph-name="racute" unicode="&#x155;" horiz-adv-x="463" 
d="M224 369q26 77 55.5 123t59.5 66t54 20q29 0 47.5 -16t28 -41.5t9.5 -54.5q0 -32 -11 -62t-33.5 -49.5t-60.5 -19.5q-7 0 -14 1t-14 3q11 16 21.5 44t11.5 52q0 16 -6 26.5t-22 10.5q-21 0 -46 -26.5t-48.5 -76.5t-38 -121.5t-14.5 -162.5q0 -20 2 -41t3 -44
q-11 -1 -19 -1.5t-15 -0.5q-47 0 -70.5 20t-23.5 66q0 22 6.5 62.5t14.5 91.5t14.5 105.5t6.5 104.5q0 39 -4 77t-13 73q67 -25 90.5 -69t23.5 -102q0 -10 -0.5 -25t-2.5 -31zM174 652q16 36 47 77.5t70 76.5t77 51q8 -5 20 -16t22 -28.5t11 -45.5q-43 -13 -84 -38.5
t-74 -54.5t-54 -55q-13 3 -23 12.5t-12 20.5z" />
    <glyph glyph-name="uni0156" unicode="&#x156;" horiz-adv-x="675" 
d="M436 360q28 -97 64.5 -172.5t78.5 -131.5t84 -94q-13 -5 -28 -7.5t-30 -2.5q-40 0 -74 22.5t-63 61.5t-53.5 88t-45.5 103t-38 106zM246 741q43 26 89 36.5t84 10.5q70 0 116 -28t68.5 -73t22.5 -98q0 -49 -19 -98t-56 -90t-91.5 -65.5t-125.5 -24.5q-14 0 -28 1t-28 3
l-3 35q70 0 116.5 19.5t73.5 52.5t39 71.5t12 76.5t-16 70.5t-49 52t-84 19.5q-23 0 -49.5 -5.5t-55.5 -16.5zM92 69q0 36 7 92t17 124t19.5 142t16.5 148t7 141q0 79 -14 110q35 -3 62.5 -21t44 -48.5t16.5 -73.5q0 -41 -8.5 -105t-20 -143.5t-20 -169t-8.5 -182.5
q0 -23 1 -47.5t5 -50.5q-10 -1 -17.5 -1.5t-13.5 -0.5q-47 0 -70.5 20t-23.5 66zM275 -90q12 4 28 7t31 3t28 -4.5t21.5 -16.5t8.5 -33q0 -53 -37 -103t-111 -89l-22 30q32 30 49 66.5t17 74.5q0 16 -3.5 32.5t-9.5 32.5z" />
    <glyph glyph-name="uni0157" unicode="&#x157;" horiz-adv-x="463" 
d="M224 369q26 78 55.5 123.5t59.5 65.5t54 20q29 0 47.5 -16t28 -41.5t9.5 -54.5q0 -32 -11 -62t-33.5 -49.5t-60.5 -19.5q-7 0 -14 1t-14 3q11 16 21.5 44t11.5 52q0 16 -6 26.5t-22 10.5q-21 0 -46 -26.5t-48.5 -76.5t-38 -121.5t-14.5 -162.5q0 -20 2 -41t3 -44
q-11 -1 -19 -1.5t-15 -0.5q-47 0 -70.5 20t-23.5 66q0 22 6.5 62.5t14.5 91.5t14.5 105.5t6.5 104.5q0 39 -4 77t-13 73q67 -25 90.5 -69t23.5 -102q0 -10 -0.5 -25t-2.5 -31zM97 -90q12 4 28 7t31 3t28 -4.5t21.5 -16.5t8.5 -33q0 -53 -37 -103t-111 -89l-22 30
q32 30 49 66.5t17 74.5q0 16 -3.5 32.5t-9.5 32.5z" />
    <glyph glyph-name="Rcaron" unicode="&#x158;" horiz-adv-x="675" 
d="M436 360q28 -97 64.5 -172.5t78.5 -131.5t84 -94q-13 -5 -28 -7.5t-30 -2.5q-40 0 -74 22.5t-63 61.5t-53.5 88t-45.5 103t-38 106zM246 741q43 26 89 36.5t84 10.5q70 0 116 -28t68.5 -73t22.5 -98q0 -49 -19 -98t-56 -90t-91.5 -65.5t-125.5 -24.5q-14 0 -28 1t-28 3
l-3 35q70 0 116.5 19.5t73.5 52.5t39 71.5t12 76.5t-16 70.5t-49 52t-84 19.5q-23 0 -49.5 -5.5t-55.5 -16.5zM92 69q0 36 7 92t17 124t19.5 142t16.5 148t7 141q0 79 -14 110q35 -3 62.5 -21t44 -48.5t16.5 -73.5q0 -41 -8.5 -105t-20 -143.5t-20 -169t-8.5 -182.5
q0 -23 1 -47.5t5 -50.5q-10 -1 -17 -1.5t-14 -0.5q-47 0 -70.5 20t-23.5 66zM517 1105q7 -5 18 -15.5t20 -28.5t10 -46q-61 -38 -105.5 -74t-76.5 -74q-23 3 -35.5 15t-20.5 32t-18 45.5t-28 55.5t-50 62q14 7 27 10t31 3q31 0 49.5 -16t31.5 -57.5t25 -118.5l-26 38
q17 30 35.5 57t45.5 54t67 58z" />
    <glyph glyph-name="rcaron" unicode="&#x159;" horiz-adv-x="463" 
d="M224 369q26 77 55.5 123t59.5 66t54 20q29 0 47.5 -16t28 -41.5t9.5 -54.5q0 -32 -11 -62t-33.5 -49.5t-60.5 -19.5q-7 0 -14 1t-14 3q11 16 21.5 44t11.5 52q0 16 -6 26.5t-22 10.5q-21 0 -46 -26.5t-48.5 -76.5t-38 -121.5t-14.5 -162.5q0 -20 2 -41t3 -44
q-11 -1 -19 -1.5t-15 -0.5q-47 0 -70.5 20t-23.5 66q0 22 6.5 62.5t14.5 91.5t14.5 105.5t6.5 104.5q0 39 -4 77t-13 73q67 -25 90.5 -69t23.5 -102q0 -10 -0.5 -25t-2.5 -31zM417 857q7 -5 18 -15.5t20 -28.5t10 -46q-61 -38 -105.5 -74t-76.5 -74q-23 3 -35.5 15t-20.5 32
t-18 45.5t-28 55.5t-50 62q14 7 27 10t31 3q31 0 49.5 -16t31.5 -57.5t25 -118.5l-26 38q17 30 35.5 57t45.5 54t67 58z" />
    <glyph glyph-name="Sacute" unicode="&#x15a;" horiz-adv-x="630" 
d="M213 631q0 -47 24.5 -83.5t63 -68.5t82.5 -63t82.5 -64.5t63 -74t24.5 -92.5q0 -61 -34.5 -108.5t-95 -74.5t-138.5 -27q-72 0 -127.5 23t-86.5 64t-31 94q0 36 15 64t42.5 44t63.5 16q9 0 16 -1t13 -3q-31 -46 -31 -98q0 -59 38 -95.5t100 -36.5q59 0 97 32.5t38 82.5
q0 42 -24 76t-62 64t-81 61t-80.5 66.5t-62 79.5t-24.5 101q0 61 31 106.5t86.5 71t128.5 25.5q66 0 117 -22t80 -60.5t29 -88.5q0 -35 -16 -63t-43.5 -44.5t-62.5 -16.5q-11 0 -20 1t-17 3q23 24 36 55.5t13 62.5q0 50 -33.5 79.5t-87.5 29.5q-56 0 -91 -32t-35 -85z
M232 900q16 36 47 77.5t70 76.5t77 51q8 -5 20 -16t22 -28.5t11 -45.5q-43 -13 -84 -38.5t-74 -54.5t-54 -55q-13 3 -23 12.5t-12 20.5z" />
    <glyph glyph-name="sacute" unicode="&#x15b;" horiz-adv-x="502" 
d="M232 -20q-91 0 -139 36t-48 87q0 44 25.5 71t61.5 27q8 0 17.5 -1.5t19.5 -6.5q-11 -14 -17.5 -32.5t-6.5 -35.5q0 -34 22 -60.5t67 -26.5q22 0 43 8.5t34.5 26t13.5 43.5q0 29 -16.5 51.5t-43 43t-55.5 40.5t-55.5 43.5t-43 54.5t-16.5 72q0 47 25 83.5t70 57.5t105 21
q57 0 91.5 -17t49.5 -44t15 -56q0 -36 -21 -65t-58 -29q-9 0 -19.5 3t-21.5 7q15 18 21.5 38.5t6.5 35.5q0 34 -23 51.5t-51 17.5q-20 0 -39.5 -8t-31.5 -25.5t-12 -43.5q0 -31 17 -57t44 -47.5t57.5 -42.5t57 -44.5t44 -51.5t17.5 -64q0 -48 -26.5 -84t-73 -56.5
t-107.5 -20.5zM175 652q16 36 47 77.5t70 76.5t77 51q8 -5 20 -16t22 -28.5t11 -45.5q-43 -13 -84 -38.5t-74 -54.5t-54 -55q-13 3 -23 12.5t-12 20.5z" />
    <glyph glyph-name="Scircumflex" unicode="&#x15c;" horiz-adv-x="630" 
d="M213 631q0 -47 24.5 -83.5t63 -68.5t82.5 -63t82.5 -64.5t63 -74t24.5 -92.5q0 -61 -34.5 -108.5t-95 -74.5t-138.5 -27q-72 0 -127.5 23t-86.5 64t-31 94q0 36 15 64t42.5 44t63.5 16q9 0 16 -1t13 -3q-31 -46 -31 -98q0 -59 38 -95.5t100 -36.5q59 0 97 32.5t38 82.5
q0 42 -24 76t-62 64t-81 61t-80.5 66.5t-62 79.5t-24.5 101q0 61 31 106.5t86.5 71t128.5 25.5q66 0 117 -22t80 -60.5t29 -88.5q0 -35 -16 -63t-43.5 -44.5t-62.5 -16.5q-11 0 -20 1t-17 3q23 24 36 55.5t13 62.5q0 50 -33.5 79.5t-87.5 29.5q-56 0 -91 -32t-35 -85z
M234 867q-7 5 -18 15.5t-20.5 28.5t-10.5 46q62 37 106.5 74t75.5 74q24 -4 36 -16t20.5 -31.5t18.5 -45t27.5 -55.5t49.5 -63q-13 -6 -26 -9.5t-32 -3.5q-31 0 -49.5 16t-30.5 58t-25 118l25 -38q-17 -29 -35.5 -56.5t-44.5 -54.5t-67 -57z" />
    <glyph glyph-name="scircumflex" unicode="&#x15d;" horiz-adv-x="502" 
d="M232 -20q-91 0 -139 36t-48 87q0 44 25.5 71t61.5 27q8 0 17.5 -1.5t19.5 -6.5q-11 -14 -17.5 -32.5t-6.5 -35.5q0 -34 22 -60.5t67 -26.5q22 0 43 8.5t34.5 26t13.5 43.5q0 29 -16.5 51.5t-43 43t-55.5 40.5t-55.5 43.5t-43 54.5t-16.5 72q0 47 25 83.5t70 57.5t105 21
q57 0 91.5 -17t49.5 -44t15 -56q0 -36 -21 -65t-58 -29q-9 0 -19.5 3t-21.5 7q15 18 21.5 38.5t6.5 35.5q0 34 -23 51.5t-51 17.5q-20 0 -39.5 -8t-31.5 -25.5t-12 -43.5q0 -31 17 -57t44 -47.5t57.5 -42.5t57 -44.5t44 -51.5t17.5 -64q0 -48 -26.5 -84t-73 -56.5
t-107.5 -20.5zM178 619q-7 5 -18 15.5t-20.5 28.5t-10.5 46q62 37 106.5 74t75.5 74q24 -4 36 -16t20.5 -31.5t18.5 -45t27.5 -55.5t49.5 -63q-13 -6 -26 -9.5t-32 -3.5q-31 0 -49.5 16t-30.5 58t-25 118l25 -38q-17 -29 -35.5 -56.5t-44.5 -54.5t-67 -57z" />
    <glyph glyph-name="Scedilla" unicode="&#x15e;" horiz-adv-x="630" 
d="M213 631q0 -47 24.5 -83.5t63 -68.5t82.5 -63t82.5 -64.5t63 -74t24.5 -92.5q0 -61 -34.5 -108.5t-95 -74.5t-138.5 -27q-72 0 -127.5 23t-86.5 64t-31 94q0 36 15 64t42.5 44t63.5 16q9 0 16 -1t13 -3q-31 -46 -31 -98q0 -59 38 -95.5t100 -36.5q59 0 97 32.5t38 82.5
q0 42 -24 76t-62 64t-81 61t-80.5 66.5t-62 79.5t-24.5 101q0 61 31 106.5t86.5 71t128.5 25.5q66 0 117 -22t80 -60.5t29 -88.5q0 -35 -16 -63t-43.5 -44.5t-62.5 -16.5q-11 0 -20 1t-17 3q23 24 36 55.5t13 62.5q0 50 -33.5 79.5t-87.5 29.5q-56 0 -91 -32t-35 -85z
M244 -40q60 -4 92.5 -33t32.5 -79q0 -56 -36 -101.5t-95 -62.5q-21 9 -32.5 28.5t-11.5 46.5q44 8 70 34.5t26 61.5q0 51 -55 75q0 9 1.5 15.5t7.5 14.5z" />
    <glyph glyph-name="scedilla" unicode="&#x15f;" horiz-adv-x="502" 
d="M232 -20q-91 0 -139 36t-48 87q0 44 25.5 71t61.5 27q8 0 17.5 -1.5t19.5 -6.5q-11 -14 -17.5 -32.5t-6.5 -35.5q0 -34 22 -60.5t67 -26.5q22 0 43 8.5t34.5 26t13.5 43.5q0 29 -16.5 51.5t-43 43t-55.5 40.5t-55.5 43.5t-43 54.5t-16.5 72q0 47 25 83.5t70 57.5t105 21
q57 0 91.5 -17t49.5 -44t15 -56q0 -36 -21 -65t-58 -29q-9 0 -19.5 3t-21.5 7q15 18 21.5 38.5t6.5 35.5q0 34 -23 51.5t-51 17.5q-20 0 -39.5 -8t-31.5 -25.5t-12 -43.5q0 -31 17 -57t44 -47.5t57.5 -42.5t57 -44.5t44 -51.5t17.5 -64q0 -48 -26.5 -84t-73 -56.5
t-107.5 -20.5zM188 -40q60 -4 92.5 -33t32.5 -79q0 -56 -36 -101.5t-95 -62.5q-21 9 -32.5 28.5t-11.5 46.5q44 8 70 34.5t26 61.5q0 51 -55 75q0 9 1.5 15.5t7.5 14.5z" />
    <glyph glyph-name="Scaron" unicode="&#x160;" horiz-adv-x="630" 
d="M213 631q0 -47 24.5 -83.5t63 -68.5t82.5 -63t82.5 -64.5t63 -74t24.5 -92.5q0 -61 -34.5 -108.5t-95 -74.5t-138.5 -27q-72 0 -127.5 23t-86.5 64t-31 94q0 36 15 64t42.5 44t63.5 16q9 0 16 -1t13 -3q-31 -46 -31 -98q0 -59 38 -95.5t100 -36.5q59 0 97 32.5t38 82.5
q0 42 -24 76t-62 64t-81 61t-80.5 66.5t-62 79.5t-24.5 101q0 61 31 106.5t86.5 71t128.5 25.5q66 0 117 -22t80 -60.5t29 -88.5q0 -35 -16 -63t-43.5 -44.5t-62.5 -16.5q-11 0 -20 1t-17 3q23 24 36 55.5t13 62.5q0 50 -33.5 79.5t-87.5 29.5q-56 0 -91 -32t-35 -85z
M474 1105q7 -5 18 -15.5t20.5 -28.5t10.5 -46q-62 -38 -106 -74t-76 -74q-24 3 -36.5 15t-20.5 32t-18 45.5t-27.5 55.5t-50.5 62q14 7 27 10t31 3q32 0 50.5 -16t31 -57.5t24.5 -118.5l-25 38q16 30 35 57t45.5 54t66.5 58z" />
    <glyph glyph-name="scaron" unicode="&#x161;" horiz-adv-x="502" 
d="M232 -20q-91 0 -139 36t-48 87q0 44 25.5 71t61.5 27q8 0 17.5 -1.5t19.5 -6.5q-11 -14 -17.5 -32.5t-6.5 -35.5q0 -34 22 -60.5t67 -26.5q22 0 43 8.5t34.5 26t13.5 43.5q0 29 -16.5 51.5t-43 42.5t-55.5 40.5t-55.5 44t-43 54.5t-16.5 72q0 47 25 83.5t70 57.5t105 21
q57 0 91.5 -17t49.5 -44t15 -56q0 -36 -21 -65t-58 -29q-9 0 -19.5 3t-21.5 7q15 18 21.5 38.5t6.5 35.5q0 34 -23 51.5t-51 17.5q-20 0 -39.5 -8t-31.5 -25.5t-12 -43.5q0 -31 17 -56.5t44 -47.5t57.5 -43t57 -44.5t44 -51.5t17.5 -64q0 -48 -26.5 -84t-73 -56.5
t-107.5 -20.5zM418 857q7 -5 18 -15.5t20 -28.5t10 -46q-61 -38 -105.5 -74t-76.5 -74q-23 3 -35.5 15t-20.5 32t-18 45.5t-28 55.5t-50 62q14 7 27 10t31 3q31 0 49.5 -16t31.5 -57.5t25 -118.5l-26 38q17 30 35.5 57t45.5 54t67 58z" />
    <glyph glyph-name="uni0162" unicode="&#x162;" horiz-adv-x="543" 
d="M40 727q0 15 2.5 27.5t5.5 20.5q56 -8 111 -11.5t110 -3.5q80 0 158.5 7.5t155.5 21.5q-5 -36 -21.5 -60t-41.5 -36.5t-57 -15.5q-37 -4 -87.5 -7t-105 -6t-103 -4t-82.5 -1q-18 0 -28 10t-13.5 26t-3.5 32zM359 711q0 -30 -7 -86t-17 -127t-20.5 -147t-17.5 -147
t-7 -126q0 -76 14 -109q-47 15 -74 36.5t-38 52t-11 71.5q0 32 6 80.5t14.5 108.5t17 127t14.5 137t6 138zM201 -40q60 -4 92.5 -33t32.5 -79q0 -56 -36 -101.5t-95 -62.5q-21 9 -32.5 28.5t-11.5 46.5q44 8 70 34.5t26 61.5q0 51 -55 75q0 9 1.5 15.5t7.5 14.5z" />
    <glyph glyph-name="uni0163" unicode="&#x163;" horiz-adv-x="386" 
d="M211 63q0 -42 3.5 -73.5t10.5 -46.5q-43 14 -68.5 37.5t-36 58.5t-10.5 83q0 62 10 123.5t23 128t23 143t10 168.5q0 16 -0.5 32.5t-0.5 32.5q52 -7 79 -40t27 -92q0 -54 -10.5 -121t-24.5 -141.5t-24.5 -149t-10.5 -143.5zM399 577q1 -6 1.5 -13t0.5 -14
q0 -46 -17.5 -62t-47.5 -16q-42 0 -77.5 0.5t-68.5 -1.5t-67.5 -10t-75.5 -26q-1 7 -1.5 15t-0.5 15q0 37 17 55t46 24t64 6q24 0 50 -1.5t49 -1.5q36 0 70.5 5.5t57.5 24.5zM125 -40q60 -4 92.5 -33t32.5 -79q0 -56 -36 -101.5t-95 -62.5q-21 9 -32.5 28.5t-11.5 46.5
q44 8 70 34.5t26 61.5q0 51 -55 75q0 9 1.5 15.5t7.5 14.5z" />
    <glyph glyph-name="Tcaron" unicode="&#x164;" horiz-adv-x="543" 
d="M40 727q0 15 2.5 27.5t5.5 20.5q56 -8 111 -11.5t110 -3.5q80 0 158.5 7.5t155.5 21.5q-5 -36 -21.5 -60t-41.5 -36.5t-57 -15.5q-37 -4 -87.5 -7t-105 -6t-103 -4t-82.5 -1q-18 0 -28 10t-13.5 26t-3.5 32zM359 711q0 -30 -7 -86t-17 -127t-20.5 -147t-17.5 -147
t-7 -126q0 -76 14 -109q-47 15 -74 36.5t-38 52t-11 71.5q0 32 6 80.5t14.5 108.5t17 127t14.5 137t6 138zM432 1105q7 -5 18 -15.5t20 -28.5t10 -46q-61 -38 -105.5 -74t-76.5 -74q-23 3 -35.5 15t-20.5 32t-18 45.5t-28 55.5t-50 62q14 7 27 10t31 3q31 0 49.5 -16
t31.5 -57.5t25 -118.5l-26 38q17 30 35.5 57t45.5 54t67 58z" />
    <glyph glyph-name="tcaron" unicode="&#x165;" horiz-adv-x="386" 
d="M211 63q0 -42 3.5 -73.5t10.5 -46.5q-43 14 -68.5 37.5t-36 58.5t-10.5 83q0 62 10 123.5t23 128t23 143t10 168.5q0 16 -0.5 32.5t-0.5 32.5q52 -7 79 -40t27 -92q0 -54 -10.5 -121t-24.5 -141.5t-24.5 -149t-10.5 -143.5zM399 577q1 -6 1.5 -13t0.5 -14
q0 -46 -17.5 -62t-47.5 -16q-42 0 -77.5 0.5t-68.5 -1.5t-67.5 -10t-75.5 -26q-1 7 -1.5 15t-0.5 15q0 37 17 55t46 24t64 6q24 0 50 -1.5t49 -1.5q36 0 70.5 5.5t57.5 24.5zM352 849q14 8 33.5 14t33.5 6q19 0 32.5 -13t13.5 -51q0 -41 -25.5 -85t-77.5 -85l-25 24
q20 25 29.5 53t9.5 55q0 24 -7 44.5t-17 37.5z" />
    <glyph glyph-name="Tbar" unicode="&#x166;" horiz-adv-x="543" 
d="M40 727q0 15 2.5 27.5t5.5 20.5q56 -8 111 -11.5t110 -3.5q80 0 158.5 7.5t155.5 21.5q-5 -36 -21.5 -60t-41.5 -36.5t-57 -15.5q-37 -4 -87.5 -7t-105 -6t-103 -4t-82.5 -1q-18 0 -28 10t-13.5 26t-3.5 32zM359 711q0 -30 -7 -86t-17 -127t-20.5 -147t-17.5 -147
t-7 -126q0 -76 14 -109q-47 15 -74 36.5t-38 52t-11 71.5q0 32 6 80.5t14.5 108.5t17 127t14.5 137t6 138zM398 336q-59 0 -107 5t-95 5q-26 0 -52 -0.5t-48 -2.5t-34 -4q0 4 -0.5 7.5t-0.5 7.5q0 19 6 35t25 25t56 9q59 0 107.5 -4.5t95.5 -4.5q26 0 52 0.5t48 2.5t34 4
q0 -4 0.5 -8t0.5 -7q0 -20 -6.5 -35.5t-24.5 -25t-57 -9.5z" />
    <glyph glyph-name="tbar" unicode="&#x167;" horiz-adv-x="386" 
d="M211 63q0 -42 3.5 -73.5t10.5 -46.5q-43 14 -68.5 37.5t-36 58.5t-10.5 83q0 62 10 123.5t23 128t23 143t10 168.5q0 16 -0.5 32.5t-0.5 32.5q52 -7 79 -40t27 -92q0 -54 -10.5 -121t-24.5 -141.5t-24.5 -149t-10.5 -143.5zM399 577q1 -6 1.5 -13t0.5 -14
q0 -46 -17.5 -62t-47.5 -16q-42 0 -77.5 0.5t-68.5 -1.5t-67.5 -10t-75.5 -26q-1 7 -1.5 15t-0.5 15q0 37 17 55t46 24t64 6q24 0 50 -1.5t49 -1.5q36 0 70.5 5.5t57.5 24.5zM278 194q-48 0 -86.5 4.5t-75.5 4.5q-20 0 -41 -0.5t-39 -2t-27 -4.5q0 4 -0.5 7.5t-0.5 7.5
q0 18 5 33t20 23.5t45 8.5q46 0 85 -4.5t77 -4.5q21 0 41.5 0.5t38 2t27.5 4.5q0 -4 0.5 -7.5t0.5 -7.5q0 -18 -5 -33t-20 -23.5t-45 -8.5z" />
    <glyph glyph-name="Utilde" unicode="&#x168;" horiz-adv-x="755" 
d="M238 653q0 -67 -10 -134.5t-21 -136.5t-11 -143q0 -70 13.5 -107t37 -51t52.5 -14q19 0 45 9t55 33.5t57 70t50.5 117.5t36 176.5t13.5 246.5l6 -330q-10 -59 -26.5 -118t-41 -111t-59.5 -93t-81 -64.5t-105 -23.5q-81 0 -124 56.5t-43 183.5q0 40 4.5 92t11.5 108
t13.5 110.5t11 100.5t4.5 76q0 65 -11 95q45 -14 71.5 -34.5t38.5 -48.5t12 -66zM673 684q0 -32 -6.5 -88t-16.5 -125t-20 -141t-16.5 -137.5t-6.5 -114.5q0 -76 14 -109q-47 15 -74 36.5t-38 52t-11 71.5q0 31 6 82.5t14.5 115.5t17 133t14.5 136t6 124q0 21 -1 42t-3 40
q43 -2 67.5 -11t36 -24.5t14.5 -36t3 -46.5zM280 923q-10 1 -18 5.5t-8 13.5q7 43 22 67t34 34t39 10q26 0 49.5 -7t45 -14.5t40.5 -7.5q25 0 42.5 11.5t27.5 25.5q10 -1 17 -5.5t9 -13.5q-5 -43 -20.5 -67t-35 -34t-39.5 -10q-25 0 -49 7.5t-45 14.5t-40 7
q-26 0 -43.5 -11.5t-27.5 -25.5z" />
    <glyph glyph-name="utilde" unicode="&#x169;" horiz-adv-x="606" 
d="M512 -21q-46 17 -71.5 43.5t-35 60t-9.5 73.5q0 16 1.5 33t3.5 35l-8 2q-23 -66 -57 -117.5t-71 -80t-69 -28.5q-45 0 -70 22.5t-35 60t-10 83.5q0 53 8.5 103.5t16.5 98.5t8 94q0 28 -3 55t-11 55q42 0 72.5 -8t48 -30.5t17.5 -68.5q0 -36 -10.5 -87t-21 -105
t-10.5 -102q0 -37 10.5 -55.5t33.5 -18.5q22 0 46.5 23.5t47 64t40 92t27.5 108.5t10 114q-1 19 -2.5 39.5t-5.5 38.5q9 1 18.5 1.5t16.5 0.5q26 0 46.5 -7t33.5 -26.5t13 -55.5q0 -19 -5.5 -56t-13.5 -84.5t-13.5 -98t-5.5 -97.5q0 -46 4 -90t15 -85zM193 675
q-10 1 -18 5.5t-8 13.5q7 43 22 67t34 34t39 10q26 0 49.5 -7t45 -14.5t40.5 -7.5q25 0 42.5 11.5t27.5 25.5q10 -1 17 -5.5t9 -13.5q-5 -43 -20.5 -67t-35 -34t-39.5 -10q-25 0 -49 7.5t-45 14.5t-40 7q-26 0 -43.5 -11.5t-27.5 -25.5z" />
    <glyph glyph-name="Umacron" unicode="&#x16a;" horiz-adv-x="755" 
d="M238 653q0 -67 -10 -134.5t-21 -136.5t-11 -143q0 -70 13.5 -107t37 -51t52.5 -14q19 0 45 9t55 33.5t57 70t50.5 117.5t36 176.5t13.5 246.5l6 -330q-10 -59 -26.5 -118t-41 -111t-59.5 -93t-81 -64.5t-105 -23.5q-81 0 -124 56.5t-43 183.5q0 40 4.5 92t11.5 108
t13.5 110.5t11 100.5t4.5 76q0 65 -11 95q45 -14 71.5 -34.5t38.5 -48.5t12 -66zM673 684q0 -32 -6.5 -88t-16.5 -125t-20 -141t-16.5 -137.5t-6.5 -114.5q0 -76 14 -109q-47 15 -74 36.5t-38 52t-11 71.5q0 31 6 82.5t14.5 115.5t17 133t14.5 136t6 124q0 21 -1 42t-3 40
q43 -2 67.5 -11t36 -24.5t14.5 -36t3 -46.5zM330 937q-41 0 -52.5 23t-11.5 63q0 6 1 10t2 10q25 -6 47.5 -8t45.5 -2q35 0 68.5 6.5t74.5 6.5t52.5 -23t11.5 -63q0 -5 -0.5 -9.5t-2.5 -10.5q-25 6 -47 8t-46 2q-35 0 -68 -6.5t-75 -6.5z" />
    <glyph glyph-name="umacron" unicode="&#x16b;" horiz-adv-x="606" 
d="M512 -21q-46 17 -71.5 43.5t-35 60t-9.5 73.5q0 16 1.5 33t3.5 35l-8 2q-23 -66 -57 -117.5t-71 -80t-69 -28.5q-45 0 -70 22.5t-35 60t-10 83.5q0 53 8.5 103.5t16.5 98.5t8 94q0 28 -3 55t-11 55q42 0 72.5 -8t48 -30.5t17.5 -68.5q0 -36 -10.5 -87t-21 -105
t-10.5 -102q0 -37 10.5 -55.5t33.5 -18.5q22 0 46.5 23.5t47 64t40 92t27.5 108.5t10 114q-1 19 -2.5 39.5t-5.5 38.5q9 1 18.5 1.5t16.5 0.5q26 0 46.5 -7t33.5 -26.5t13 -55.5q0 -19 -5.5 -56t-13.5 -84.5t-13.5 -98t-5.5 -97.5q0 -46 4 -90t15 -85zM243 689
q-41 0 -52.5 23t-11.5 63q0 6 1 10t2 10q25 -6 47.5 -8t45.5 -2q35 0 68.5 6.5t74.5 6.5t52.5 -23t11.5 -63q0 -5 -0.5 -9.5t-2.5 -10.5q-25 6 -47 8t-46 2q-35 0 -68 -6.5t-75 -6.5z" />
    <glyph glyph-name="Ubreve" unicode="&#x16c;" horiz-adv-x="755" 
d="M238 653q0 -67 -10 -134.5t-21 -136.5t-11 -143q0 -70 13.5 -107t37 -51t52.5 -14q19 0 45 9t55 33.5t57 70t50.5 117.5t36 176.5t13.5 246.5l6 -330q-10 -59 -26.5 -118t-41 -111t-59.5 -93t-81 -64.5t-105 -23.5q-81 0 -124 56.5t-43 183.5q0 40 4.5 92t11.5 108
t13.5 110.5t11 100.5t4.5 76q0 65 -11 95q45 -14 71.5 -34.5t38.5 -48.5t12 -66zM673 684q0 -32 -6.5 -88t-16.5 -125t-20 -141t-16.5 -137.5t-6.5 -114.5q0 -76 14 -109q-47 15 -74 36.5t-38 52t-11 71.5q0 31 6 82.5t14.5 115.5t17 133t14.5 136t6 124q0 21 -1 42t-3 40
q43 -2 67.5 -11t36 -24.5t14.5 -36t3 -46.5zM275 1039q7 6 15.5 10t17.5 4q16 0 24 -13q6 -31 23 -49t44 -18q23 0 45 12t38 33.5t18 49.5q15 0 29 -10t22 -25t8 -31q-10 -37 -32.5 -61t-52.5 -36.5t-65 -12.5q-33 0 -64 14.5t-50.5 46.5t-19.5 86z" />
    <glyph glyph-name="ubreve" unicode="&#x16d;" horiz-adv-x="606" 
d="M512 -21q-46 17 -71.5 43.5t-35 60t-9.5 73.5q0 16 1.5 33t3.5 35l-8 2q-23 -66 -57 -117.5t-71 -80t-69 -28.5q-45 0 -70 22.5t-35 60t-10 83.5q0 53 8.5 103.5t16.5 98.5t8 94q0 28 -3 55t-11 55q42 0 72.5 -8t48 -30.5t17.5 -68.5q0 -36 -10.5 -87t-21 -105
t-10.5 -102q0 -37 10.5 -55.5t33.5 -18.5q22 0 46.5 23.5t47 64t40 92t27.5 108.5t10 114q-1 19 -2.5 39.5t-5.5 38.5q9 1 18.5 1.5t16.5 0.5q26 0 46.5 -7t33.5 -26.5t13 -55.5q0 -19 -5.5 -56t-13.5 -84.5t-13.5 -98t-5.5 -97.5q0 -46 4 -90t15 -85zM188 791q7 6 15.5 10
t17.5 4q16 0 24 -13q6 -31 23 -49t44 -18q23 0 45 12t38 33.5t18 49.5q15 0 29 -10t22 -25t8 -31q-10 -37 -32.5 -61t-52.5 -36.5t-65 -12.5q-33 0 -64 14.5t-50.5 46.5t-19.5 86z" />
    <glyph glyph-name="Uring" unicode="&#x16e;" horiz-adv-x="755" 
d="M238 653q0 -67 -10 -134.5t-21 -136.5t-11 -143q0 -70 13.5 -107t37 -51t52.5 -14q19 0 45 9t55 33.5t57 70t50.5 117.5t36 176.5t13.5 246.5l6 -330q-10 -59 -26.5 -118t-41 -111t-59.5 -93t-81 -64.5t-105 -23.5q-81 0 -124 56.5t-43 183.5q0 40 4.5 92t11.5 108
t13.5 110.5t11 100.5t4.5 76q0 65 -11 95q45 -14 71.5 -34.5t38.5 -48.5t12 -66zM673 684q0 -32 -6.5 -88t-16.5 -125t-20 -141t-16.5 -137.5t-6.5 -114.5q0 -76 14 -109q-47 15 -74 36.5t-38 52t-11 71.5q0 31 6 82.5t14.5 115.5t17 133t14.5 136t6 124q0 21 -1 42t-3 40
q43 -2 67.5 -11t36 -24.5t14.5 -36t3 -46.5zM456 944q4 14 7.5 28t3.5 25q0 25 -14 32t-31 7q-22 0 -42 -5q-5 -14 -8.5 -28t-3.5 -25q0 -25 14 -32t31 -7q22 0 43 5zM510 887q-22 -7 -49.5 -12t-54.5 -5q-26 0 -51 8t-41.5 28.5t-16.5 56.5q0 32 8.5 62.5t19.5 62.5
q23 7 50.5 12t53.5 5q27 0 52 -8t41 -28t16 -57q0 -32 -8.5 -62.5t-19.5 -62.5z" />
    <glyph glyph-name="uring" unicode="&#x16f;" horiz-adv-x="606" 
d="M512 -21q-46 17 -71.5 43.5t-35 60t-9.5 73.5q0 16 1.5 33t3.5 35l-8 2q-23 -66 -57 -117.5t-71 -80t-69 -28.5q-45 0 -70 22.5t-35 60t-10 83.5q0 53 8.5 103.5t16.5 98.5t8 94q0 28 -3 55t-11 55q42 0 72.5 -8t48 -30.5t17.5 -68.5q0 -36 -10.5 -87t-21 -105
t-10.5 -102q0 -37 10.5 -55.5t33.5 -18.5q22 0 46.5 23.5t47 64t40 92t27.5 108.5t10 114q-1 19 -2.5 39.5t-5.5 38.5q9 1 18.5 1.5t16.5 0.5q26 0 46.5 -7t33.5 -26.5t13 -55.5q0 -19 -5.5 -56t-13.5 -84.5t-13.5 -98t-5.5 -97.5q0 -46 4 -90t15 -85zM369 696q4 14 7.5 28
t3.5 25q0 25 -14 32t-31 7q-22 0 -42 -5q-5 -14 -8.5 -28t-3.5 -25q0 -25 14 -32t31 -7q22 0 43 5zM423 639q-22 -7 -49.5 -12t-54.5 -5q-26 0 -51 8t-41.5 28.5t-16.5 56.5q0 32 8.5 62.5t19.5 62.5q23 7 50.5 12t53.5 5q27 0 52 -8t41 -28t16 -57q0 -32 -8.5 -62.5
t-19.5 -62.5z" />
    <glyph glyph-name="Uhungarumlaut" unicode="&#x170;" horiz-adv-x="755" 
d="M238 653q0 -67 -10 -134.5t-21 -136.5t-11 -143q0 -70 13.5 -107t37 -51t52.5 -14q19 0 45 9t55 33.5t57 70t50.5 117.5t36 176.5t13.5 246.5l6 -330q-10 -59 -26.5 -118t-41 -111t-59.5 -93t-81 -64.5t-105 -23.5q-81 0 -124 56.5t-43 183.5q0 40 4.5 92t11.5 108
t13.5 110.5t11 100.5t4.5 76q0 65 -11 95q45 -14 71.5 -34.5t38.5 -48.5t12 -66zM673 684q0 -32 -6.5 -88t-16.5 -125t-20 -141t-16.5 -137.5t-6.5 -114.5q0 -76 14 -109q-47 15 -74 36.5t-38 52t-11 71.5q0 31 6 82.5t14.5 115.5t17 133t14.5 136t6 124q0 21 -1 42t-3 40
q43 -2 67.5 -11t36 -24.5t14.5 -36t3 -46.5zM235 900q14 36 40 77.5t59.5 76.5t65.5 51q7 -5 18.5 -15.5t20.5 -28.5t10 -46q-37 -13 -71.5 -38.5t-62.5 -54.5t-47 -55q-11 3 -21 12.5t-12 20.5zM430 900q14 37 41 78.5t60 76t64 50.5q7 -5 18 -15.5t20.5 -28.5t10.5 -46
q-37 -12 -71.5 -37.5t-62.5 -55t-46 -55.5q-12 3 -22 12.5t-12 20.5z" />
    <glyph glyph-name="uhungarumlaut" unicode="&#x171;" horiz-adv-x="606" 
d="M512 -21q-46 17 -71.5 43.5t-35 60t-9.5 73.5q0 16 1.5 33t3.5 35l-8 2q-23 -66 -57 -117.5t-71 -80t-69 -28.5q-45 0 -70 22.5t-35 60t-10 83.5q0 53 8.5 103.5t16.5 98.5t8 94q0 28 -3 55t-11 55q42 0 72.5 -8t48 -30.5t17.5 -68.5q0 -36 -10.5 -87t-21 -105
t-10.5 -102q0 -37 10.5 -55.5t33.5 -18.5q22 0 46.5 23.5t47 64t40 92t27.5 108.5t10 114q-1 19 -2.5 39.5t-5.5 38.5q9 1 18.5 1.5t16.5 0.5q26 0 46.5 -7t33.5 -26.5t13 -55.5q0 -19 -5.5 -56t-13.5 -84.5t-13.5 -98t-5.5 -97.5q0 -46 4 -90t15 -85zM148 652
q14 36 40 77.5t59.5 76.5t65.5 51q7 -5 18.5 -15.5t20.5 -28.5t10 -46q-37 -13 -71.5 -38.5t-62.5 -54.5t-47 -55q-11 3 -21 12.5t-12 20.5zM343 652q14 37 41 78.5t60 76t64 50.5q7 -5 18 -15.5t20.5 -28.5t10.5 -46q-37 -12 -71.5 -37.5t-62.5 -55t-46 -55.5
q-12 3 -22 12.5t-12 20.5z" />
    <glyph glyph-name="Uogonek" unicode="&#x172;" horiz-adv-x="755" 
d="M238 653q0 -67 -10 -134.5t-21 -136.5t-11 -143q0 -70 13.5 -107t37 -51t52.5 -14q19 0 45 9t55 33.5t57 70t50.5 117.5t36 176.5t13.5 246.5l6 -330q-10 -59 -26.5 -118t-41 -111t-59.5 -93t-81 -64.5t-105 -23.5q-81 0 -124 56.5t-43 183.5q0 40 4.5 92t11.5 108
t13.5 110.5t11 100.5t4.5 76q0 65 -11 95q45 -14 71.5 -34.5t38.5 -48.5t12 -66zM673 684q0 -32 -6.5 -88t-16.5 -125t-20 -141t-16.5 -137.5t-6.5 -114.5q0 -76 14 -109q-47 15 -74 36.5t-38 52t-11 71.5q0 31 6 82.5t14.5 115.5t17 133t14.5 136t6 124q0 21 -1 42t-3 40
q43 -2 67.5 -11t36 -24.5t14.5 -36t3 -46.5zM666 -232q30 -9 30 -36q-35 -39 -76 -59.5t-85 -20.5q-55 0 -88.5 34.5t-33.5 91.5q0 65 46 119.5t134 91.5l28 -20q-60 -41 -91.5 -84.5t-31.5 -85.5q0 -34 19 -54.5t50 -20.5q25 0 52 12t47 32z" />
    <glyph glyph-name="uogonek" unicode="&#x173;" horiz-adv-x="606" 
d="M512 -21q-46 17 -71.5 43.5t-35 60t-9.5 73.5q0 16 1.5 33t3.5 35l-8 2q-23 -66 -57 -117.5t-71 -80t-69 -28.5q-45 0 -70 22.5t-35 60t-10 83.5q0 53 8.5 103.5t16.5 98.5t8 94q0 28 -3 55t-11 55q42 0 72.5 -8t48 -30.5t17.5 -68.5q0 -36 -10.5 -87t-21 -105
t-10.5 -102q0 -37 10.5 -55.5t33.5 -18.5q22 0 46.5 23.5t47 64t40 92t27.5 108.5t10 114q-1 19 -2.5 39.5t-5.5 38.5q9 1 18.5 1.5t16.5 0.5q26 0 46.5 -7t33.5 -26.5t13 -55.5q0 -19 -5.5 -56t-13.5 -84.5t-13.5 -98t-5.5 -97.5q0 -46 4 -90t15 -85zM556 -222
q30 -9 30 -36q-35 -39 -76 -59.5t-85 -20.5q-55 0 -88.5 34.5t-33.5 91.5q0 65 46 119.5t134 91.5l28 -20q-60 -41 -91.5 -84.5t-31.5 -85.5q0 -34 19 -54.5t50 -20.5q25 0 52 12t47 32z" />
    <glyph glyph-name="Wcircumflex" unicode="&#x174;" horiz-adv-x="983" 
d="M585 -14q-12 0 -21 3.5t-9 11.5q-8 45 -18 111t-21.5 143t-25 155t-28 149t-31 125.5t-34.5 81.5q21 11 42.5 18.5t36.5 7.5q16 0 28 -6t23 -27.5t21.5 -65t23 -119t29.5 -190.5l39 -272q21 55 45.5 120t50.5 135t49.5 138t42.5 128t31 105.5t13 68.5q40 -10 65 -28.5
t25 -42.5q0 -19 -14 -60.5t-37.5 -99t-52 -124t-59 -134.5t-58.5 -130t-49 -111t-32 -77q-4 -2 -18 -5.5t-30 -6t-27 -2.5zM232 -14q-12 0 -21 3.5t-9 11.5q-8 45 -18 111t-21.5 143t-24.5 155t-28 149t-31.5 125.5t-34.5 81.5q21 11 42.5 18.5t36.5 7.5q16 0 28 -6
t23 -27.5t21.5 -65t23 -119t29.5 -190.5l39 -272q18 47 40 104t45 119.5t45 125t40.5 119t31.5 100.5l51 -148q-23 -56 -50.5 -118.5t-55.5 -124.5t-53 -118t-44.5 -100.5t-29.5 -70.5q-4 -2 -18 -5.5t-30 -6t-27 -2.5zM410 867q-7 5 -18 15.5t-20.5 28.5t-10.5 46
q62 37 106.5 74t75.5 74q24 -4 36 -16t20.5 -31.5t18.5 -45t27.5 -55.5t49.5 -63q-13 -6 -26 -9.5t-32 -3.5q-31 0 -49.5 16t-30.5 58t-25 118l25 -38q-17 -29 -35.5 -56.5t-44.5 -54.5t-67 -57z" />
    <glyph glyph-name="wcircumflex" unicode="&#x175;" horiz-adv-x="769" 
d="M483 -14q-11 0 -18.5 3.5t-9.5 11.5q-12 68 -21 147.5t-20.5 158.5t-29 145.5t-45.5 107.5q20 11 40 18.5t35 7.5q33 0 51.5 -26t27.5 -73t14 -112.5t11 -144.5t19 -168l-19 23q26 61 55 130.5t55.5 140t43.5 133.5t18 110q35 -17 51 -40t16 -57q0 -29 -15 -73t-39 -96
t-52.5 -109t-56 -114.5t-47.5 -109.5q-4 -3 -25.5 -8.5t-38.5 -5.5zM175 -14q-11 0 -18.5 3.5t-9.5 11.5q-15 68 -26.5 147.5t-22.5 158.5t-27 145.5t-40 107.5q20 11 40 18.5t35 7.5q34 0 52.5 -26t27.5 -73t13.5 -112.5t10.5 -144t19 -167.5l-18 24q20 49 44 106t47 116
t42 115t29 102l50 -94q-18 -47 -43 -102.5t-52.5 -113.5t-52.5 -113.5t-43 -102.5q-4 -3 -22 -8.5t-35 -5.5zM291 619q-7 5 -18 15.5t-20.5 28.5t-10.5 46q62 37 106.5 74t75.5 74q24 -4 36 -16t20.5 -31.5t18.5 -45t27.5 -55.5t49.5 -63q-13 -6 -26 -9.5t-32 -3.5
q-31 0 -49.5 16t-30.5 58t-25 118l25 -38q-17 -29 -35.5 -56.5t-44.5 -54.5t-67 -57z" />
    </font>
</defs>
</svg>
